; NON-PLATED HOLES START AT T1
; THROUGH (PLATED) HOLES START AT T100
M48
INCH
T1C0.125984
T100C0.015748
T101C0.035000
T102C0.038000
%
T1
X018766Y002294
X001766Y002294
T100
X012885Y012947
T101
X010766Y007294
X003766Y003294
X010766Y003294
X003766Y007294
T102
X013766Y013294
X014830Y026533
X013766Y006294
X013766Y008294
X013766Y015294
X017830Y026533
X012830Y026533
X006766Y012294
X006766Y015294
X006766Y018294
X013766Y019294
X013766Y016294
X013766Y007294
X006766Y006294
X013766Y020294
X006766Y014294
X006830Y026533
X008830Y026533
X003830Y026533
X006766Y019294
X006766Y020294
X013766Y021294
X016830Y026533
X007830Y026533
X006766Y022294
X006766Y005294
X006766Y004294
X009830Y026533
X013830Y026533
X006766Y010294
X006766Y008294
X006766Y021294
X006766Y007294
X006766Y009294
X013766Y009294
X013766Y017294
X013766Y005294
X013766Y011294
X006766Y017294
X013766Y004294
X013766Y012294
X006766Y023294
X004830Y026533
X013766Y022294
X013766Y014294
X006766Y016294
X002830Y026533
X006766Y011294
X013766Y010294
X013766Y023294
X011830Y026533
X015830Y026533
X010830Y026533
X013766Y018294
X006766Y013294
X005830Y026533
T00
M30
