G04 MADE WITH FRITZING*
G04 WWW.FRITZING.ORG*
G04 DOUBLE SIDED*
G04 HOLES PLATED*
G04 CONTOUR ON CENTER OF CONTOUR VECTOR*
%ASAXBY*%
%FSLAX23Y23*%
%MOIN*%
%OFA0B0*%
%SFA1.0B1.0*%
%ADD10C,0.075000*%
%ADD11C,0.039370*%
%ADD12C,0.078000*%
%ADD13C,0.024000*%
%LNCOPPER1*%
G90*
G70*
G54D10*
X1077Y729D03*
X1077Y329D03*
X1077Y729D03*
X1077Y329D03*
G54D11*
X1289Y1295D03*
G54D10*
X377Y729D03*
X377Y329D03*
G54D12*
X677Y2329D03*
X677Y2229D03*
X677Y2129D03*
X677Y2029D03*
X677Y1929D03*
X677Y1829D03*
X677Y1729D03*
X677Y1629D03*
X677Y1529D03*
X677Y1429D03*
X677Y1329D03*
X677Y1229D03*
X677Y1129D03*
X677Y1029D03*
X677Y929D03*
X677Y829D03*
X677Y729D03*
X677Y629D03*
X677Y529D03*
X677Y429D03*
X677Y2329D03*
X677Y2229D03*
X677Y2129D03*
X677Y2029D03*
X677Y1929D03*
X677Y1829D03*
X677Y1729D03*
X677Y1629D03*
X677Y1529D03*
X677Y1429D03*
X677Y1329D03*
X677Y1229D03*
X677Y1129D03*
X677Y1029D03*
X677Y929D03*
X677Y829D03*
X677Y729D03*
X677Y629D03*
X677Y529D03*
X677Y429D03*
X1377Y2329D03*
X1377Y2229D03*
X1377Y2129D03*
X1377Y2029D03*
X1377Y1929D03*
X1377Y1829D03*
X1377Y1729D03*
X1377Y1629D03*
X1377Y1529D03*
X1377Y1429D03*
X1377Y1329D03*
X1377Y1229D03*
X1377Y1129D03*
X1377Y1029D03*
X1377Y929D03*
X1377Y829D03*
X1377Y729D03*
X1377Y629D03*
X1377Y529D03*
X1377Y429D03*
X1377Y2329D03*
X1377Y2229D03*
X1377Y2129D03*
X1377Y2029D03*
X1377Y1929D03*
X1377Y1829D03*
X1377Y1729D03*
X1377Y1629D03*
X1377Y1529D03*
X1377Y1429D03*
X1377Y1329D03*
X1377Y1229D03*
X1377Y1129D03*
X1377Y1029D03*
X1377Y929D03*
X1377Y829D03*
X1377Y729D03*
X1377Y629D03*
X1377Y529D03*
X1377Y429D03*
X283Y2653D03*
X383Y2653D03*
X483Y2653D03*
X583Y2653D03*
X683Y2653D03*
X783Y2653D03*
X883Y2653D03*
X983Y2653D03*
X1083Y2653D03*
X1183Y2653D03*
X1283Y2653D03*
X1383Y2653D03*
X1483Y2653D03*
X1583Y2653D03*
X1683Y2653D03*
X1783Y2653D03*
G54D13*
X1059Y329D02*
X394Y329D01*
D02*
X659Y823D02*
X393Y735D01*
D02*
X641Y2159D02*
X294Y2638D01*
D02*
X662Y2141D02*
X641Y2159D01*
D02*
X1097Y1295D02*
X1363Y1042D01*
D02*
X1083Y2634D02*
X1097Y1295D01*
D02*
X783Y2634D02*
X761Y575D01*
D02*
X1363Y943D02*
X1001Y1295D01*
D02*
X761Y575D02*
X693Y538D01*
D02*
X691Y441D02*
X857Y575D01*
D02*
X1001Y1295D02*
X983Y2634D01*
D02*
X1288Y1303D02*
X1185Y2634D01*
D02*
X857Y575D02*
X883Y2634D01*
G04 End of Copper1*
M02*