G04 MADE WITH FRITZING*
G04 WWW.FRITZING.ORG*
G04 DOUBLE SIDED*
G04 HOLES PLATED*
G04 CONTOUR ON CENTER OF CONTOUR VECTOR*
%ASAXBY*%
%FSLAX23Y23*%
%MOIN*%
%OFA0B0*%
%SFA1.0B1.0*%
%ADD10C,0.010000*%
%ADD11R,0.001000X0.001000*%
%LNSILK0*%
G90*
G70*
G54D10*
X1044Y620D02*
X1044Y420D01*
D02*
X1044Y420D02*
X1110Y420D01*
D02*
X1110Y420D02*
X1110Y620D01*
D02*
X1110Y620D02*
X1044Y620D01*
D02*
X727Y2379D02*
X727Y379D01*
D02*
X727Y379D02*
X627Y379D01*
D02*
X627Y379D02*
X627Y2379D01*
D02*
X627Y2379D02*
X727Y2379D01*
D02*
X1427Y2379D02*
X1427Y379D01*
D02*
X1427Y379D02*
X1327Y379D01*
D02*
X1327Y379D02*
X1327Y2379D01*
D02*
X1327Y2379D02*
X1427Y2379D01*
G54D11*
X1Y3002D02*
X2066Y3002D01*
X1Y3001D02*
X2066Y3001D01*
X1Y3000D02*
X2066Y3000D01*
X1Y2999D02*
X2066Y2999D01*
X1Y2998D02*
X2066Y2998D01*
X1Y2997D02*
X2066Y2997D01*
X1Y2996D02*
X2066Y2996D01*
X1Y2995D02*
X2066Y2995D01*
X1Y2994D02*
X8Y2994D01*
X2059Y2994D02*
X2066Y2994D01*
X1Y2993D02*
X8Y2993D01*
X2059Y2993D02*
X2066Y2993D01*
X1Y2992D02*
X8Y2992D01*
X2059Y2992D02*
X2066Y2992D01*
X1Y2991D02*
X8Y2991D01*
X2059Y2991D02*
X2066Y2991D01*
X1Y2990D02*
X8Y2990D01*
X2059Y2990D02*
X2066Y2990D01*
X1Y2989D02*
X8Y2989D01*
X2059Y2989D02*
X2066Y2989D01*
X1Y2988D02*
X8Y2988D01*
X2059Y2988D02*
X2066Y2988D01*
X1Y2987D02*
X8Y2987D01*
X2059Y2987D02*
X2066Y2987D01*
X1Y2986D02*
X8Y2986D01*
X2059Y2986D02*
X2066Y2986D01*
X1Y2985D02*
X8Y2985D01*
X2059Y2985D02*
X2066Y2985D01*
X1Y2984D02*
X8Y2984D01*
X2059Y2984D02*
X2066Y2984D01*
X1Y2983D02*
X8Y2983D01*
X2059Y2983D02*
X2066Y2983D01*
X1Y2982D02*
X8Y2982D01*
X2059Y2982D02*
X2066Y2982D01*
X1Y2981D02*
X8Y2981D01*
X2059Y2981D02*
X2066Y2981D01*
X1Y2980D02*
X8Y2980D01*
X2059Y2980D02*
X2066Y2980D01*
X1Y2979D02*
X8Y2979D01*
X2059Y2979D02*
X2066Y2979D01*
X1Y2978D02*
X8Y2978D01*
X2059Y2978D02*
X2066Y2978D01*
X1Y2977D02*
X8Y2977D01*
X2059Y2977D02*
X2066Y2977D01*
X1Y2976D02*
X8Y2976D01*
X2059Y2976D02*
X2066Y2976D01*
X1Y2975D02*
X8Y2975D01*
X2059Y2975D02*
X2066Y2975D01*
X1Y2974D02*
X8Y2974D01*
X2059Y2974D02*
X2066Y2974D01*
X1Y2973D02*
X8Y2973D01*
X2059Y2973D02*
X2066Y2973D01*
X1Y2972D02*
X8Y2972D01*
X2059Y2972D02*
X2066Y2972D01*
X1Y2971D02*
X8Y2971D01*
X2059Y2971D02*
X2066Y2971D01*
X1Y2970D02*
X8Y2970D01*
X2059Y2970D02*
X2066Y2970D01*
X1Y2969D02*
X8Y2969D01*
X2059Y2969D02*
X2066Y2969D01*
X1Y2968D02*
X8Y2968D01*
X2059Y2968D02*
X2066Y2968D01*
X1Y2967D02*
X8Y2967D01*
X2059Y2967D02*
X2066Y2967D01*
X1Y2966D02*
X8Y2966D01*
X2059Y2966D02*
X2066Y2966D01*
X1Y2965D02*
X8Y2965D01*
X2059Y2965D02*
X2066Y2965D01*
X1Y2964D02*
X8Y2964D01*
X2059Y2964D02*
X2066Y2964D01*
X1Y2963D02*
X8Y2963D01*
X2059Y2963D02*
X2066Y2963D01*
X1Y2962D02*
X8Y2962D01*
X2059Y2962D02*
X2066Y2962D01*
X1Y2961D02*
X8Y2961D01*
X2059Y2961D02*
X2066Y2961D01*
X1Y2960D02*
X8Y2960D01*
X2059Y2960D02*
X2066Y2960D01*
X1Y2959D02*
X8Y2959D01*
X2059Y2959D02*
X2066Y2959D01*
X1Y2958D02*
X8Y2958D01*
X2059Y2958D02*
X2066Y2958D01*
X1Y2957D02*
X8Y2957D01*
X2059Y2957D02*
X2066Y2957D01*
X1Y2956D02*
X8Y2956D01*
X2059Y2956D02*
X2066Y2956D01*
X1Y2955D02*
X8Y2955D01*
X2059Y2955D02*
X2066Y2955D01*
X1Y2954D02*
X8Y2954D01*
X2059Y2954D02*
X2066Y2954D01*
X1Y2953D02*
X8Y2953D01*
X2059Y2953D02*
X2066Y2953D01*
X1Y2952D02*
X8Y2952D01*
X2059Y2952D02*
X2066Y2952D01*
X1Y2951D02*
X8Y2951D01*
X2059Y2951D02*
X2066Y2951D01*
X1Y2950D02*
X8Y2950D01*
X2059Y2950D02*
X2066Y2950D01*
X1Y2949D02*
X8Y2949D01*
X2059Y2949D02*
X2066Y2949D01*
X1Y2948D02*
X8Y2948D01*
X2059Y2948D02*
X2066Y2948D01*
X1Y2947D02*
X8Y2947D01*
X2059Y2947D02*
X2066Y2947D01*
X1Y2946D02*
X8Y2946D01*
X2059Y2946D02*
X2066Y2946D01*
X1Y2945D02*
X8Y2945D01*
X2059Y2945D02*
X2066Y2945D01*
X1Y2944D02*
X8Y2944D01*
X2059Y2944D02*
X2066Y2944D01*
X1Y2943D02*
X8Y2943D01*
X2059Y2943D02*
X2066Y2943D01*
X1Y2942D02*
X8Y2942D01*
X2059Y2942D02*
X2066Y2942D01*
X1Y2941D02*
X8Y2941D01*
X2059Y2941D02*
X2066Y2941D01*
X1Y2940D02*
X8Y2940D01*
X2059Y2940D02*
X2066Y2940D01*
X1Y2939D02*
X8Y2939D01*
X2059Y2939D02*
X2066Y2939D01*
X1Y2938D02*
X8Y2938D01*
X2059Y2938D02*
X2066Y2938D01*
X1Y2937D02*
X8Y2937D01*
X2059Y2937D02*
X2066Y2937D01*
X1Y2936D02*
X8Y2936D01*
X2059Y2936D02*
X2066Y2936D01*
X1Y2935D02*
X8Y2935D01*
X2059Y2935D02*
X2066Y2935D01*
X1Y2934D02*
X8Y2934D01*
X2059Y2934D02*
X2066Y2934D01*
X1Y2933D02*
X8Y2933D01*
X2059Y2933D02*
X2066Y2933D01*
X1Y2932D02*
X8Y2932D01*
X2059Y2932D02*
X2066Y2932D01*
X1Y2931D02*
X8Y2931D01*
X2059Y2931D02*
X2066Y2931D01*
X1Y2930D02*
X8Y2930D01*
X2059Y2930D02*
X2066Y2930D01*
X1Y2929D02*
X8Y2929D01*
X2059Y2929D02*
X2066Y2929D01*
X1Y2928D02*
X8Y2928D01*
X2059Y2928D02*
X2066Y2928D01*
X1Y2927D02*
X8Y2927D01*
X2059Y2927D02*
X2066Y2927D01*
X1Y2926D02*
X8Y2926D01*
X2059Y2926D02*
X2066Y2926D01*
X1Y2925D02*
X8Y2925D01*
X2059Y2925D02*
X2066Y2925D01*
X1Y2924D02*
X8Y2924D01*
X2059Y2924D02*
X2066Y2924D01*
X1Y2923D02*
X8Y2923D01*
X2059Y2923D02*
X2066Y2923D01*
X1Y2922D02*
X8Y2922D01*
X2059Y2922D02*
X2066Y2922D01*
X1Y2921D02*
X8Y2921D01*
X2059Y2921D02*
X2066Y2921D01*
X1Y2920D02*
X8Y2920D01*
X2059Y2920D02*
X2066Y2920D01*
X1Y2919D02*
X8Y2919D01*
X2059Y2919D02*
X2066Y2919D01*
X1Y2918D02*
X8Y2918D01*
X2059Y2918D02*
X2066Y2918D01*
X1Y2917D02*
X8Y2917D01*
X2059Y2917D02*
X2066Y2917D01*
X1Y2916D02*
X8Y2916D01*
X2059Y2916D02*
X2066Y2916D01*
X1Y2915D02*
X8Y2915D01*
X2059Y2915D02*
X2066Y2915D01*
X1Y2914D02*
X8Y2914D01*
X2059Y2914D02*
X2066Y2914D01*
X1Y2913D02*
X8Y2913D01*
X2059Y2913D02*
X2066Y2913D01*
X1Y2912D02*
X8Y2912D01*
X2059Y2912D02*
X2066Y2912D01*
X1Y2911D02*
X8Y2911D01*
X2059Y2911D02*
X2066Y2911D01*
X1Y2910D02*
X8Y2910D01*
X2059Y2910D02*
X2066Y2910D01*
X1Y2909D02*
X8Y2909D01*
X2059Y2909D02*
X2066Y2909D01*
X1Y2908D02*
X8Y2908D01*
X2059Y2908D02*
X2066Y2908D01*
X1Y2907D02*
X8Y2907D01*
X2059Y2907D02*
X2066Y2907D01*
X1Y2906D02*
X8Y2906D01*
X2059Y2906D02*
X2066Y2906D01*
X1Y2905D02*
X8Y2905D01*
X2059Y2905D02*
X2066Y2905D01*
X1Y2904D02*
X8Y2904D01*
X2059Y2904D02*
X2066Y2904D01*
X1Y2903D02*
X8Y2903D01*
X2059Y2903D02*
X2066Y2903D01*
X1Y2902D02*
X8Y2902D01*
X2059Y2902D02*
X2066Y2902D01*
X1Y2901D02*
X8Y2901D01*
X2059Y2901D02*
X2066Y2901D01*
X1Y2900D02*
X8Y2900D01*
X2059Y2900D02*
X2066Y2900D01*
X1Y2899D02*
X8Y2899D01*
X2059Y2899D02*
X2066Y2899D01*
X1Y2898D02*
X8Y2898D01*
X2059Y2898D02*
X2066Y2898D01*
X1Y2897D02*
X8Y2897D01*
X2059Y2897D02*
X2066Y2897D01*
X1Y2896D02*
X8Y2896D01*
X2059Y2896D02*
X2066Y2896D01*
X1Y2895D02*
X8Y2895D01*
X2059Y2895D02*
X2066Y2895D01*
X1Y2894D02*
X8Y2894D01*
X2059Y2894D02*
X2066Y2894D01*
X1Y2893D02*
X8Y2893D01*
X2059Y2893D02*
X2066Y2893D01*
X1Y2892D02*
X8Y2892D01*
X2059Y2892D02*
X2066Y2892D01*
X1Y2891D02*
X8Y2891D01*
X2059Y2891D02*
X2066Y2891D01*
X1Y2890D02*
X8Y2890D01*
X2059Y2890D02*
X2066Y2890D01*
X1Y2889D02*
X8Y2889D01*
X2059Y2889D02*
X2066Y2889D01*
X1Y2888D02*
X8Y2888D01*
X2059Y2888D02*
X2066Y2888D01*
X1Y2887D02*
X8Y2887D01*
X2059Y2887D02*
X2066Y2887D01*
X1Y2886D02*
X8Y2886D01*
X2059Y2886D02*
X2066Y2886D01*
X1Y2885D02*
X8Y2885D01*
X2059Y2885D02*
X2066Y2885D01*
X1Y2884D02*
X8Y2884D01*
X2059Y2884D02*
X2066Y2884D01*
X1Y2883D02*
X8Y2883D01*
X2059Y2883D02*
X2066Y2883D01*
X1Y2882D02*
X8Y2882D01*
X2059Y2882D02*
X2066Y2882D01*
X1Y2881D02*
X8Y2881D01*
X2059Y2881D02*
X2066Y2881D01*
X1Y2880D02*
X8Y2880D01*
X2059Y2880D02*
X2066Y2880D01*
X1Y2879D02*
X8Y2879D01*
X2059Y2879D02*
X2066Y2879D01*
X1Y2878D02*
X8Y2878D01*
X2059Y2878D02*
X2066Y2878D01*
X1Y2877D02*
X8Y2877D01*
X2059Y2877D02*
X2066Y2877D01*
X1Y2876D02*
X8Y2876D01*
X2059Y2876D02*
X2066Y2876D01*
X1Y2875D02*
X8Y2875D01*
X2059Y2875D02*
X2066Y2875D01*
X1Y2874D02*
X8Y2874D01*
X2059Y2874D02*
X2066Y2874D01*
X1Y2873D02*
X8Y2873D01*
X2059Y2873D02*
X2066Y2873D01*
X1Y2872D02*
X8Y2872D01*
X2059Y2872D02*
X2066Y2872D01*
X1Y2871D02*
X8Y2871D01*
X2059Y2871D02*
X2066Y2871D01*
X1Y2870D02*
X8Y2870D01*
X2059Y2870D02*
X2066Y2870D01*
X1Y2869D02*
X8Y2869D01*
X2059Y2869D02*
X2066Y2869D01*
X1Y2868D02*
X8Y2868D01*
X2059Y2868D02*
X2066Y2868D01*
X1Y2867D02*
X8Y2867D01*
X2059Y2867D02*
X2066Y2867D01*
X1Y2866D02*
X8Y2866D01*
X2059Y2866D02*
X2066Y2866D01*
X1Y2865D02*
X8Y2865D01*
X2059Y2865D02*
X2066Y2865D01*
X1Y2864D02*
X8Y2864D01*
X2059Y2864D02*
X2066Y2864D01*
X1Y2863D02*
X8Y2863D01*
X2059Y2863D02*
X2066Y2863D01*
X1Y2862D02*
X8Y2862D01*
X2059Y2862D02*
X2066Y2862D01*
X1Y2861D02*
X8Y2861D01*
X2059Y2861D02*
X2066Y2861D01*
X1Y2860D02*
X8Y2860D01*
X2059Y2860D02*
X2066Y2860D01*
X1Y2859D02*
X8Y2859D01*
X2059Y2859D02*
X2066Y2859D01*
X1Y2858D02*
X8Y2858D01*
X2059Y2858D02*
X2066Y2858D01*
X1Y2857D02*
X8Y2857D01*
X2059Y2857D02*
X2066Y2857D01*
X1Y2856D02*
X8Y2856D01*
X2059Y2856D02*
X2066Y2856D01*
X1Y2855D02*
X8Y2855D01*
X2059Y2855D02*
X2066Y2855D01*
X1Y2854D02*
X8Y2854D01*
X2059Y2854D02*
X2066Y2854D01*
X1Y2853D02*
X8Y2853D01*
X2059Y2853D02*
X2066Y2853D01*
X1Y2852D02*
X8Y2852D01*
X2059Y2852D02*
X2066Y2852D01*
X1Y2851D02*
X8Y2851D01*
X2059Y2851D02*
X2066Y2851D01*
X1Y2850D02*
X8Y2850D01*
X2059Y2850D02*
X2066Y2850D01*
X1Y2849D02*
X8Y2849D01*
X2059Y2849D02*
X2066Y2849D01*
X1Y2848D02*
X8Y2848D01*
X2059Y2848D02*
X2066Y2848D01*
X1Y2847D02*
X8Y2847D01*
X2059Y2847D02*
X2066Y2847D01*
X1Y2846D02*
X8Y2846D01*
X2059Y2846D02*
X2066Y2846D01*
X1Y2845D02*
X8Y2845D01*
X2059Y2845D02*
X2066Y2845D01*
X1Y2844D02*
X8Y2844D01*
X2059Y2844D02*
X2066Y2844D01*
X1Y2843D02*
X8Y2843D01*
X2059Y2843D02*
X2066Y2843D01*
X1Y2842D02*
X8Y2842D01*
X2059Y2842D02*
X2066Y2842D01*
X1Y2841D02*
X8Y2841D01*
X2059Y2841D02*
X2066Y2841D01*
X1Y2840D02*
X8Y2840D01*
X2059Y2840D02*
X2066Y2840D01*
X1Y2839D02*
X8Y2839D01*
X2059Y2839D02*
X2066Y2839D01*
X1Y2838D02*
X8Y2838D01*
X2059Y2838D02*
X2066Y2838D01*
X1Y2837D02*
X8Y2837D01*
X2059Y2837D02*
X2066Y2837D01*
X1Y2836D02*
X8Y2836D01*
X2059Y2836D02*
X2066Y2836D01*
X1Y2835D02*
X8Y2835D01*
X2059Y2835D02*
X2066Y2835D01*
X1Y2834D02*
X8Y2834D01*
X2059Y2834D02*
X2066Y2834D01*
X1Y2833D02*
X8Y2833D01*
X2059Y2833D02*
X2066Y2833D01*
X1Y2832D02*
X8Y2832D01*
X2059Y2832D02*
X2066Y2832D01*
X1Y2831D02*
X8Y2831D01*
X2059Y2831D02*
X2066Y2831D01*
X1Y2830D02*
X8Y2830D01*
X2059Y2830D02*
X2066Y2830D01*
X1Y2829D02*
X8Y2829D01*
X2059Y2829D02*
X2066Y2829D01*
X1Y2828D02*
X8Y2828D01*
X2059Y2828D02*
X2066Y2828D01*
X1Y2827D02*
X8Y2827D01*
X2059Y2827D02*
X2066Y2827D01*
X1Y2826D02*
X8Y2826D01*
X2059Y2826D02*
X2066Y2826D01*
X1Y2825D02*
X8Y2825D01*
X2059Y2825D02*
X2066Y2825D01*
X1Y2824D02*
X8Y2824D01*
X2059Y2824D02*
X2066Y2824D01*
X1Y2823D02*
X8Y2823D01*
X2059Y2823D02*
X2066Y2823D01*
X1Y2822D02*
X8Y2822D01*
X2059Y2822D02*
X2066Y2822D01*
X1Y2821D02*
X8Y2821D01*
X2059Y2821D02*
X2066Y2821D01*
X1Y2820D02*
X8Y2820D01*
X2059Y2820D02*
X2066Y2820D01*
X1Y2819D02*
X8Y2819D01*
X2059Y2819D02*
X2066Y2819D01*
X1Y2818D02*
X8Y2818D01*
X2059Y2818D02*
X2066Y2818D01*
X1Y2817D02*
X8Y2817D01*
X2059Y2817D02*
X2066Y2817D01*
X1Y2816D02*
X8Y2816D01*
X2059Y2816D02*
X2066Y2816D01*
X1Y2815D02*
X8Y2815D01*
X2059Y2815D02*
X2066Y2815D01*
X1Y2814D02*
X8Y2814D01*
X2059Y2814D02*
X2066Y2814D01*
X1Y2813D02*
X8Y2813D01*
X2059Y2813D02*
X2066Y2813D01*
X1Y2812D02*
X8Y2812D01*
X2059Y2812D02*
X2066Y2812D01*
X1Y2811D02*
X8Y2811D01*
X2059Y2811D02*
X2066Y2811D01*
X1Y2810D02*
X8Y2810D01*
X2059Y2810D02*
X2066Y2810D01*
X1Y2809D02*
X8Y2809D01*
X2059Y2809D02*
X2066Y2809D01*
X1Y2808D02*
X8Y2808D01*
X2059Y2808D02*
X2066Y2808D01*
X1Y2807D02*
X8Y2807D01*
X2059Y2807D02*
X2066Y2807D01*
X1Y2806D02*
X8Y2806D01*
X2059Y2806D02*
X2066Y2806D01*
X1Y2805D02*
X8Y2805D01*
X2059Y2805D02*
X2066Y2805D01*
X1Y2804D02*
X8Y2804D01*
X2059Y2804D02*
X2066Y2804D01*
X1Y2803D02*
X8Y2803D01*
X2059Y2803D02*
X2066Y2803D01*
X1Y2802D02*
X8Y2802D01*
X2059Y2802D02*
X2066Y2802D01*
X1Y2801D02*
X8Y2801D01*
X2059Y2801D02*
X2066Y2801D01*
X1Y2800D02*
X8Y2800D01*
X2059Y2800D02*
X2066Y2800D01*
X1Y2799D02*
X8Y2799D01*
X2059Y2799D02*
X2066Y2799D01*
X1Y2798D02*
X8Y2798D01*
X2059Y2798D02*
X2066Y2798D01*
X1Y2797D02*
X8Y2797D01*
X2059Y2797D02*
X2066Y2797D01*
X1Y2796D02*
X8Y2796D01*
X2059Y2796D02*
X2066Y2796D01*
X1Y2795D02*
X8Y2795D01*
X2059Y2795D02*
X2066Y2795D01*
X1Y2794D02*
X8Y2794D01*
X2059Y2794D02*
X2066Y2794D01*
X1Y2793D02*
X8Y2793D01*
X2059Y2793D02*
X2066Y2793D01*
X1Y2792D02*
X8Y2792D01*
X2059Y2792D02*
X2066Y2792D01*
X1Y2791D02*
X8Y2791D01*
X2059Y2791D02*
X2066Y2791D01*
X1Y2790D02*
X8Y2790D01*
X2059Y2790D02*
X2066Y2790D01*
X1Y2789D02*
X8Y2789D01*
X2059Y2789D02*
X2066Y2789D01*
X1Y2788D02*
X8Y2788D01*
X2059Y2788D02*
X2066Y2788D01*
X1Y2787D02*
X8Y2787D01*
X2059Y2787D02*
X2066Y2787D01*
X1Y2786D02*
X8Y2786D01*
X2059Y2786D02*
X2066Y2786D01*
X1Y2785D02*
X8Y2785D01*
X2059Y2785D02*
X2066Y2785D01*
X1Y2784D02*
X8Y2784D01*
X2059Y2784D02*
X2066Y2784D01*
X1Y2783D02*
X8Y2783D01*
X2059Y2783D02*
X2066Y2783D01*
X1Y2782D02*
X8Y2782D01*
X2059Y2782D02*
X2066Y2782D01*
X1Y2781D02*
X8Y2781D01*
X2059Y2781D02*
X2066Y2781D01*
X1Y2780D02*
X8Y2780D01*
X2059Y2780D02*
X2066Y2780D01*
X1Y2779D02*
X8Y2779D01*
X2059Y2779D02*
X2066Y2779D01*
X1Y2778D02*
X8Y2778D01*
X2059Y2778D02*
X2066Y2778D01*
X1Y2777D02*
X8Y2777D01*
X2059Y2777D02*
X2066Y2777D01*
X1Y2776D02*
X8Y2776D01*
X2059Y2776D02*
X2066Y2776D01*
X1Y2775D02*
X8Y2775D01*
X2059Y2775D02*
X2066Y2775D01*
X1Y2774D02*
X8Y2774D01*
X2059Y2774D02*
X2066Y2774D01*
X1Y2773D02*
X8Y2773D01*
X2059Y2773D02*
X2066Y2773D01*
X1Y2772D02*
X8Y2772D01*
X2059Y2772D02*
X2066Y2772D01*
X1Y2771D02*
X8Y2771D01*
X2059Y2771D02*
X2066Y2771D01*
X1Y2770D02*
X8Y2770D01*
X2059Y2770D02*
X2066Y2770D01*
X1Y2769D02*
X8Y2769D01*
X2059Y2769D02*
X2066Y2769D01*
X1Y2768D02*
X8Y2768D01*
X2059Y2768D02*
X2066Y2768D01*
X1Y2767D02*
X8Y2767D01*
X2059Y2767D02*
X2066Y2767D01*
X1Y2766D02*
X8Y2766D01*
X2059Y2766D02*
X2066Y2766D01*
X1Y2765D02*
X8Y2765D01*
X2059Y2765D02*
X2066Y2765D01*
X1Y2764D02*
X8Y2764D01*
X2059Y2764D02*
X2066Y2764D01*
X1Y2763D02*
X8Y2763D01*
X2059Y2763D02*
X2066Y2763D01*
X1Y2762D02*
X8Y2762D01*
X2059Y2762D02*
X2066Y2762D01*
X1Y2761D02*
X8Y2761D01*
X2059Y2761D02*
X2066Y2761D01*
X1Y2760D02*
X8Y2760D01*
X2059Y2760D02*
X2066Y2760D01*
X1Y2759D02*
X8Y2759D01*
X2059Y2759D02*
X2066Y2759D01*
X1Y2758D02*
X8Y2758D01*
X2059Y2758D02*
X2066Y2758D01*
X1Y2757D02*
X8Y2757D01*
X2059Y2757D02*
X2066Y2757D01*
X1Y2756D02*
X8Y2756D01*
X2059Y2756D02*
X2066Y2756D01*
X1Y2755D02*
X8Y2755D01*
X2059Y2755D02*
X2066Y2755D01*
X1Y2754D02*
X8Y2754D01*
X2059Y2754D02*
X2066Y2754D01*
X1Y2753D02*
X8Y2753D01*
X2059Y2753D02*
X2066Y2753D01*
X1Y2752D02*
X8Y2752D01*
X2059Y2752D02*
X2066Y2752D01*
X1Y2751D02*
X8Y2751D01*
X2059Y2751D02*
X2066Y2751D01*
X1Y2750D02*
X8Y2750D01*
X2059Y2750D02*
X2066Y2750D01*
X1Y2749D02*
X8Y2749D01*
X2059Y2749D02*
X2066Y2749D01*
X1Y2748D02*
X8Y2748D01*
X2059Y2748D02*
X2066Y2748D01*
X1Y2747D02*
X8Y2747D01*
X2059Y2747D02*
X2066Y2747D01*
X1Y2746D02*
X8Y2746D01*
X2059Y2746D02*
X2066Y2746D01*
X1Y2745D02*
X8Y2745D01*
X2059Y2745D02*
X2066Y2745D01*
X1Y2744D02*
X8Y2744D01*
X2059Y2744D02*
X2066Y2744D01*
X1Y2743D02*
X8Y2743D01*
X2059Y2743D02*
X2066Y2743D01*
X1Y2742D02*
X8Y2742D01*
X2059Y2742D02*
X2066Y2742D01*
X1Y2741D02*
X8Y2741D01*
X2059Y2741D02*
X2066Y2741D01*
X1Y2740D02*
X8Y2740D01*
X2059Y2740D02*
X2066Y2740D01*
X1Y2739D02*
X8Y2739D01*
X2059Y2739D02*
X2066Y2739D01*
X1Y2738D02*
X8Y2738D01*
X2059Y2738D02*
X2066Y2738D01*
X1Y2737D02*
X8Y2737D01*
X2059Y2737D02*
X2066Y2737D01*
X1Y2736D02*
X8Y2736D01*
X2059Y2736D02*
X2066Y2736D01*
X1Y2735D02*
X8Y2735D01*
X2059Y2735D02*
X2066Y2735D01*
X1Y2734D02*
X8Y2734D01*
X2059Y2734D02*
X2066Y2734D01*
X1Y2733D02*
X8Y2733D01*
X2059Y2733D02*
X2066Y2733D01*
X1Y2732D02*
X8Y2732D01*
X2059Y2732D02*
X2066Y2732D01*
X1Y2731D02*
X8Y2731D01*
X2059Y2731D02*
X2066Y2731D01*
X1Y2730D02*
X8Y2730D01*
X2059Y2730D02*
X2066Y2730D01*
X1Y2729D02*
X8Y2729D01*
X2059Y2729D02*
X2066Y2729D01*
X1Y2728D02*
X8Y2728D01*
X2059Y2728D02*
X2066Y2728D01*
X1Y2727D02*
X8Y2727D01*
X2059Y2727D02*
X2066Y2727D01*
X1Y2726D02*
X8Y2726D01*
X2059Y2726D02*
X2066Y2726D01*
X1Y2725D02*
X8Y2725D01*
X2059Y2725D02*
X2066Y2725D01*
X1Y2724D02*
X8Y2724D01*
X2059Y2724D02*
X2066Y2724D01*
X1Y2723D02*
X8Y2723D01*
X2059Y2723D02*
X2066Y2723D01*
X1Y2722D02*
X8Y2722D01*
X2059Y2722D02*
X2066Y2722D01*
X1Y2721D02*
X8Y2721D01*
X2059Y2721D02*
X2066Y2721D01*
X1Y2720D02*
X8Y2720D01*
X2059Y2720D02*
X2066Y2720D01*
X1Y2719D02*
X8Y2719D01*
X2059Y2719D02*
X2066Y2719D01*
X1Y2718D02*
X8Y2718D01*
X2059Y2718D02*
X2066Y2718D01*
X1Y2717D02*
X8Y2717D01*
X2059Y2717D02*
X2066Y2717D01*
X1Y2716D02*
X8Y2716D01*
X2059Y2716D02*
X2066Y2716D01*
X1Y2715D02*
X8Y2715D01*
X2059Y2715D02*
X2066Y2715D01*
X1Y2714D02*
X8Y2714D01*
X2059Y2714D02*
X2066Y2714D01*
X1Y2713D02*
X8Y2713D01*
X2059Y2713D02*
X2066Y2713D01*
X1Y2712D02*
X8Y2712D01*
X2059Y2712D02*
X2066Y2712D01*
X1Y2711D02*
X8Y2711D01*
X2059Y2711D02*
X2066Y2711D01*
X1Y2710D02*
X8Y2710D01*
X2059Y2710D02*
X2066Y2710D01*
X1Y2709D02*
X8Y2709D01*
X2059Y2709D02*
X2066Y2709D01*
X1Y2708D02*
X8Y2708D01*
X2059Y2708D02*
X2066Y2708D01*
X1Y2707D02*
X8Y2707D01*
X2059Y2707D02*
X2066Y2707D01*
X1Y2706D02*
X8Y2706D01*
X2059Y2706D02*
X2066Y2706D01*
X1Y2705D02*
X8Y2705D01*
X2059Y2705D02*
X2066Y2705D01*
X1Y2704D02*
X8Y2704D01*
X2059Y2704D02*
X2066Y2704D01*
X1Y2703D02*
X8Y2703D01*
X2059Y2703D02*
X2066Y2703D01*
X1Y2702D02*
X8Y2702D01*
X2059Y2702D02*
X2066Y2702D01*
X1Y2701D02*
X8Y2701D01*
X2059Y2701D02*
X2066Y2701D01*
X1Y2700D02*
X8Y2700D01*
X2059Y2700D02*
X2066Y2700D01*
X1Y2699D02*
X8Y2699D01*
X2059Y2699D02*
X2066Y2699D01*
X1Y2698D02*
X8Y2698D01*
X2059Y2698D02*
X2066Y2698D01*
X1Y2697D02*
X8Y2697D01*
X2059Y2697D02*
X2066Y2697D01*
X1Y2696D02*
X8Y2696D01*
X2059Y2696D02*
X2066Y2696D01*
X1Y2695D02*
X8Y2695D01*
X2059Y2695D02*
X2066Y2695D01*
X1Y2694D02*
X8Y2694D01*
X2059Y2694D02*
X2066Y2694D01*
X1Y2693D02*
X8Y2693D01*
X2059Y2693D02*
X2066Y2693D01*
X1Y2692D02*
X8Y2692D01*
X2059Y2692D02*
X2066Y2692D01*
X1Y2691D02*
X8Y2691D01*
X2059Y2691D02*
X2066Y2691D01*
X1Y2690D02*
X8Y2690D01*
X2059Y2690D02*
X2066Y2690D01*
X1Y2689D02*
X8Y2689D01*
X2059Y2689D02*
X2066Y2689D01*
X1Y2688D02*
X8Y2688D01*
X2059Y2688D02*
X2066Y2688D01*
X1Y2687D02*
X8Y2687D01*
X2059Y2687D02*
X2066Y2687D01*
X1Y2686D02*
X8Y2686D01*
X2059Y2686D02*
X2066Y2686D01*
X1Y2685D02*
X8Y2685D01*
X2059Y2685D02*
X2066Y2685D01*
X1Y2684D02*
X8Y2684D01*
X2059Y2684D02*
X2066Y2684D01*
X1Y2683D02*
X8Y2683D01*
X2059Y2683D02*
X2066Y2683D01*
X1Y2682D02*
X8Y2682D01*
X2059Y2682D02*
X2066Y2682D01*
X1Y2681D02*
X8Y2681D01*
X2059Y2681D02*
X2066Y2681D01*
X1Y2680D02*
X8Y2680D01*
X2059Y2680D02*
X2066Y2680D01*
X1Y2679D02*
X8Y2679D01*
X2059Y2679D02*
X2066Y2679D01*
X1Y2678D02*
X8Y2678D01*
X2059Y2678D02*
X2066Y2678D01*
X1Y2677D02*
X8Y2677D01*
X2059Y2677D02*
X2066Y2677D01*
X1Y2676D02*
X8Y2676D01*
X2059Y2676D02*
X2066Y2676D01*
X1Y2675D02*
X8Y2675D01*
X2059Y2675D02*
X2066Y2675D01*
X1Y2674D02*
X8Y2674D01*
X2059Y2674D02*
X2066Y2674D01*
X1Y2673D02*
X8Y2673D01*
X2059Y2673D02*
X2066Y2673D01*
X1Y2672D02*
X8Y2672D01*
X2059Y2672D02*
X2066Y2672D01*
X1Y2671D02*
X8Y2671D01*
X2059Y2671D02*
X2066Y2671D01*
X1Y2670D02*
X8Y2670D01*
X2059Y2670D02*
X2066Y2670D01*
X1Y2669D02*
X8Y2669D01*
X2059Y2669D02*
X2066Y2669D01*
X1Y2668D02*
X8Y2668D01*
X2059Y2668D02*
X2066Y2668D01*
X1Y2667D02*
X8Y2667D01*
X2059Y2667D02*
X2066Y2667D01*
X1Y2666D02*
X8Y2666D01*
X2059Y2666D02*
X2066Y2666D01*
X1Y2665D02*
X8Y2665D01*
X2059Y2665D02*
X2066Y2665D01*
X1Y2664D02*
X8Y2664D01*
X2059Y2664D02*
X2066Y2664D01*
X1Y2663D02*
X8Y2663D01*
X2059Y2663D02*
X2066Y2663D01*
X1Y2662D02*
X8Y2662D01*
X2059Y2662D02*
X2066Y2662D01*
X1Y2661D02*
X8Y2661D01*
X2059Y2661D02*
X2066Y2661D01*
X1Y2660D02*
X8Y2660D01*
X2059Y2660D02*
X2066Y2660D01*
X1Y2659D02*
X8Y2659D01*
X2059Y2659D02*
X2066Y2659D01*
X1Y2658D02*
X8Y2658D01*
X2059Y2658D02*
X2066Y2658D01*
X1Y2657D02*
X8Y2657D01*
X2059Y2657D02*
X2066Y2657D01*
X1Y2656D02*
X8Y2656D01*
X2059Y2656D02*
X2066Y2656D01*
X1Y2655D02*
X8Y2655D01*
X2059Y2655D02*
X2066Y2655D01*
X1Y2654D02*
X8Y2654D01*
X2059Y2654D02*
X2066Y2654D01*
X1Y2653D02*
X8Y2653D01*
X2059Y2653D02*
X2066Y2653D01*
X1Y2652D02*
X8Y2652D01*
X2059Y2652D02*
X2066Y2652D01*
X1Y2651D02*
X8Y2651D01*
X2059Y2651D02*
X2066Y2651D01*
X1Y2650D02*
X8Y2650D01*
X2059Y2650D02*
X2066Y2650D01*
X1Y2649D02*
X8Y2649D01*
X2059Y2649D02*
X2066Y2649D01*
X1Y2648D02*
X8Y2648D01*
X2059Y2648D02*
X2066Y2648D01*
X1Y2647D02*
X8Y2647D01*
X2059Y2647D02*
X2066Y2647D01*
X1Y2646D02*
X8Y2646D01*
X2059Y2646D02*
X2066Y2646D01*
X1Y2645D02*
X8Y2645D01*
X2059Y2645D02*
X2066Y2645D01*
X1Y2644D02*
X8Y2644D01*
X2059Y2644D02*
X2066Y2644D01*
X1Y2643D02*
X8Y2643D01*
X2059Y2643D02*
X2066Y2643D01*
X1Y2642D02*
X8Y2642D01*
X2059Y2642D02*
X2066Y2642D01*
X1Y2641D02*
X8Y2641D01*
X2059Y2641D02*
X2066Y2641D01*
X1Y2640D02*
X8Y2640D01*
X2059Y2640D02*
X2066Y2640D01*
X1Y2639D02*
X8Y2639D01*
X2059Y2639D02*
X2066Y2639D01*
X1Y2638D02*
X8Y2638D01*
X2059Y2638D02*
X2066Y2638D01*
X1Y2637D02*
X8Y2637D01*
X2059Y2637D02*
X2066Y2637D01*
X1Y2636D02*
X8Y2636D01*
X2059Y2636D02*
X2066Y2636D01*
X1Y2635D02*
X8Y2635D01*
X2059Y2635D02*
X2066Y2635D01*
X1Y2634D02*
X8Y2634D01*
X2059Y2634D02*
X2066Y2634D01*
X1Y2633D02*
X8Y2633D01*
X2059Y2633D02*
X2066Y2633D01*
X1Y2632D02*
X8Y2632D01*
X2059Y2632D02*
X2066Y2632D01*
X1Y2631D02*
X8Y2631D01*
X2059Y2631D02*
X2066Y2631D01*
X1Y2630D02*
X8Y2630D01*
X2059Y2630D02*
X2066Y2630D01*
X1Y2629D02*
X8Y2629D01*
X2059Y2629D02*
X2066Y2629D01*
X1Y2628D02*
X8Y2628D01*
X2059Y2628D02*
X2066Y2628D01*
X1Y2627D02*
X8Y2627D01*
X2059Y2627D02*
X2066Y2627D01*
X1Y2626D02*
X8Y2626D01*
X2059Y2626D02*
X2066Y2626D01*
X1Y2625D02*
X8Y2625D01*
X2059Y2625D02*
X2066Y2625D01*
X1Y2624D02*
X8Y2624D01*
X2059Y2624D02*
X2066Y2624D01*
X1Y2623D02*
X8Y2623D01*
X2059Y2623D02*
X2066Y2623D01*
X1Y2622D02*
X8Y2622D01*
X2059Y2622D02*
X2066Y2622D01*
X1Y2621D02*
X8Y2621D01*
X2059Y2621D02*
X2066Y2621D01*
X1Y2620D02*
X8Y2620D01*
X2059Y2620D02*
X2066Y2620D01*
X1Y2619D02*
X8Y2619D01*
X2059Y2619D02*
X2066Y2619D01*
X1Y2618D02*
X8Y2618D01*
X2059Y2618D02*
X2066Y2618D01*
X1Y2617D02*
X8Y2617D01*
X2059Y2617D02*
X2066Y2617D01*
X1Y2616D02*
X8Y2616D01*
X2059Y2616D02*
X2066Y2616D01*
X1Y2615D02*
X8Y2615D01*
X2059Y2615D02*
X2066Y2615D01*
X1Y2614D02*
X8Y2614D01*
X2059Y2614D02*
X2066Y2614D01*
X1Y2613D02*
X8Y2613D01*
X2059Y2613D02*
X2066Y2613D01*
X1Y2612D02*
X8Y2612D01*
X2059Y2612D02*
X2066Y2612D01*
X1Y2611D02*
X8Y2611D01*
X2059Y2611D02*
X2066Y2611D01*
X1Y2610D02*
X8Y2610D01*
X2059Y2610D02*
X2066Y2610D01*
X1Y2609D02*
X8Y2609D01*
X2059Y2609D02*
X2066Y2609D01*
X1Y2608D02*
X8Y2608D01*
X2059Y2608D02*
X2066Y2608D01*
X1Y2607D02*
X8Y2607D01*
X2059Y2607D02*
X2066Y2607D01*
X1Y2606D02*
X8Y2606D01*
X2059Y2606D02*
X2066Y2606D01*
X1Y2605D02*
X8Y2605D01*
X2059Y2605D02*
X2066Y2605D01*
X1Y2604D02*
X8Y2604D01*
X2059Y2604D02*
X2066Y2604D01*
X1Y2603D02*
X8Y2603D01*
X2059Y2603D02*
X2066Y2603D01*
X1Y2602D02*
X8Y2602D01*
X2059Y2602D02*
X2066Y2602D01*
X1Y2601D02*
X8Y2601D01*
X2059Y2601D02*
X2066Y2601D01*
X1Y2600D02*
X8Y2600D01*
X2059Y2600D02*
X2066Y2600D01*
X1Y2599D02*
X8Y2599D01*
X2059Y2599D02*
X2066Y2599D01*
X1Y2598D02*
X8Y2598D01*
X2059Y2598D02*
X2066Y2598D01*
X1Y2597D02*
X8Y2597D01*
X2059Y2597D02*
X2066Y2597D01*
X1Y2596D02*
X8Y2596D01*
X2059Y2596D02*
X2066Y2596D01*
X1Y2595D02*
X8Y2595D01*
X2059Y2595D02*
X2066Y2595D01*
X1Y2594D02*
X8Y2594D01*
X2059Y2594D02*
X2066Y2594D01*
X1Y2593D02*
X8Y2593D01*
X2059Y2593D02*
X2066Y2593D01*
X1Y2592D02*
X8Y2592D01*
X2059Y2592D02*
X2066Y2592D01*
X1Y2591D02*
X8Y2591D01*
X2059Y2591D02*
X2066Y2591D01*
X1Y2590D02*
X8Y2590D01*
X2059Y2590D02*
X2066Y2590D01*
X1Y2589D02*
X8Y2589D01*
X2059Y2589D02*
X2066Y2589D01*
X1Y2588D02*
X8Y2588D01*
X2059Y2588D02*
X2066Y2588D01*
X1Y2587D02*
X8Y2587D01*
X2059Y2587D02*
X2066Y2587D01*
X1Y2586D02*
X8Y2586D01*
X2059Y2586D02*
X2066Y2586D01*
X1Y2585D02*
X8Y2585D01*
X2059Y2585D02*
X2066Y2585D01*
X1Y2584D02*
X8Y2584D01*
X2059Y2584D02*
X2066Y2584D01*
X1Y2583D02*
X8Y2583D01*
X2059Y2583D02*
X2066Y2583D01*
X1Y2582D02*
X8Y2582D01*
X2059Y2582D02*
X2066Y2582D01*
X1Y2581D02*
X8Y2581D01*
X2059Y2581D02*
X2066Y2581D01*
X1Y2580D02*
X8Y2580D01*
X2059Y2580D02*
X2066Y2580D01*
X1Y2579D02*
X8Y2579D01*
X2059Y2579D02*
X2066Y2579D01*
X1Y2578D02*
X8Y2578D01*
X2059Y2578D02*
X2066Y2578D01*
X1Y2577D02*
X8Y2577D01*
X2059Y2577D02*
X2066Y2577D01*
X1Y2576D02*
X8Y2576D01*
X2059Y2576D02*
X2066Y2576D01*
X1Y2575D02*
X8Y2575D01*
X2059Y2575D02*
X2066Y2575D01*
X1Y2574D02*
X8Y2574D01*
X2059Y2574D02*
X2066Y2574D01*
X1Y2573D02*
X8Y2573D01*
X2059Y2573D02*
X2066Y2573D01*
X1Y2572D02*
X8Y2572D01*
X2059Y2572D02*
X2066Y2572D01*
X1Y2571D02*
X8Y2571D01*
X2059Y2571D02*
X2066Y2571D01*
X1Y2570D02*
X8Y2570D01*
X2059Y2570D02*
X2066Y2570D01*
X1Y2569D02*
X8Y2569D01*
X2059Y2569D02*
X2066Y2569D01*
X1Y2568D02*
X8Y2568D01*
X2059Y2568D02*
X2066Y2568D01*
X1Y2567D02*
X8Y2567D01*
X2059Y2567D02*
X2066Y2567D01*
X1Y2566D02*
X8Y2566D01*
X2059Y2566D02*
X2066Y2566D01*
X1Y2565D02*
X8Y2565D01*
X2059Y2565D02*
X2066Y2565D01*
X1Y2564D02*
X8Y2564D01*
X2059Y2564D02*
X2066Y2564D01*
X1Y2563D02*
X8Y2563D01*
X2059Y2563D02*
X2066Y2563D01*
X1Y2562D02*
X8Y2562D01*
X2059Y2562D02*
X2066Y2562D01*
X1Y2561D02*
X8Y2561D01*
X2059Y2561D02*
X2066Y2561D01*
X1Y2560D02*
X8Y2560D01*
X2059Y2560D02*
X2066Y2560D01*
X1Y2559D02*
X8Y2559D01*
X2059Y2559D02*
X2066Y2559D01*
X1Y2558D02*
X8Y2558D01*
X2059Y2558D02*
X2066Y2558D01*
X1Y2557D02*
X8Y2557D01*
X2059Y2557D02*
X2066Y2557D01*
X1Y2556D02*
X8Y2556D01*
X2059Y2556D02*
X2066Y2556D01*
X1Y2555D02*
X8Y2555D01*
X2059Y2555D02*
X2066Y2555D01*
X1Y2554D02*
X8Y2554D01*
X2059Y2554D02*
X2066Y2554D01*
X1Y2553D02*
X8Y2553D01*
X2059Y2553D02*
X2066Y2553D01*
X1Y2552D02*
X8Y2552D01*
X2059Y2552D02*
X2066Y2552D01*
X1Y2551D02*
X8Y2551D01*
X2059Y2551D02*
X2066Y2551D01*
X1Y2550D02*
X8Y2550D01*
X2059Y2550D02*
X2066Y2550D01*
X1Y2549D02*
X8Y2549D01*
X2059Y2549D02*
X2066Y2549D01*
X1Y2548D02*
X8Y2548D01*
X2059Y2548D02*
X2066Y2548D01*
X1Y2547D02*
X8Y2547D01*
X2059Y2547D02*
X2066Y2547D01*
X1Y2546D02*
X8Y2546D01*
X2059Y2546D02*
X2066Y2546D01*
X1Y2545D02*
X8Y2545D01*
X2059Y2545D02*
X2066Y2545D01*
X1Y2544D02*
X8Y2544D01*
X2059Y2544D02*
X2066Y2544D01*
X1Y2543D02*
X8Y2543D01*
X2059Y2543D02*
X2066Y2543D01*
X1Y2542D02*
X8Y2542D01*
X2059Y2542D02*
X2066Y2542D01*
X1Y2541D02*
X8Y2541D01*
X2059Y2541D02*
X2066Y2541D01*
X1Y2540D02*
X8Y2540D01*
X2059Y2540D02*
X2066Y2540D01*
X1Y2539D02*
X8Y2539D01*
X2059Y2539D02*
X2066Y2539D01*
X1Y2538D02*
X8Y2538D01*
X2059Y2538D02*
X2066Y2538D01*
X1Y2537D02*
X8Y2537D01*
X2059Y2537D02*
X2066Y2537D01*
X1Y2536D02*
X8Y2536D01*
X2059Y2536D02*
X2066Y2536D01*
X1Y2535D02*
X8Y2535D01*
X2059Y2535D02*
X2066Y2535D01*
X1Y2534D02*
X8Y2534D01*
X2059Y2534D02*
X2066Y2534D01*
X1Y2533D02*
X8Y2533D01*
X2059Y2533D02*
X2066Y2533D01*
X1Y2532D02*
X8Y2532D01*
X2059Y2532D02*
X2066Y2532D01*
X1Y2531D02*
X8Y2531D01*
X2059Y2531D02*
X2066Y2531D01*
X1Y2530D02*
X8Y2530D01*
X2059Y2530D02*
X2066Y2530D01*
X1Y2529D02*
X8Y2529D01*
X2059Y2529D02*
X2066Y2529D01*
X1Y2528D02*
X8Y2528D01*
X2059Y2528D02*
X2066Y2528D01*
X1Y2527D02*
X8Y2527D01*
X2059Y2527D02*
X2066Y2527D01*
X1Y2526D02*
X8Y2526D01*
X2059Y2526D02*
X2066Y2526D01*
X1Y2525D02*
X8Y2525D01*
X2059Y2525D02*
X2066Y2525D01*
X1Y2524D02*
X8Y2524D01*
X2059Y2524D02*
X2066Y2524D01*
X1Y2523D02*
X8Y2523D01*
X2059Y2523D02*
X2066Y2523D01*
X1Y2522D02*
X8Y2522D01*
X2059Y2522D02*
X2066Y2522D01*
X1Y2521D02*
X8Y2521D01*
X2059Y2521D02*
X2066Y2521D01*
X1Y2520D02*
X8Y2520D01*
X2059Y2520D02*
X2066Y2520D01*
X1Y2519D02*
X8Y2519D01*
X2059Y2519D02*
X2066Y2519D01*
X1Y2518D02*
X8Y2518D01*
X2059Y2518D02*
X2066Y2518D01*
X1Y2517D02*
X8Y2517D01*
X2059Y2517D02*
X2066Y2517D01*
X1Y2516D02*
X8Y2516D01*
X2059Y2516D02*
X2066Y2516D01*
X1Y2515D02*
X8Y2515D01*
X2059Y2515D02*
X2066Y2515D01*
X1Y2514D02*
X8Y2514D01*
X2059Y2514D02*
X2066Y2514D01*
X1Y2513D02*
X8Y2513D01*
X2059Y2513D02*
X2066Y2513D01*
X1Y2512D02*
X8Y2512D01*
X2059Y2512D02*
X2066Y2512D01*
X1Y2511D02*
X8Y2511D01*
X2059Y2511D02*
X2066Y2511D01*
X1Y2510D02*
X8Y2510D01*
X2059Y2510D02*
X2066Y2510D01*
X1Y2509D02*
X8Y2509D01*
X2059Y2509D02*
X2066Y2509D01*
X1Y2508D02*
X8Y2508D01*
X2059Y2508D02*
X2066Y2508D01*
X1Y2507D02*
X8Y2507D01*
X2059Y2507D02*
X2066Y2507D01*
X1Y2506D02*
X8Y2506D01*
X2059Y2506D02*
X2066Y2506D01*
X1Y2505D02*
X8Y2505D01*
X2059Y2505D02*
X2066Y2505D01*
X1Y2504D02*
X8Y2504D01*
X2059Y2504D02*
X2066Y2504D01*
X1Y2503D02*
X8Y2503D01*
X2059Y2503D02*
X2066Y2503D01*
X1Y2502D02*
X8Y2502D01*
X2059Y2502D02*
X2066Y2502D01*
X1Y2501D02*
X8Y2501D01*
X2059Y2501D02*
X2066Y2501D01*
X1Y2500D02*
X8Y2500D01*
X2059Y2500D02*
X2066Y2500D01*
X1Y2499D02*
X8Y2499D01*
X2059Y2499D02*
X2066Y2499D01*
X1Y2498D02*
X8Y2498D01*
X2059Y2498D02*
X2066Y2498D01*
X1Y2497D02*
X8Y2497D01*
X2059Y2497D02*
X2066Y2497D01*
X1Y2496D02*
X8Y2496D01*
X2059Y2496D02*
X2066Y2496D01*
X1Y2495D02*
X8Y2495D01*
X2059Y2495D02*
X2066Y2495D01*
X1Y2494D02*
X8Y2494D01*
X2059Y2494D02*
X2066Y2494D01*
X1Y2493D02*
X8Y2493D01*
X2059Y2493D02*
X2066Y2493D01*
X1Y2492D02*
X8Y2492D01*
X2059Y2492D02*
X2066Y2492D01*
X1Y2491D02*
X8Y2491D01*
X2059Y2491D02*
X2066Y2491D01*
X1Y2490D02*
X8Y2490D01*
X2059Y2490D02*
X2066Y2490D01*
X1Y2489D02*
X8Y2489D01*
X2059Y2489D02*
X2066Y2489D01*
X1Y2488D02*
X8Y2488D01*
X2059Y2488D02*
X2066Y2488D01*
X1Y2487D02*
X8Y2487D01*
X2059Y2487D02*
X2066Y2487D01*
X1Y2486D02*
X8Y2486D01*
X2059Y2486D02*
X2066Y2486D01*
X1Y2485D02*
X8Y2485D01*
X2059Y2485D02*
X2066Y2485D01*
X1Y2484D02*
X8Y2484D01*
X2059Y2484D02*
X2066Y2484D01*
X1Y2483D02*
X8Y2483D01*
X2059Y2483D02*
X2066Y2483D01*
X1Y2482D02*
X8Y2482D01*
X2059Y2482D02*
X2066Y2482D01*
X1Y2481D02*
X8Y2481D01*
X2059Y2481D02*
X2066Y2481D01*
X1Y2480D02*
X8Y2480D01*
X2059Y2480D02*
X2066Y2480D01*
X1Y2479D02*
X8Y2479D01*
X479Y2479D02*
X496Y2479D01*
X524Y2479D02*
X549Y2479D01*
X574Y2479D02*
X599Y2479D01*
X1245Y2479D02*
X1246Y2479D01*
X1274Y2479D02*
X1298Y2479D01*
X2059Y2479D02*
X2066Y2479D01*
X1Y2478D02*
X8Y2478D01*
X479Y2478D02*
X498Y2478D01*
X521Y2478D02*
X549Y2478D01*
X571Y2478D02*
X599Y2478D01*
X1244Y2478D02*
X1248Y2478D01*
X1271Y2478D02*
X1299Y2478D01*
X2059Y2478D02*
X2066Y2478D01*
X1Y2477D02*
X8Y2477D01*
X479Y2477D02*
X498Y2477D01*
X519Y2477D02*
X549Y2477D01*
X569Y2477D02*
X599Y2477D01*
X1243Y2477D02*
X1248Y2477D01*
X1269Y2477D02*
X1299Y2477D01*
X2059Y2477D02*
X2066Y2477D01*
X1Y2476D02*
X8Y2476D01*
X479Y2476D02*
X499Y2476D01*
X518Y2476D02*
X549Y2476D01*
X568Y2476D02*
X599Y2476D01*
X1243Y2476D02*
X1249Y2476D01*
X1268Y2476D02*
X1299Y2476D01*
X2059Y2476D02*
X2066Y2476D01*
X1Y2475D02*
X8Y2475D01*
X479Y2475D02*
X499Y2475D01*
X517Y2475D02*
X549Y2475D01*
X567Y2475D02*
X599Y2475D01*
X1243Y2475D02*
X1249Y2475D01*
X1267Y2475D02*
X1299Y2475D01*
X2059Y2475D02*
X2066Y2475D01*
X1Y2474D02*
X8Y2474D01*
X479Y2474D02*
X498Y2474D01*
X517Y2474D02*
X549Y2474D01*
X567Y2474D02*
X599Y2474D01*
X1243Y2474D02*
X1249Y2474D01*
X1267Y2474D02*
X1299Y2474D01*
X2059Y2474D02*
X2066Y2474D01*
X1Y2473D02*
X8Y2473D01*
X479Y2473D02*
X497Y2473D01*
X516Y2473D02*
X549Y2473D01*
X566Y2473D02*
X599Y2473D01*
X1243Y2473D02*
X1249Y2473D01*
X1266Y2473D02*
X1299Y2473D01*
X2059Y2473D02*
X2066Y2473D01*
X1Y2472D02*
X8Y2472D01*
X479Y2472D02*
X485Y2472D01*
X516Y2472D02*
X524Y2472D01*
X543Y2472D02*
X549Y2472D01*
X566Y2472D02*
X574Y2472D01*
X593Y2472D02*
X599Y2472D01*
X1243Y2472D02*
X1249Y2472D01*
X1266Y2472D02*
X1274Y2472D01*
X1292Y2472D02*
X1299Y2472D01*
X2059Y2472D02*
X2066Y2472D01*
X1Y2471D02*
X8Y2471D01*
X479Y2471D02*
X485Y2471D01*
X515Y2471D02*
X522Y2471D01*
X543Y2471D02*
X549Y2471D01*
X565Y2471D02*
X572Y2471D01*
X593Y2471D02*
X599Y2471D01*
X1243Y2471D02*
X1249Y2471D01*
X1265Y2471D02*
X1272Y2471D01*
X1293Y2471D02*
X1299Y2471D01*
X2059Y2471D02*
X2066Y2471D01*
X1Y2470D02*
X8Y2470D01*
X479Y2470D02*
X485Y2470D01*
X515Y2470D02*
X521Y2470D01*
X543Y2470D02*
X549Y2470D01*
X565Y2470D02*
X571Y2470D01*
X593Y2470D02*
X599Y2470D01*
X1243Y2470D02*
X1249Y2470D01*
X1265Y2470D02*
X1271Y2470D01*
X1293Y2470D02*
X1299Y2470D01*
X2059Y2470D02*
X2066Y2470D01*
X1Y2469D02*
X8Y2469D01*
X479Y2469D02*
X485Y2469D01*
X515Y2469D02*
X521Y2469D01*
X543Y2469D02*
X549Y2469D01*
X565Y2469D02*
X571Y2469D01*
X593Y2469D02*
X599Y2469D01*
X1243Y2469D02*
X1249Y2469D01*
X1265Y2469D02*
X1271Y2469D01*
X1293Y2469D02*
X1299Y2469D01*
X2059Y2469D02*
X2066Y2469D01*
X1Y2468D02*
X8Y2468D01*
X479Y2468D02*
X485Y2468D01*
X515Y2468D02*
X521Y2468D01*
X543Y2468D02*
X549Y2468D01*
X565Y2468D02*
X571Y2468D01*
X593Y2468D02*
X599Y2468D01*
X1243Y2468D02*
X1249Y2468D01*
X1265Y2468D02*
X1271Y2468D01*
X1293Y2468D02*
X1299Y2468D01*
X2059Y2468D02*
X2066Y2468D01*
X1Y2467D02*
X8Y2467D01*
X479Y2467D02*
X485Y2467D01*
X515Y2467D02*
X521Y2467D01*
X543Y2467D02*
X549Y2467D01*
X565Y2467D02*
X571Y2467D01*
X593Y2467D02*
X599Y2467D01*
X1243Y2467D02*
X1249Y2467D01*
X1265Y2467D02*
X1271Y2467D01*
X1293Y2467D02*
X1299Y2467D01*
X2059Y2467D02*
X2066Y2467D01*
X1Y2466D02*
X8Y2466D01*
X479Y2466D02*
X485Y2466D01*
X515Y2466D02*
X521Y2466D01*
X543Y2466D02*
X549Y2466D01*
X565Y2466D02*
X571Y2466D01*
X593Y2466D02*
X599Y2466D01*
X1243Y2466D02*
X1249Y2466D01*
X1265Y2466D02*
X1271Y2466D01*
X1293Y2466D02*
X1299Y2466D01*
X2059Y2466D02*
X2066Y2466D01*
X1Y2465D02*
X8Y2465D01*
X479Y2465D02*
X485Y2465D01*
X515Y2465D02*
X521Y2465D01*
X543Y2465D02*
X549Y2465D01*
X565Y2465D02*
X571Y2465D01*
X593Y2465D02*
X599Y2465D01*
X1243Y2465D02*
X1249Y2465D01*
X1265Y2465D02*
X1271Y2465D01*
X1293Y2465D02*
X1299Y2465D01*
X2059Y2465D02*
X2066Y2465D01*
X1Y2464D02*
X8Y2464D01*
X479Y2464D02*
X485Y2464D01*
X515Y2464D02*
X521Y2464D01*
X543Y2464D02*
X549Y2464D01*
X565Y2464D02*
X571Y2464D01*
X593Y2464D02*
X599Y2464D01*
X1243Y2464D02*
X1249Y2464D01*
X1265Y2464D02*
X1271Y2464D01*
X1293Y2464D02*
X1299Y2464D01*
X2059Y2464D02*
X2066Y2464D01*
X1Y2463D02*
X8Y2463D01*
X479Y2463D02*
X485Y2463D01*
X515Y2463D02*
X522Y2463D01*
X543Y2463D02*
X549Y2463D01*
X565Y2463D02*
X571Y2463D01*
X593Y2463D02*
X599Y2463D01*
X1243Y2463D02*
X1249Y2463D01*
X1265Y2463D02*
X1271Y2463D01*
X1293Y2463D02*
X1299Y2463D01*
X2059Y2463D02*
X2066Y2463D01*
X1Y2462D02*
X8Y2462D01*
X479Y2462D02*
X485Y2462D01*
X516Y2462D02*
X523Y2462D01*
X543Y2462D02*
X549Y2462D01*
X565Y2462D02*
X571Y2462D01*
X593Y2462D02*
X599Y2462D01*
X1243Y2462D02*
X1249Y2462D01*
X1265Y2462D02*
X1271Y2462D01*
X1293Y2462D02*
X1299Y2462D01*
X2059Y2462D02*
X2066Y2462D01*
X1Y2461D02*
X8Y2461D01*
X479Y2461D02*
X485Y2461D01*
X516Y2461D02*
X549Y2461D01*
X565Y2461D02*
X571Y2461D01*
X593Y2461D02*
X599Y2461D01*
X1243Y2461D02*
X1249Y2461D01*
X1265Y2461D02*
X1271Y2461D01*
X1293Y2461D02*
X1299Y2461D01*
X2059Y2461D02*
X2066Y2461D01*
X1Y2460D02*
X8Y2460D01*
X479Y2460D02*
X485Y2460D01*
X517Y2460D02*
X549Y2460D01*
X565Y2460D02*
X571Y2460D01*
X593Y2460D02*
X599Y2460D01*
X1243Y2460D02*
X1249Y2460D01*
X1265Y2460D02*
X1271Y2460D01*
X1293Y2460D02*
X1299Y2460D01*
X2059Y2460D02*
X2066Y2460D01*
X1Y2459D02*
X8Y2459D01*
X479Y2459D02*
X485Y2459D01*
X517Y2459D02*
X549Y2459D01*
X565Y2459D02*
X571Y2459D01*
X593Y2459D02*
X599Y2459D01*
X1243Y2459D02*
X1249Y2459D01*
X1265Y2459D02*
X1271Y2459D01*
X1293Y2459D02*
X1299Y2459D01*
X2059Y2459D02*
X2066Y2459D01*
X1Y2458D02*
X8Y2458D01*
X479Y2458D02*
X485Y2458D01*
X518Y2458D02*
X549Y2458D01*
X565Y2458D02*
X571Y2458D01*
X593Y2458D02*
X599Y2458D01*
X1243Y2458D02*
X1249Y2458D01*
X1265Y2458D02*
X1271Y2458D01*
X1293Y2458D02*
X1299Y2458D01*
X2059Y2458D02*
X2066Y2458D01*
X1Y2457D02*
X8Y2457D01*
X479Y2457D02*
X485Y2457D01*
X519Y2457D02*
X549Y2457D01*
X565Y2457D02*
X571Y2457D01*
X593Y2457D02*
X599Y2457D01*
X1243Y2457D02*
X1249Y2457D01*
X1265Y2457D02*
X1271Y2457D01*
X1293Y2457D02*
X1299Y2457D01*
X2059Y2457D02*
X2066Y2457D01*
X1Y2456D02*
X8Y2456D01*
X479Y2456D02*
X485Y2456D01*
X520Y2456D02*
X549Y2456D01*
X565Y2456D02*
X571Y2456D01*
X593Y2456D02*
X599Y2456D01*
X1243Y2456D02*
X1249Y2456D01*
X1265Y2456D02*
X1271Y2456D01*
X1293Y2456D02*
X1299Y2456D01*
X2059Y2456D02*
X2066Y2456D01*
X1Y2455D02*
X8Y2455D01*
X479Y2455D02*
X485Y2455D01*
X523Y2455D02*
X549Y2455D01*
X565Y2455D02*
X571Y2455D01*
X593Y2455D02*
X599Y2455D01*
X1243Y2455D02*
X1249Y2455D01*
X1265Y2455D02*
X1271Y2455D01*
X1293Y2455D02*
X1299Y2455D01*
X2059Y2455D02*
X2066Y2455D01*
X1Y2454D02*
X8Y2454D01*
X479Y2454D02*
X485Y2454D01*
X529Y2454D02*
X537Y2454D01*
X543Y2454D02*
X549Y2454D01*
X565Y2454D02*
X572Y2454D01*
X593Y2454D02*
X599Y2454D01*
X1243Y2454D02*
X1249Y2454D01*
X1265Y2454D02*
X1272Y2454D01*
X1293Y2454D02*
X1299Y2454D01*
X2059Y2454D02*
X2066Y2454D01*
X1Y2453D02*
X8Y2453D01*
X479Y2453D02*
X485Y2453D01*
X529Y2453D02*
X536Y2453D01*
X543Y2453D02*
X549Y2453D01*
X566Y2453D02*
X573Y2453D01*
X593Y2453D02*
X599Y2453D01*
X1243Y2453D02*
X1249Y2453D01*
X1266Y2453D02*
X1273Y2453D01*
X1293Y2453D02*
X1299Y2453D01*
X2059Y2453D02*
X2066Y2453D01*
X1Y2452D02*
X8Y2452D01*
X479Y2452D02*
X485Y2452D01*
X528Y2452D02*
X535Y2452D01*
X543Y2452D02*
X549Y2452D01*
X566Y2452D02*
X599Y2452D01*
X1243Y2452D02*
X1249Y2452D01*
X1266Y2452D02*
X1299Y2452D01*
X2059Y2452D02*
X2066Y2452D01*
X1Y2451D02*
X8Y2451D01*
X479Y2451D02*
X485Y2451D01*
X528Y2451D02*
X535Y2451D01*
X543Y2451D02*
X549Y2451D01*
X567Y2451D02*
X599Y2451D01*
X1243Y2451D02*
X1249Y2451D01*
X1267Y2451D02*
X1299Y2451D01*
X2059Y2451D02*
X2066Y2451D01*
X1Y2450D02*
X8Y2450D01*
X479Y2450D02*
X485Y2450D01*
X527Y2450D02*
X534Y2450D01*
X543Y2450D02*
X549Y2450D01*
X567Y2450D02*
X599Y2450D01*
X1243Y2450D02*
X1249Y2450D01*
X1267Y2450D02*
X1299Y2450D01*
X2059Y2450D02*
X2066Y2450D01*
X1Y2449D02*
X8Y2449D01*
X467Y2449D02*
X470Y2449D01*
X479Y2449D02*
X485Y2449D01*
X527Y2449D02*
X534Y2449D01*
X543Y2449D02*
X549Y2449D01*
X568Y2449D02*
X599Y2449D01*
X1243Y2449D02*
X1249Y2449D01*
X1268Y2449D02*
X1299Y2449D01*
X2059Y2449D02*
X2066Y2449D01*
X1Y2448D02*
X8Y2448D01*
X466Y2448D02*
X471Y2448D01*
X479Y2448D02*
X485Y2448D01*
X526Y2448D02*
X533Y2448D01*
X543Y2448D02*
X549Y2448D01*
X569Y2448D02*
X599Y2448D01*
X1243Y2448D02*
X1249Y2448D01*
X1269Y2448D02*
X1299Y2448D01*
X2059Y2448D02*
X2066Y2448D01*
X1Y2447D02*
X8Y2447D01*
X465Y2447D02*
X471Y2447D01*
X479Y2447D02*
X485Y2447D01*
X525Y2447D02*
X533Y2447D01*
X543Y2447D02*
X549Y2447D01*
X571Y2447D02*
X599Y2447D01*
X1243Y2447D02*
X1249Y2447D01*
X1271Y2447D02*
X1299Y2447D01*
X2059Y2447D02*
X2066Y2447D01*
X1Y2446D02*
X8Y2446D01*
X465Y2446D02*
X471Y2446D01*
X479Y2446D02*
X485Y2446D01*
X525Y2446D02*
X532Y2446D01*
X543Y2446D02*
X549Y2446D01*
X573Y2446D02*
X599Y2446D01*
X1243Y2446D02*
X1249Y2446D01*
X1273Y2446D02*
X1299Y2446D01*
X2059Y2446D02*
X2066Y2446D01*
X1Y2445D02*
X8Y2445D01*
X465Y2445D02*
X471Y2445D01*
X479Y2445D02*
X485Y2445D01*
X524Y2445D02*
X531Y2445D01*
X543Y2445D02*
X549Y2445D01*
X593Y2445D02*
X599Y2445D01*
X1243Y2445D02*
X1249Y2445D01*
X1293Y2445D02*
X1299Y2445D01*
X2059Y2445D02*
X2066Y2445D01*
X1Y2444D02*
X8Y2444D01*
X465Y2444D02*
X471Y2444D01*
X479Y2444D02*
X485Y2444D01*
X524Y2444D02*
X531Y2444D01*
X543Y2444D02*
X549Y2444D01*
X593Y2444D02*
X599Y2444D01*
X1243Y2444D02*
X1249Y2444D01*
X1293Y2444D02*
X1299Y2444D01*
X2059Y2444D02*
X2066Y2444D01*
X1Y2443D02*
X8Y2443D01*
X465Y2443D02*
X471Y2443D01*
X479Y2443D02*
X485Y2443D01*
X523Y2443D02*
X530Y2443D01*
X543Y2443D02*
X549Y2443D01*
X593Y2443D02*
X599Y2443D01*
X1243Y2443D02*
X1249Y2443D01*
X1293Y2443D02*
X1299Y2443D01*
X2059Y2443D02*
X2066Y2443D01*
X1Y2442D02*
X8Y2442D01*
X465Y2442D02*
X471Y2442D01*
X479Y2442D02*
X485Y2442D01*
X522Y2442D02*
X530Y2442D01*
X543Y2442D02*
X549Y2442D01*
X593Y2442D02*
X599Y2442D01*
X1243Y2442D02*
X1249Y2442D01*
X1293Y2442D02*
X1299Y2442D01*
X2059Y2442D02*
X2066Y2442D01*
X1Y2441D02*
X8Y2441D01*
X465Y2441D02*
X471Y2441D01*
X479Y2441D02*
X485Y2441D01*
X522Y2441D02*
X529Y2441D01*
X543Y2441D02*
X549Y2441D01*
X593Y2441D02*
X599Y2441D01*
X1243Y2441D02*
X1249Y2441D01*
X1293Y2441D02*
X1299Y2441D01*
X2059Y2441D02*
X2066Y2441D01*
X1Y2440D02*
X8Y2440D01*
X465Y2440D02*
X471Y2440D01*
X479Y2440D02*
X485Y2440D01*
X521Y2440D02*
X528Y2440D01*
X543Y2440D02*
X549Y2440D01*
X593Y2440D02*
X599Y2440D01*
X1243Y2440D02*
X1249Y2440D01*
X1293Y2440D02*
X1299Y2440D01*
X2059Y2440D02*
X2066Y2440D01*
X1Y2439D02*
X8Y2439D01*
X465Y2439D02*
X471Y2439D01*
X479Y2439D02*
X485Y2439D01*
X521Y2439D02*
X528Y2439D01*
X543Y2439D02*
X549Y2439D01*
X593Y2439D02*
X599Y2439D01*
X1243Y2439D02*
X1249Y2439D01*
X1293Y2439D02*
X1299Y2439D01*
X2059Y2439D02*
X2066Y2439D01*
X1Y2438D02*
X8Y2438D01*
X465Y2438D02*
X471Y2438D01*
X479Y2438D02*
X485Y2438D01*
X520Y2438D02*
X527Y2438D01*
X543Y2438D02*
X549Y2438D01*
X593Y2438D02*
X599Y2438D01*
X1243Y2438D02*
X1249Y2438D01*
X1293Y2438D02*
X1299Y2438D01*
X2059Y2438D02*
X2066Y2438D01*
X1Y2437D02*
X8Y2437D01*
X465Y2437D02*
X471Y2437D01*
X479Y2437D02*
X485Y2437D01*
X520Y2437D02*
X527Y2437D01*
X543Y2437D02*
X549Y2437D01*
X593Y2437D02*
X599Y2437D01*
X1243Y2437D02*
X1249Y2437D01*
X1293Y2437D02*
X1299Y2437D01*
X2059Y2437D02*
X2066Y2437D01*
X1Y2436D02*
X8Y2436D01*
X465Y2436D02*
X471Y2436D01*
X479Y2436D02*
X485Y2436D01*
X519Y2436D02*
X526Y2436D01*
X543Y2436D02*
X549Y2436D01*
X593Y2436D02*
X599Y2436D01*
X1243Y2436D02*
X1249Y2436D01*
X1293Y2436D02*
X1299Y2436D01*
X2059Y2436D02*
X2066Y2436D01*
X1Y2435D02*
X8Y2435D01*
X465Y2435D02*
X471Y2435D01*
X479Y2435D02*
X485Y2435D01*
X518Y2435D02*
X526Y2435D01*
X543Y2435D02*
X549Y2435D01*
X593Y2435D02*
X599Y2435D01*
X1243Y2435D02*
X1249Y2435D01*
X1293Y2435D02*
X1299Y2435D01*
X2059Y2435D02*
X2066Y2435D01*
X1Y2434D02*
X8Y2434D01*
X465Y2434D02*
X471Y2434D01*
X479Y2434D02*
X485Y2434D01*
X518Y2434D02*
X525Y2434D01*
X543Y2434D02*
X549Y2434D01*
X593Y2434D02*
X599Y2434D01*
X1243Y2434D02*
X1249Y2434D01*
X1293Y2434D02*
X1299Y2434D01*
X2059Y2434D02*
X2066Y2434D01*
X1Y2433D02*
X8Y2433D01*
X465Y2433D02*
X471Y2433D01*
X479Y2433D02*
X485Y2433D01*
X517Y2433D02*
X524Y2433D01*
X543Y2433D02*
X549Y2433D01*
X593Y2433D02*
X599Y2433D01*
X1243Y2433D02*
X1249Y2433D01*
X1293Y2433D02*
X1299Y2433D01*
X2059Y2433D02*
X2066Y2433D01*
X1Y2432D02*
X8Y2432D01*
X465Y2432D02*
X496Y2432D01*
X517Y2432D02*
X524Y2432D01*
X543Y2432D02*
X549Y2432D01*
X593Y2432D02*
X599Y2432D01*
X1218Y2432D02*
X1249Y2432D01*
X1293Y2432D02*
X1299Y2432D01*
X2059Y2432D02*
X2066Y2432D01*
X1Y2431D02*
X8Y2431D01*
X465Y2431D02*
X498Y2431D01*
X516Y2431D02*
X523Y2431D01*
X543Y2431D02*
X549Y2431D01*
X593Y2431D02*
X599Y2431D01*
X1216Y2431D02*
X1249Y2431D01*
X1293Y2431D02*
X1299Y2431D01*
X2059Y2431D02*
X2066Y2431D01*
X1Y2430D02*
X8Y2430D01*
X465Y2430D02*
X498Y2430D01*
X516Y2430D02*
X523Y2430D01*
X543Y2430D02*
X549Y2430D01*
X593Y2430D02*
X599Y2430D01*
X1215Y2430D02*
X1249Y2430D01*
X1293Y2430D02*
X1299Y2430D01*
X2059Y2430D02*
X2066Y2430D01*
X1Y2429D02*
X8Y2429D01*
X465Y2429D02*
X499Y2429D01*
X515Y2429D02*
X522Y2429D01*
X543Y2429D02*
X549Y2429D01*
X593Y2429D02*
X599Y2429D01*
X1215Y2429D02*
X1249Y2429D01*
X1293Y2429D02*
X1299Y2429D01*
X2059Y2429D02*
X2066Y2429D01*
X1Y2428D02*
X8Y2428D01*
X465Y2428D02*
X499Y2428D01*
X515Y2428D02*
X521Y2428D01*
X543Y2428D02*
X549Y2428D01*
X593Y2428D02*
X599Y2428D01*
X1215Y2428D02*
X1249Y2428D01*
X1293Y2428D02*
X1299Y2428D01*
X2059Y2428D02*
X2066Y2428D01*
X1Y2427D02*
X8Y2427D01*
X466Y2427D02*
X498Y2427D01*
X516Y2427D02*
X521Y2427D01*
X543Y2427D02*
X548Y2427D01*
X593Y2427D02*
X598Y2427D01*
X1216Y2427D02*
X1249Y2427D01*
X1293Y2427D02*
X1298Y2427D01*
X2059Y2427D02*
X2066Y2427D01*
X1Y2426D02*
X8Y2426D01*
X466Y2426D02*
X498Y2426D01*
X516Y2426D02*
X520Y2426D01*
X544Y2426D02*
X548Y2426D01*
X594Y2426D02*
X598Y2426D01*
X1216Y2426D02*
X1249Y2426D01*
X1294Y2426D02*
X1297Y2426D01*
X2059Y2426D02*
X2066Y2426D01*
X1Y2425D02*
X8Y2425D01*
X2059Y2425D02*
X2066Y2425D01*
X1Y2424D02*
X8Y2424D01*
X2059Y2424D02*
X2066Y2424D01*
X1Y2423D02*
X8Y2423D01*
X2059Y2423D02*
X2066Y2423D01*
X1Y2422D02*
X8Y2422D01*
X2059Y2422D02*
X2066Y2422D01*
X1Y2421D02*
X8Y2421D01*
X2059Y2421D02*
X2066Y2421D01*
X1Y2420D02*
X8Y2420D01*
X2059Y2420D02*
X2066Y2420D01*
X1Y2419D02*
X8Y2419D01*
X2059Y2419D02*
X2066Y2419D01*
X1Y2418D02*
X8Y2418D01*
X2059Y2418D02*
X2066Y2418D01*
X1Y2417D02*
X8Y2417D01*
X2059Y2417D02*
X2066Y2417D01*
X1Y2416D02*
X8Y2416D01*
X2059Y2416D02*
X2066Y2416D01*
X1Y2415D02*
X8Y2415D01*
X2059Y2415D02*
X2066Y2415D01*
X1Y2414D02*
X8Y2414D01*
X2059Y2414D02*
X2066Y2414D01*
X1Y2413D02*
X8Y2413D01*
X2059Y2413D02*
X2066Y2413D01*
X1Y2412D02*
X8Y2412D01*
X2059Y2412D02*
X2066Y2412D01*
X1Y2411D02*
X8Y2411D01*
X2059Y2411D02*
X2066Y2411D01*
X1Y2410D02*
X8Y2410D01*
X2059Y2410D02*
X2066Y2410D01*
X1Y2409D02*
X8Y2409D01*
X2059Y2409D02*
X2066Y2409D01*
X1Y2408D02*
X8Y2408D01*
X2059Y2408D02*
X2066Y2408D01*
X1Y2407D02*
X8Y2407D01*
X2059Y2407D02*
X2066Y2407D01*
X1Y2406D02*
X8Y2406D01*
X2059Y2406D02*
X2066Y2406D01*
X1Y2405D02*
X8Y2405D01*
X2059Y2405D02*
X2066Y2405D01*
X1Y2404D02*
X8Y2404D01*
X2059Y2404D02*
X2066Y2404D01*
X1Y2403D02*
X8Y2403D01*
X2059Y2403D02*
X2066Y2403D01*
X1Y2402D02*
X8Y2402D01*
X2059Y2402D02*
X2066Y2402D01*
X1Y2401D02*
X8Y2401D01*
X2059Y2401D02*
X2066Y2401D01*
X1Y2400D02*
X8Y2400D01*
X2059Y2400D02*
X2066Y2400D01*
X1Y2399D02*
X8Y2399D01*
X2059Y2399D02*
X2066Y2399D01*
X1Y2398D02*
X8Y2398D01*
X2059Y2398D02*
X2066Y2398D01*
X1Y2397D02*
X8Y2397D01*
X2059Y2397D02*
X2066Y2397D01*
X1Y2396D02*
X8Y2396D01*
X2059Y2396D02*
X2066Y2396D01*
X1Y2395D02*
X8Y2395D01*
X2059Y2395D02*
X2066Y2395D01*
X1Y2394D02*
X8Y2394D01*
X2059Y2394D02*
X2066Y2394D01*
X1Y2393D02*
X8Y2393D01*
X2059Y2393D02*
X2066Y2393D01*
X1Y2392D02*
X8Y2392D01*
X2059Y2392D02*
X2066Y2392D01*
X1Y2391D02*
X8Y2391D01*
X2059Y2391D02*
X2066Y2391D01*
X1Y2390D02*
X8Y2390D01*
X2059Y2390D02*
X2066Y2390D01*
X1Y2389D02*
X8Y2389D01*
X2059Y2389D02*
X2066Y2389D01*
X1Y2388D02*
X8Y2388D01*
X2059Y2388D02*
X2066Y2388D01*
X1Y2387D02*
X8Y2387D01*
X2059Y2387D02*
X2066Y2387D01*
X1Y2386D02*
X8Y2386D01*
X2059Y2386D02*
X2066Y2386D01*
X1Y2385D02*
X8Y2385D01*
X2059Y2385D02*
X2066Y2385D01*
X1Y2384D02*
X8Y2384D01*
X2059Y2384D02*
X2066Y2384D01*
X1Y2383D02*
X8Y2383D01*
X2059Y2383D02*
X2066Y2383D01*
X1Y2382D02*
X8Y2382D01*
X2059Y2382D02*
X2066Y2382D01*
X1Y2381D02*
X8Y2381D01*
X2059Y2381D02*
X2066Y2381D01*
X1Y2380D02*
X8Y2380D01*
X693Y2380D02*
X694Y2380D01*
X1393Y2380D02*
X1394Y2380D01*
X2059Y2380D02*
X2066Y2380D01*
X1Y2379D02*
X8Y2379D01*
X692Y2379D02*
X695Y2379D01*
X1392Y2379D02*
X1395Y2379D01*
X2059Y2379D02*
X2066Y2379D01*
X1Y2378D02*
X8Y2378D01*
X691Y2378D02*
X696Y2378D01*
X1391Y2378D02*
X1396Y2378D01*
X2059Y2378D02*
X2066Y2378D01*
X1Y2377D02*
X8Y2377D01*
X691Y2377D02*
X697Y2377D01*
X1391Y2377D02*
X1397Y2377D01*
X2059Y2377D02*
X2066Y2377D01*
X1Y2376D02*
X8Y2376D01*
X692Y2376D02*
X698Y2376D01*
X1392Y2376D02*
X1398Y2376D01*
X2059Y2376D02*
X2066Y2376D01*
X1Y2375D02*
X8Y2375D01*
X693Y2375D02*
X699Y2375D01*
X1393Y2375D02*
X1399Y2375D01*
X2059Y2375D02*
X2066Y2375D01*
X1Y2374D02*
X8Y2374D01*
X694Y2374D02*
X700Y2374D01*
X1394Y2374D02*
X1400Y2374D01*
X2059Y2374D02*
X2066Y2374D01*
X1Y2373D02*
X8Y2373D01*
X695Y2373D02*
X701Y2373D01*
X1395Y2373D02*
X1401Y2373D01*
X2059Y2373D02*
X2066Y2373D01*
X1Y2372D02*
X8Y2372D01*
X696Y2372D02*
X702Y2372D01*
X1396Y2372D02*
X1402Y2372D01*
X2059Y2372D02*
X2066Y2372D01*
X1Y2371D02*
X8Y2371D01*
X697Y2371D02*
X703Y2371D01*
X1397Y2371D02*
X1403Y2371D01*
X2059Y2371D02*
X2066Y2371D01*
X1Y2370D02*
X8Y2370D01*
X698Y2370D02*
X704Y2370D01*
X1398Y2370D02*
X1404Y2370D01*
X2059Y2370D02*
X2066Y2370D01*
X1Y2369D02*
X8Y2369D01*
X699Y2369D02*
X705Y2369D01*
X1399Y2369D02*
X1405Y2369D01*
X2059Y2369D02*
X2066Y2369D01*
X1Y2368D02*
X8Y2368D01*
X700Y2368D02*
X706Y2368D01*
X1400Y2368D02*
X1406Y2368D01*
X2059Y2368D02*
X2066Y2368D01*
X1Y2367D02*
X8Y2367D01*
X701Y2367D02*
X707Y2367D01*
X1401Y2367D02*
X1407Y2367D01*
X2059Y2367D02*
X2066Y2367D01*
X1Y2366D02*
X8Y2366D01*
X702Y2366D02*
X708Y2366D01*
X1402Y2366D02*
X1408Y2366D01*
X2059Y2366D02*
X2066Y2366D01*
X1Y2365D02*
X8Y2365D01*
X703Y2365D02*
X709Y2365D01*
X1403Y2365D02*
X1409Y2365D01*
X2059Y2365D02*
X2066Y2365D01*
X1Y2364D02*
X8Y2364D01*
X705Y2364D02*
X710Y2364D01*
X1404Y2364D02*
X1410Y2364D01*
X2059Y2364D02*
X2066Y2364D01*
X1Y2363D02*
X8Y2363D01*
X706Y2363D02*
X711Y2363D01*
X1406Y2363D02*
X1411Y2363D01*
X2059Y2363D02*
X2066Y2363D01*
X1Y2362D02*
X8Y2362D01*
X707Y2362D02*
X712Y2362D01*
X1407Y2362D02*
X1412Y2362D01*
X2059Y2362D02*
X2066Y2362D01*
X1Y2361D02*
X8Y2361D01*
X708Y2361D02*
X713Y2361D01*
X1408Y2361D02*
X1413Y2361D01*
X2059Y2361D02*
X2066Y2361D01*
X1Y2360D02*
X8Y2360D01*
X709Y2360D02*
X714Y2360D01*
X1409Y2360D02*
X1414Y2360D01*
X2059Y2360D02*
X2066Y2360D01*
X1Y2359D02*
X8Y2359D01*
X710Y2359D02*
X715Y2359D01*
X1410Y2359D02*
X1415Y2359D01*
X2059Y2359D02*
X2066Y2359D01*
X1Y2358D02*
X8Y2358D01*
X711Y2358D02*
X716Y2358D01*
X1411Y2358D02*
X1416Y2358D01*
X2059Y2358D02*
X2066Y2358D01*
X1Y2357D02*
X8Y2357D01*
X712Y2357D02*
X717Y2357D01*
X1412Y2357D02*
X1417Y2357D01*
X2059Y2357D02*
X2066Y2357D01*
X1Y2356D02*
X8Y2356D01*
X712Y2356D02*
X718Y2356D01*
X1412Y2356D02*
X1418Y2356D01*
X2059Y2356D02*
X2066Y2356D01*
X1Y2355D02*
X8Y2355D01*
X713Y2355D02*
X719Y2355D01*
X1413Y2355D02*
X1419Y2355D01*
X2059Y2355D02*
X2066Y2355D01*
X1Y2354D02*
X8Y2354D01*
X714Y2354D02*
X720Y2354D01*
X1414Y2354D02*
X1420Y2354D01*
X2059Y2354D02*
X2066Y2354D01*
X1Y2353D02*
X8Y2353D01*
X715Y2353D02*
X721Y2353D01*
X1415Y2353D02*
X1421Y2353D01*
X2059Y2353D02*
X2066Y2353D01*
X1Y2352D02*
X8Y2352D01*
X716Y2352D02*
X722Y2352D01*
X1416Y2352D02*
X1422Y2352D01*
X2059Y2352D02*
X2066Y2352D01*
X1Y2351D02*
X8Y2351D01*
X717Y2351D02*
X723Y2351D01*
X1417Y2351D02*
X1423Y2351D01*
X2059Y2351D02*
X2066Y2351D01*
X1Y2350D02*
X8Y2350D01*
X718Y2350D02*
X724Y2350D01*
X1418Y2350D02*
X1424Y2350D01*
X2059Y2350D02*
X2066Y2350D01*
X1Y2349D02*
X8Y2349D01*
X719Y2349D02*
X725Y2349D01*
X1419Y2349D02*
X1425Y2349D01*
X2059Y2349D02*
X2066Y2349D01*
X1Y2348D02*
X8Y2348D01*
X720Y2348D02*
X726Y2348D01*
X1420Y2348D02*
X1426Y2348D01*
X2059Y2348D02*
X2066Y2348D01*
X1Y2347D02*
X8Y2347D01*
X721Y2347D02*
X727Y2347D01*
X1421Y2347D02*
X1427Y2347D01*
X2059Y2347D02*
X2066Y2347D01*
X1Y2346D02*
X8Y2346D01*
X722Y2346D02*
X728Y2346D01*
X1422Y2346D02*
X1428Y2346D01*
X2059Y2346D02*
X2066Y2346D01*
X1Y2345D02*
X8Y2345D01*
X723Y2345D02*
X727Y2345D01*
X1423Y2345D02*
X1427Y2345D01*
X2059Y2345D02*
X2066Y2345D01*
X1Y2344D02*
X8Y2344D01*
X724Y2344D02*
X726Y2344D01*
X1424Y2344D02*
X1426Y2344D01*
X2059Y2344D02*
X2066Y2344D01*
X1Y2343D02*
X8Y2343D01*
X725Y2343D02*
X725Y2343D01*
X1425Y2343D02*
X1425Y2343D01*
X2059Y2343D02*
X2066Y2343D01*
X1Y2342D02*
X8Y2342D01*
X2059Y2342D02*
X2066Y2342D01*
X1Y2341D02*
X8Y2341D01*
X2059Y2341D02*
X2066Y2341D01*
X1Y2340D02*
X8Y2340D01*
X2059Y2340D02*
X2066Y2340D01*
X1Y2339D02*
X8Y2339D01*
X2059Y2339D02*
X2066Y2339D01*
X1Y2338D02*
X8Y2338D01*
X2059Y2338D02*
X2066Y2338D01*
X1Y2337D02*
X8Y2337D01*
X2059Y2337D02*
X2066Y2337D01*
X1Y2336D02*
X8Y2336D01*
X2059Y2336D02*
X2066Y2336D01*
X1Y2335D02*
X8Y2335D01*
X2059Y2335D02*
X2066Y2335D01*
X1Y2334D02*
X8Y2334D01*
X2059Y2334D02*
X2066Y2334D01*
X1Y2333D02*
X8Y2333D01*
X2059Y2333D02*
X2066Y2333D01*
X1Y2332D02*
X8Y2332D01*
X2059Y2332D02*
X2066Y2332D01*
X1Y2331D02*
X8Y2331D01*
X2059Y2331D02*
X2066Y2331D01*
X1Y2330D02*
X8Y2330D01*
X2059Y2330D02*
X2066Y2330D01*
X1Y2329D02*
X8Y2329D01*
X2059Y2329D02*
X2066Y2329D01*
X1Y2328D02*
X8Y2328D01*
X2059Y2328D02*
X2066Y2328D01*
X1Y2327D02*
X8Y2327D01*
X2059Y2327D02*
X2066Y2327D01*
X1Y2326D02*
X8Y2326D01*
X2059Y2326D02*
X2066Y2326D01*
X1Y2325D02*
X8Y2325D01*
X2059Y2325D02*
X2066Y2325D01*
X1Y2324D02*
X8Y2324D01*
X2059Y2324D02*
X2066Y2324D01*
X1Y2323D02*
X8Y2323D01*
X2059Y2323D02*
X2066Y2323D01*
X1Y2322D02*
X8Y2322D01*
X2059Y2322D02*
X2066Y2322D01*
X1Y2321D02*
X8Y2321D01*
X2059Y2321D02*
X2066Y2321D01*
X1Y2320D02*
X8Y2320D01*
X2059Y2320D02*
X2066Y2320D01*
X1Y2319D02*
X8Y2319D01*
X2059Y2319D02*
X2066Y2319D01*
X1Y2318D02*
X8Y2318D01*
X2059Y2318D02*
X2066Y2318D01*
X1Y2317D02*
X8Y2317D01*
X2059Y2317D02*
X2066Y2317D01*
X1Y2316D02*
X8Y2316D01*
X2059Y2316D02*
X2066Y2316D01*
X1Y2315D02*
X8Y2315D01*
X2059Y2315D02*
X2066Y2315D01*
X1Y2314D02*
X8Y2314D01*
X2059Y2314D02*
X2066Y2314D01*
X1Y2313D02*
X8Y2313D01*
X2059Y2313D02*
X2066Y2313D01*
X1Y2312D02*
X8Y2312D01*
X2059Y2312D02*
X2066Y2312D01*
X1Y2311D02*
X8Y2311D01*
X2059Y2311D02*
X2066Y2311D01*
X1Y2310D02*
X8Y2310D01*
X2059Y2310D02*
X2066Y2310D01*
X1Y2309D02*
X8Y2309D01*
X2059Y2309D02*
X2066Y2309D01*
X1Y2308D02*
X8Y2308D01*
X2059Y2308D02*
X2066Y2308D01*
X1Y2307D02*
X8Y2307D01*
X2059Y2307D02*
X2066Y2307D01*
X1Y2306D02*
X8Y2306D01*
X2059Y2306D02*
X2066Y2306D01*
X1Y2305D02*
X8Y2305D01*
X2059Y2305D02*
X2066Y2305D01*
X1Y2304D02*
X8Y2304D01*
X2059Y2304D02*
X2066Y2304D01*
X1Y2303D02*
X8Y2303D01*
X2059Y2303D02*
X2066Y2303D01*
X1Y2302D02*
X8Y2302D01*
X2059Y2302D02*
X2066Y2302D01*
X1Y2301D02*
X8Y2301D01*
X2059Y2301D02*
X2066Y2301D01*
X1Y2300D02*
X8Y2300D01*
X2059Y2300D02*
X2066Y2300D01*
X1Y2299D02*
X8Y2299D01*
X2059Y2299D02*
X2066Y2299D01*
X1Y2298D02*
X8Y2298D01*
X2059Y2298D02*
X2066Y2298D01*
X1Y2297D02*
X8Y2297D01*
X2059Y2297D02*
X2066Y2297D01*
X1Y2296D02*
X8Y2296D01*
X2059Y2296D02*
X2066Y2296D01*
X1Y2295D02*
X8Y2295D01*
X2059Y2295D02*
X2066Y2295D01*
X1Y2294D02*
X8Y2294D01*
X2059Y2294D02*
X2066Y2294D01*
X1Y2293D02*
X8Y2293D01*
X2059Y2293D02*
X2066Y2293D01*
X1Y2292D02*
X8Y2292D01*
X2059Y2292D02*
X2066Y2292D01*
X1Y2291D02*
X8Y2291D01*
X2059Y2291D02*
X2066Y2291D01*
X1Y2290D02*
X8Y2290D01*
X2059Y2290D02*
X2066Y2290D01*
X1Y2289D02*
X8Y2289D01*
X2059Y2289D02*
X2066Y2289D01*
X1Y2288D02*
X8Y2288D01*
X2059Y2288D02*
X2066Y2288D01*
X1Y2287D02*
X8Y2287D01*
X2059Y2287D02*
X2066Y2287D01*
X1Y2286D02*
X8Y2286D01*
X2059Y2286D02*
X2066Y2286D01*
X1Y2285D02*
X8Y2285D01*
X2059Y2285D02*
X2066Y2285D01*
X1Y2284D02*
X8Y2284D01*
X2059Y2284D02*
X2066Y2284D01*
X1Y2283D02*
X8Y2283D01*
X2059Y2283D02*
X2066Y2283D01*
X1Y2282D02*
X8Y2282D01*
X2059Y2282D02*
X2066Y2282D01*
X1Y2281D02*
X8Y2281D01*
X2059Y2281D02*
X2066Y2281D01*
X1Y2280D02*
X8Y2280D01*
X2059Y2280D02*
X2066Y2280D01*
X1Y2279D02*
X8Y2279D01*
X2059Y2279D02*
X2066Y2279D01*
X1Y2278D02*
X8Y2278D01*
X2059Y2278D02*
X2066Y2278D01*
X1Y2277D02*
X8Y2277D01*
X2059Y2277D02*
X2066Y2277D01*
X1Y2276D02*
X8Y2276D01*
X2059Y2276D02*
X2066Y2276D01*
X1Y2275D02*
X8Y2275D01*
X2059Y2275D02*
X2066Y2275D01*
X1Y2274D02*
X8Y2274D01*
X2059Y2274D02*
X2066Y2274D01*
X1Y2273D02*
X8Y2273D01*
X2059Y2273D02*
X2066Y2273D01*
X1Y2272D02*
X8Y2272D01*
X2059Y2272D02*
X2066Y2272D01*
X1Y2271D02*
X8Y2271D01*
X2059Y2271D02*
X2066Y2271D01*
X1Y2270D02*
X8Y2270D01*
X2059Y2270D02*
X2066Y2270D01*
X1Y2269D02*
X8Y2269D01*
X2059Y2269D02*
X2066Y2269D01*
X1Y2268D02*
X8Y2268D01*
X2059Y2268D02*
X2066Y2268D01*
X1Y2267D02*
X8Y2267D01*
X2059Y2267D02*
X2066Y2267D01*
X1Y2266D02*
X8Y2266D01*
X2059Y2266D02*
X2066Y2266D01*
X1Y2265D02*
X8Y2265D01*
X2059Y2265D02*
X2066Y2265D01*
X1Y2264D02*
X8Y2264D01*
X2059Y2264D02*
X2066Y2264D01*
X1Y2263D02*
X8Y2263D01*
X2059Y2263D02*
X2066Y2263D01*
X1Y2262D02*
X8Y2262D01*
X2059Y2262D02*
X2066Y2262D01*
X1Y2261D02*
X8Y2261D01*
X2059Y2261D02*
X2066Y2261D01*
X1Y2260D02*
X8Y2260D01*
X2059Y2260D02*
X2066Y2260D01*
X1Y2259D02*
X8Y2259D01*
X2059Y2259D02*
X2066Y2259D01*
X1Y2258D02*
X8Y2258D01*
X2059Y2258D02*
X2066Y2258D01*
X1Y2257D02*
X8Y2257D01*
X2059Y2257D02*
X2066Y2257D01*
X1Y2256D02*
X8Y2256D01*
X2059Y2256D02*
X2066Y2256D01*
X1Y2255D02*
X8Y2255D01*
X2059Y2255D02*
X2066Y2255D01*
X1Y2254D02*
X8Y2254D01*
X2059Y2254D02*
X2066Y2254D01*
X1Y2253D02*
X8Y2253D01*
X2059Y2253D02*
X2066Y2253D01*
X1Y2252D02*
X8Y2252D01*
X2059Y2252D02*
X2066Y2252D01*
X1Y2251D02*
X8Y2251D01*
X2059Y2251D02*
X2066Y2251D01*
X1Y2250D02*
X8Y2250D01*
X2059Y2250D02*
X2066Y2250D01*
X1Y2249D02*
X8Y2249D01*
X2059Y2249D02*
X2066Y2249D01*
X1Y2248D02*
X8Y2248D01*
X2059Y2248D02*
X2066Y2248D01*
X1Y2247D02*
X8Y2247D01*
X2059Y2247D02*
X2066Y2247D01*
X1Y2246D02*
X8Y2246D01*
X2059Y2246D02*
X2066Y2246D01*
X1Y2245D02*
X8Y2245D01*
X2059Y2245D02*
X2066Y2245D01*
X1Y2244D02*
X8Y2244D01*
X2059Y2244D02*
X2066Y2244D01*
X1Y2243D02*
X8Y2243D01*
X2059Y2243D02*
X2066Y2243D01*
X1Y2242D02*
X8Y2242D01*
X2059Y2242D02*
X2066Y2242D01*
X1Y2241D02*
X8Y2241D01*
X2059Y2241D02*
X2066Y2241D01*
X1Y2240D02*
X8Y2240D01*
X2059Y2240D02*
X2066Y2240D01*
X1Y2239D02*
X8Y2239D01*
X2059Y2239D02*
X2066Y2239D01*
X1Y2238D02*
X8Y2238D01*
X2059Y2238D02*
X2066Y2238D01*
X1Y2237D02*
X8Y2237D01*
X2059Y2237D02*
X2066Y2237D01*
X1Y2236D02*
X8Y2236D01*
X2059Y2236D02*
X2066Y2236D01*
X1Y2235D02*
X8Y2235D01*
X2059Y2235D02*
X2066Y2235D01*
X1Y2234D02*
X8Y2234D01*
X2059Y2234D02*
X2066Y2234D01*
X1Y2233D02*
X8Y2233D01*
X2059Y2233D02*
X2066Y2233D01*
X1Y2232D02*
X8Y2232D01*
X2059Y2232D02*
X2066Y2232D01*
X1Y2231D02*
X8Y2231D01*
X2059Y2231D02*
X2066Y2231D01*
X1Y2230D02*
X8Y2230D01*
X2059Y2230D02*
X2066Y2230D01*
X1Y2229D02*
X8Y2229D01*
X2059Y2229D02*
X2066Y2229D01*
X1Y2228D02*
X8Y2228D01*
X2059Y2228D02*
X2066Y2228D01*
X1Y2227D02*
X8Y2227D01*
X2059Y2227D02*
X2066Y2227D01*
X1Y2226D02*
X8Y2226D01*
X2059Y2226D02*
X2066Y2226D01*
X1Y2225D02*
X8Y2225D01*
X2059Y2225D02*
X2066Y2225D01*
X1Y2224D02*
X8Y2224D01*
X2059Y2224D02*
X2066Y2224D01*
X1Y2223D02*
X8Y2223D01*
X2059Y2223D02*
X2066Y2223D01*
X1Y2222D02*
X8Y2222D01*
X2059Y2222D02*
X2066Y2222D01*
X1Y2221D02*
X8Y2221D01*
X2059Y2221D02*
X2066Y2221D01*
X1Y2220D02*
X8Y2220D01*
X2059Y2220D02*
X2066Y2220D01*
X1Y2219D02*
X8Y2219D01*
X2059Y2219D02*
X2066Y2219D01*
X1Y2218D02*
X8Y2218D01*
X2059Y2218D02*
X2066Y2218D01*
X1Y2217D02*
X8Y2217D01*
X2059Y2217D02*
X2066Y2217D01*
X1Y2216D02*
X8Y2216D01*
X2059Y2216D02*
X2066Y2216D01*
X1Y2215D02*
X8Y2215D01*
X2059Y2215D02*
X2066Y2215D01*
X1Y2214D02*
X8Y2214D01*
X2059Y2214D02*
X2066Y2214D01*
X1Y2213D02*
X8Y2213D01*
X2059Y2213D02*
X2066Y2213D01*
X1Y2212D02*
X8Y2212D01*
X2059Y2212D02*
X2066Y2212D01*
X1Y2211D02*
X8Y2211D01*
X2059Y2211D02*
X2066Y2211D01*
X1Y2210D02*
X8Y2210D01*
X2059Y2210D02*
X2066Y2210D01*
X1Y2209D02*
X8Y2209D01*
X2059Y2209D02*
X2066Y2209D01*
X1Y2208D02*
X8Y2208D01*
X2059Y2208D02*
X2066Y2208D01*
X1Y2207D02*
X8Y2207D01*
X2059Y2207D02*
X2066Y2207D01*
X1Y2206D02*
X8Y2206D01*
X2059Y2206D02*
X2066Y2206D01*
X1Y2205D02*
X8Y2205D01*
X2059Y2205D02*
X2066Y2205D01*
X1Y2204D02*
X8Y2204D01*
X2059Y2204D02*
X2066Y2204D01*
X1Y2203D02*
X8Y2203D01*
X2059Y2203D02*
X2066Y2203D01*
X1Y2202D02*
X8Y2202D01*
X2059Y2202D02*
X2066Y2202D01*
X1Y2201D02*
X8Y2201D01*
X2059Y2201D02*
X2066Y2201D01*
X1Y2200D02*
X8Y2200D01*
X2059Y2200D02*
X2066Y2200D01*
X1Y2199D02*
X8Y2199D01*
X2059Y2199D02*
X2066Y2199D01*
X1Y2198D02*
X8Y2198D01*
X2059Y2198D02*
X2066Y2198D01*
X1Y2197D02*
X8Y2197D01*
X2059Y2197D02*
X2066Y2197D01*
X1Y2196D02*
X8Y2196D01*
X2059Y2196D02*
X2066Y2196D01*
X1Y2195D02*
X8Y2195D01*
X2059Y2195D02*
X2066Y2195D01*
X1Y2194D02*
X8Y2194D01*
X2059Y2194D02*
X2066Y2194D01*
X1Y2193D02*
X8Y2193D01*
X2059Y2193D02*
X2066Y2193D01*
X1Y2192D02*
X8Y2192D01*
X2059Y2192D02*
X2066Y2192D01*
X1Y2191D02*
X8Y2191D01*
X2059Y2191D02*
X2066Y2191D01*
X1Y2190D02*
X8Y2190D01*
X2059Y2190D02*
X2066Y2190D01*
X1Y2189D02*
X8Y2189D01*
X2059Y2189D02*
X2066Y2189D01*
X1Y2188D02*
X8Y2188D01*
X2059Y2188D02*
X2066Y2188D01*
X1Y2187D02*
X8Y2187D01*
X2059Y2187D02*
X2066Y2187D01*
X1Y2186D02*
X8Y2186D01*
X2059Y2186D02*
X2066Y2186D01*
X1Y2185D02*
X8Y2185D01*
X2059Y2185D02*
X2066Y2185D01*
X1Y2184D02*
X8Y2184D01*
X2059Y2184D02*
X2066Y2184D01*
X1Y2183D02*
X8Y2183D01*
X2059Y2183D02*
X2066Y2183D01*
X1Y2182D02*
X8Y2182D01*
X2059Y2182D02*
X2066Y2182D01*
X1Y2181D02*
X8Y2181D01*
X2059Y2181D02*
X2066Y2181D01*
X1Y2180D02*
X8Y2180D01*
X2059Y2180D02*
X2066Y2180D01*
X1Y2179D02*
X8Y2179D01*
X2059Y2179D02*
X2066Y2179D01*
X1Y2178D02*
X8Y2178D01*
X2059Y2178D02*
X2066Y2178D01*
X1Y2177D02*
X8Y2177D01*
X2059Y2177D02*
X2066Y2177D01*
X1Y2176D02*
X8Y2176D01*
X2059Y2176D02*
X2066Y2176D01*
X1Y2175D02*
X8Y2175D01*
X2059Y2175D02*
X2066Y2175D01*
X1Y2174D02*
X8Y2174D01*
X2059Y2174D02*
X2066Y2174D01*
X1Y2173D02*
X8Y2173D01*
X2059Y2173D02*
X2066Y2173D01*
X1Y2172D02*
X8Y2172D01*
X2059Y2172D02*
X2066Y2172D01*
X1Y2171D02*
X8Y2171D01*
X2059Y2171D02*
X2066Y2171D01*
X1Y2170D02*
X8Y2170D01*
X2059Y2170D02*
X2066Y2170D01*
X1Y2169D02*
X8Y2169D01*
X2059Y2169D02*
X2066Y2169D01*
X1Y2168D02*
X8Y2168D01*
X2059Y2168D02*
X2066Y2168D01*
X1Y2167D02*
X8Y2167D01*
X2059Y2167D02*
X2066Y2167D01*
X1Y2166D02*
X8Y2166D01*
X2059Y2166D02*
X2066Y2166D01*
X1Y2165D02*
X8Y2165D01*
X2059Y2165D02*
X2066Y2165D01*
X1Y2164D02*
X8Y2164D01*
X2059Y2164D02*
X2066Y2164D01*
X1Y2163D02*
X8Y2163D01*
X2059Y2163D02*
X2066Y2163D01*
X1Y2162D02*
X8Y2162D01*
X2059Y2162D02*
X2066Y2162D01*
X1Y2161D02*
X8Y2161D01*
X2059Y2161D02*
X2066Y2161D01*
X1Y2160D02*
X8Y2160D01*
X2059Y2160D02*
X2066Y2160D01*
X1Y2159D02*
X8Y2159D01*
X2059Y2159D02*
X2066Y2159D01*
X1Y2158D02*
X8Y2158D01*
X2059Y2158D02*
X2066Y2158D01*
X1Y2157D02*
X8Y2157D01*
X2059Y2157D02*
X2066Y2157D01*
X1Y2156D02*
X8Y2156D01*
X2059Y2156D02*
X2066Y2156D01*
X1Y2155D02*
X8Y2155D01*
X2059Y2155D02*
X2066Y2155D01*
X1Y2154D02*
X8Y2154D01*
X2059Y2154D02*
X2066Y2154D01*
X1Y2153D02*
X8Y2153D01*
X2059Y2153D02*
X2066Y2153D01*
X1Y2152D02*
X8Y2152D01*
X2059Y2152D02*
X2066Y2152D01*
X1Y2151D02*
X8Y2151D01*
X2059Y2151D02*
X2066Y2151D01*
X1Y2150D02*
X8Y2150D01*
X2059Y2150D02*
X2066Y2150D01*
X1Y2149D02*
X8Y2149D01*
X2059Y2149D02*
X2066Y2149D01*
X1Y2148D02*
X8Y2148D01*
X2059Y2148D02*
X2066Y2148D01*
X1Y2147D02*
X8Y2147D01*
X2059Y2147D02*
X2066Y2147D01*
X1Y2146D02*
X8Y2146D01*
X2059Y2146D02*
X2066Y2146D01*
X1Y2145D02*
X8Y2145D01*
X2059Y2145D02*
X2066Y2145D01*
X1Y2144D02*
X8Y2144D01*
X2059Y2144D02*
X2066Y2144D01*
X1Y2143D02*
X8Y2143D01*
X2059Y2143D02*
X2066Y2143D01*
X1Y2142D02*
X8Y2142D01*
X2059Y2142D02*
X2066Y2142D01*
X1Y2141D02*
X8Y2141D01*
X2059Y2141D02*
X2066Y2141D01*
X1Y2140D02*
X8Y2140D01*
X2059Y2140D02*
X2066Y2140D01*
X1Y2139D02*
X8Y2139D01*
X2059Y2139D02*
X2066Y2139D01*
X1Y2138D02*
X8Y2138D01*
X2059Y2138D02*
X2066Y2138D01*
X1Y2137D02*
X8Y2137D01*
X2059Y2137D02*
X2066Y2137D01*
X1Y2136D02*
X8Y2136D01*
X2059Y2136D02*
X2066Y2136D01*
X1Y2135D02*
X8Y2135D01*
X2059Y2135D02*
X2066Y2135D01*
X1Y2134D02*
X8Y2134D01*
X2059Y2134D02*
X2066Y2134D01*
X1Y2133D02*
X8Y2133D01*
X2059Y2133D02*
X2066Y2133D01*
X1Y2132D02*
X8Y2132D01*
X2059Y2132D02*
X2066Y2132D01*
X1Y2131D02*
X8Y2131D01*
X2059Y2131D02*
X2066Y2131D01*
X1Y2130D02*
X8Y2130D01*
X2059Y2130D02*
X2066Y2130D01*
X1Y2129D02*
X8Y2129D01*
X2059Y2129D02*
X2066Y2129D01*
X1Y2128D02*
X8Y2128D01*
X2059Y2128D02*
X2066Y2128D01*
X1Y2127D02*
X8Y2127D01*
X2059Y2127D02*
X2066Y2127D01*
X1Y2126D02*
X8Y2126D01*
X2059Y2126D02*
X2066Y2126D01*
X1Y2125D02*
X8Y2125D01*
X2059Y2125D02*
X2066Y2125D01*
X1Y2124D02*
X8Y2124D01*
X2059Y2124D02*
X2066Y2124D01*
X1Y2123D02*
X8Y2123D01*
X2059Y2123D02*
X2066Y2123D01*
X1Y2122D02*
X8Y2122D01*
X2059Y2122D02*
X2066Y2122D01*
X1Y2121D02*
X8Y2121D01*
X2059Y2121D02*
X2066Y2121D01*
X1Y2120D02*
X8Y2120D01*
X2059Y2120D02*
X2066Y2120D01*
X1Y2119D02*
X8Y2119D01*
X2059Y2119D02*
X2066Y2119D01*
X1Y2118D02*
X8Y2118D01*
X2059Y2118D02*
X2066Y2118D01*
X1Y2117D02*
X8Y2117D01*
X2059Y2117D02*
X2066Y2117D01*
X1Y2116D02*
X8Y2116D01*
X2059Y2116D02*
X2066Y2116D01*
X1Y2115D02*
X8Y2115D01*
X2059Y2115D02*
X2066Y2115D01*
X1Y2114D02*
X8Y2114D01*
X2059Y2114D02*
X2066Y2114D01*
X1Y2113D02*
X8Y2113D01*
X2059Y2113D02*
X2066Y2113D01*
X1Y2112D02*
X8Y2112D01*
X2059Y2112D02*
X2066Y2112D01*
X1Y2111D02*
X8Y2111D01*
X2059Y2111D02*
X2066Y2111D01*
X1Y2110D02*
X8Y2110D01*
X2059Y2110D02*
X2066Y2110D01*
X1Y2109D02*
X8Y2109D01*
X2059Y2109D02*
X2066Y2109D01*
X1Y2108D02*
X8Y2108D01*
X2059Y2108D02*
X2066Y2108D01*
X1Y2107D02*
X8Y2107D01*
X2059Y2107D02*
X2066Y2107D01*
X1Y2106D02*
X8Y2106D01*
X2059Y2106D02*
X2066Y2106D01*
X1Y2105D02*
X8Y2105D01*
X2059Y2105D02*
X2066Y2105D01*
X1Y2104D02*
X8Y2104D01*
X2059Y2104D02*
X2066Y2104D01*
X1Y2103D02*
X8Y2103D01*
X2059Y2103D02*
X2066Y2103D01*
X1Y2102D02*
X8Y2102D01*
X2059Y2102D02*
X2066Y2102D01*
X1Y2101D02*
X8Y2101D01*
X2059Y2101D02*
X2066Y2101D01*
X1Y2100D02*
X8Y2100D01*
X2059Y2100D02*
X2066Y2100D01*
X1Y2099D02*
X8Y2099D01*
X2059Y2099D02*
X2066Y2099D01*
X1Y2098D02*
X8Y2098D01*
X2059Y2098D02*
X2066Y2098D01*
X1Y2097D02*
X8Y2097D01*
X2059Y2097D02*
X2066Y2097D01*
X1Y2096D02*
X8Y2096D01*
X2059Y2096D02*
X2066Y2096D01*
X1Y2095D02*
X8Y2095D01*
X2059Y2095D02*
X2066Y2095D01*
X1Y2094D02*
X8Y2094D01*
X2059Y2094D02*
X2066Y2094D01*
X1Y2093D02*
X8Y2093D01*
X2059Y2093D02*
X2066Y2093D01*
X1Y2092D02*
X8Y2092D01*
X2059Y2092D02*
X2066Y2092D01*
X1Y2091D02*
X8Y2091D01*
X2059Y2091D02*
X2066Y2091D01*
X1Y2090D02*
X8Y2090D01*
X2059Y2090D02*
X2066Y2090D01*
X1Y2089D02*
X8Y2089D01*
X2059Y2089D02*
X2066Y2089D01*
X1Y2088D02*
X8Y2088D01*
X2059Y2088D02*
X2066Y2088D01*
X1Y2087D02*
X8Y2087D01*
X2059Y2087D02*
X2066Y2087D01*
X1Y2086D02*
X8Y2086D01*
X2059Y2086D02*
X2066Y2086D01*
X1Y2085D02*
X8Y2085D01*
X2059Y2085D02*
X2066Y2085D01*
X1Y2084D02*
X8Y2084D01*
X2059Y2084D02*
X2066Y2084D01*
X1Y2083D02*
X8Y2083D01*
X2059Y2083D02*
X2066Y2083D01*
X1Y2082D02*
X8Y2082D01*
X2059Y2082D02*
X2066Y2082D01*
X1Y2081D02*
X8Y2081D01*
X2059Y2081D02*
X2066Y2081D01*
X1Y2080D02*
X8Y2080D01*
X2059Y2080D02*
X2066Y2080D01*
X1Y2079D02*
X8Y2079D01*
X2059Y2079D02*
X2066Y2079D01*
X1Y2078D02*
X8Y2078D01*
X2059Y2078D02*
X2066Y2078D01*
X1Y2077D02*
X8Y2077D01*
X2059Y2077D02*
X2066Y2077D01*
X1Y2076D02*
X8Y2076D01*
X2059Y2076D02*
X2066Y2076D01*
X1Y2075D02*
X8Y2075D01*
X2059Y2075D02*
X2066Y2075D01*
X1Y2074D02*
X8Y2074D01*
X2059Y2074D02*
X2066Y2074D01*
X1Y2073D02*
X8Y2073D01*
X2059Y2073D02*
X2066Y2073D01*
X1Y2072D02*
X8Y2072D01*
X2059Y2072D02*
X2066Y2072D01*
X1Y2071D02*
X8Y2071D01*
X2059Y2071D02*
X2066Y2071D01*
X1Y2070D02*
X8Y2070D01*
X2059Y2070D02*
X2066Y2070D01*
X1Y2069D02*
X8Y2069D01*
X2059Y2069D02*
X2066Y2069D01*
X1Y2068D02*
X8Y2068D01*
X2059Y2068D02*
X2066Y2068D01*
X1Y2067D02*
X8Y2067D01*
X2059Y2067D02*
X2066Y2067D01*
X1Y2066D02*
X8Y2066D01*
X2059Y2066D02*
X2066Y2066D01*
X1Y2065D02*
X8Y2065D01*
X2059Y2065D02*
X2066Y2065D01*
X1Y2064D02*
X8Y2064D01*
X2059Y2064D02*
X2066Y2064D01*
X1Y2063D02*
X8Y2063D01*
X2059Y2063D02*
X2066Y2063D01*
X1Y2062D02*
X8Y2062D01*
X2059Y2062D02*
X2066Y2062D01*
X1Y2061D02*
X8Y2061D01*
X2059Y2061D02*
X2066Y2061D01*
X1Y2060D02*
X8Y2060D01*
X2059Y2060D02*
X2066Y2060D01*
X1Y2059D02*
X8Y2059D01*
X2059Y2059D02*
X2066Y2059D01*
X1Y2058D02*
X8Y2058D01*
X2059Y2058D02*
X2066Y2058D01*
X1Y2057D02*
X8Y2057D01*
X2059Y2057D02*
X2066Y2057D01*
X1Y2056D02*
X8Y2056D01*
X2059Y2056D02*
X2066Y2056D01*
X1Y2055D02*
X8Y2055D01*
X2059Y2055D02*
X2066Y2055D01*
X1Y2054D02*
X8Y2054D01*
X2059Y2054D02*
X2066Y2054D01*
X1Y2053D02*
X8Y2053D01*
X2059Y2053D02*
X2066Y2053D01*
X1Y2052D02*
X8Y2052D01*
X2059Y2052D02*
X2066Y2052D01*
X1Y2051D02*
X8Y2051D01*
X2059Y2051D02*
X2066Y2051D01*
X1Y2050D02*
X8Y2050D01*
X2059Y2050D02*
X2066Y2050D01*
X1Y2049D02*
X8Y2049D01*
X2059Y2049D02*
X2066Y2049D01*
X1Y2048D02*
X8Y2048D01*
X2059Y2048D02*
X2066Y2048D01*
X1Y2047D02*
X8Y2047D01*
X2059Y2047D02*
X2066Y2047D01*
X1Y2046D02*
X8Y2046D01*
X2059Y2046D02*
X2066Y2046D01*
X1Y2045D02*
X8Y2045D01*
X2059Y2045D02*
X2066Y2045D01*
X1Y2044D02*
X8Y2044D01*
X2059Y2044D02*
X2066Y2044D01*
X1Y2043D02*
X8Y2043D01*
X2059Y2043D02*
X2066Y2043D01*
X1Y2042D02*
X8Y2042D01*
X2059Y2042D02*
X2066Y2042D01*
X1Y2041D02*
X8Y2041D01*
X2059Y2041D02*
X2066Y2041D01*
X1Y2040D02*
X8Y2040D01*
X2059Y2040D02*
X2066Y2040D01*
X1Y2039D02*
X8Y2039D01*
X2059Y2039D02*
X2066Y2039D01*
X1Y2038D02*
X8Y2038D01*
X2059Y2038D02*
X2066Y2038D01*
X1Y2037D02*
X8Y2037D01*
X2059Y2037D02*
X2066Y2037D01*
X1Y2036D02*
X8Y2036D01*
X2059Y2036D02*
X2066Y2036D01*
X1Y2035D02*
X8Y2035D01*
X2059Y2035D02*
X2066Y2035D01*
X1Y2034D02*
X8Y2034D01*
X2059Y2034D02*
X2066Y2034D01*
X1Y2033D02*
X8Y2033D01*
X2059Y2033D02*
X2066Y2033D01*
X1Y2032D02*
X8Y2032D01*
X2059Y2032D02*
X2066Y2032D01*
X1Y2031D02*
X8Y2031D01*
X2059Y2031D02*
X2066Y2031D01*
X1Y2030D02*
X8Y2030D01*
X2059Y2030D02*
X2066Y2030D01*
X1Y2029D02*
X8Y2029D01*
X2059Y2029D02*
X2066Y2029D01*
X1Y2028D02*
X8Y2028D01*
X2059Y2028D02*
X2066Y2028D01*
X1Y2027D02*
X8Y2027D01*
X2059Y2027D02*
X2066Y2027D01*
X1Y2026D02*
X8Y2026D01*
X2059Y2026D02*
X2066Y2026D01*
X1Y2025D02*
X8Y2025D01*
X2059Y2025D02*
X2066Y2025D01*
X1Y2024D02*
X8Y2024D01*
X2059Y2024D02*
X2066Y2024D01*
X1Y2023D02*
X8Y2023D01*
X2059Y2023D02*
X2066Y2023D01*
X1Y2022D02*
X8Y2022D01*
X2059Y2022D02*
X2066Y2022D01*
X1Y2021D02*
X8Y2021D01*
X2059Y2021D02*
X2066Y2021D01*
X1Y2020D02*
X8Y2020D01*
X2059Y2020D02*
X2066Y2020D01*
X1Y2019D02*
X8Y2019D01*
X2059Y2019D02*
X2066Y2019D01*
X1Y2018D02*
X8Y2018D01*
X2059Y2018D02*
X2066Y2018D01*
X1Y2017D02*
X8Y2017D01*
X2059Y2017D02*
X2066Y2017D01*
X1Y2016D02*
X8Y2016D01*
X2059Y2016D02*
X2066Y2016D01*
X1Y2015D02*
X8Y2015D01*
X2059Y2015D02*
X2066Y2015D01*
X1Y2014D02*
X8Y2014D01*
X2059Y2014D02*
X2066Y2014D01*
X1Y2013D02*
X8Y2013D01*
X2059Y2013D02*
X2066Y2013D01*
X1Y2012D02*
X8Y2012D01*
X2059Y2012D02*
X2066Y2012D01*
X1Y2011D02*
X8Y2011D01*
X2059Y2011D02*
X2066Y2011D01*
X1Y2010D02*
X8Y2010D01*
X2059Y2010D02*
X2066Y2010D01*
X1Y2009D02*
X8Y2009D01*
X2059Y2009D02*
X2066Y2009D01*
X1Y2008D02*
X8Y2008D01*
X2059Y2008D02*
X2066Y2008D01*
X1Y2007D02*
X8Y2007D01*
X2059Y2007D02*
X2066Y2007D01*
X1Y2006D02*
X8Y2006D01*
X2059Y2006D02*
X2066Y2006D01*
X1Y2005D02*
X8Y2005D01*
X2059Y2005D02*
X2066Y2005D01*
X1Y2004D02*
X8Y2004D01*
X2059Y2004D02*
X2066Y2004D01*
X1Y2003D02*
X8Y2003D01*
X2059Y2003D02*
X2066Y2003D01*
X1Y2002D02*
X8Y2002D01*
X2059Y2002D02*
X2066Y2002D01*
X1Y2001D02*
X8Y2001D01*
X2059Y2001D02*
X2066Y2001D01*
X1Y2000D02*
X8Y2000D01*
X2059Y2000D02*
X2066Y2000D01*
X1Y1999D02*
X8Y1999D01*
X2059Y1999D02*
X2066Y1999D01*
X1Y1998D02*
X8Y1998D01*
X2059Y1998D02*
X2066Y1998D01*
X1Y1997D02*
X8Y1997D01*
X2059Y1997D02*
X2066Y1997D01*
X1Y1996D02*
X8Y1996D01*
X2059Y1996D02*
X2066Y1996D01*
X1Y1995D02*
X8Y1995D01*
X2059Y1995D02*
X2066Y1995D01*
X1Y1994D02*
X8Y1994D01*
X2059Y1994D02*
X2066Y1994D01*
X1Y1993D02*
X8Y1993D01*
X2059Y1993D02*
X2066Y1993D01*
X1Y1992D02*
X8Y1992D01*
X2059Y1992D02*
X2066Y1992D01*
X1Y1991D02*
X8Y1991D01*
X2059Y1991D02*
X2066Y1991D01*
X1Y1990D02*
X8Y1990D01*
X2059Y1990D02*
X2066Y1990D01*
X1Y1989D02*
X8Y1989D01*
X2059Y1989D02*
X2066Y1989D01*
X1Y1988D02*
X8Y1988D01*
X2059Y1988D02*
X2066Y1988D01*
X1Y1987D02*
X8Y1987D01*
X2059Y1987D02*
X2066Y1987D01*
X1Y1986D02*
X8Y1986D01*
X2059Y1986D02*
X2066Y1986D01*
X1Y1985D02*
X8Y1985D01*
X2059Y1985D02*
X2066Y1985D01*
X1Y1984D02*
X8Y1984D01*
X2059Y1984D02*
X2066Y1984D01*
X1Y1983D02*
X8Y1983D01*
X2059Y1983D02*
X2066Y1983D01*
X1Y1982D02*
X8Y1982D01*
X2059Y1982D02*
X2066Y1982D01*
X1Y1981D02*
X8Y1981D01*
X2059Y1981D02*
X2066Y1981D01*
X1Y1980D02*
X8Y1980D01*
X2059Y1980D02*
X2066Y1980D01*
X1Y1979D02*
X8Y1979D01*
X2059Y1979D02*
X2066Y1979D01*
X1Y1978D02*
X8Y1978D01*
X2059Y1978D02*
X2066Y1978D01*
X1Y1977D02*
X8Y1977D01*
X2059Y1977D02*
X2066Y1977D01*
X1Y1976D02*
X8Y1976D01*
X2059Y1976D02*
X2066Y1976D01*
X1Y1975D02*
X8Y1975D01*
X2059Y1975D02*
X2066Y1975D01*
X1Y1974D02*
X8Y1974D01*
X2059Y1974D02*
X2066Y1974D01*
X1Y1973D02*
X8Y1973D01*
X2059Y1973D02*
X2066Y1973D01*
X1Y1972D02*
X8Y1972D01*
X2059Y1972D02*
X2066Y1972D01*
X1Y1971D02*
X8Y1971D01*
X2059Y1971D02*
X2066Y1971D01*
X1Y1970D02*
X8Y1970D01*
X2059Y1970D02*
X2066Y1970D01*
X1Y1969D02*
X8Y1969D01*
X2059Y1969D02*
X2066Y1969D01*
X1Y1968D02*
X8Y1968D01*
X2059Y1968D02*
X2066Y1968D01*
X1Y1967D02*
X8Y1967D01*
X2059Y1967D02*
X2066Y1967D01*
X1Y1966D02*
X8Y1966D01*
X2059Y1966D02*
X2066Y1966D01*
X1Y1965D02*
X8Y1965D01*
X2059Y1965D02*
X2066Y1965D01*
X1Y1964D02*
X8Y1964D01*
X2059Y1964D02*
X2066Y1964D01*
X1Y1963D02*
X8Y1963D01*
X2059Y1963D02*
X2066Y1963D01*
X1Y1962D02*
X8Y1962D01*
X2059Y1962D02*
X2066Y1962D01*
X1Y1961D02*
X8Y1961D01*
X2059Y1961D02*
X2066Y1961D01*
X1Y1960D02*
X8Y1960D01*
X2059Y1960D02*
X2066Y1960D01*
X1Y1959D02*
X8Y1959D01*
X2059Y1959D02*
X2066Y1959D01*
X1Y1958D02*
X8Y1958D01*
X2059Y1958D02*
X2066Y1958D01*
X1Y1957D02*
X8Y1957D01*
X2059Y1957D02*
X2066Y1957D01*
X1Y1956D02*
X8Y1956D01*
X2059Y1956D02*
X2066Y1956D01*
X1Y1955D02*
X8Y1955D01*
X2059Y1955D02*
X2066Y1955D01*
X1Y1954D02*
X8Y1954D01*
X2059Y1954D02*
X2066Y1954D01*
X1Y1953D02*
X8Y1953D01*
X2059Y1953D02*
X2066Y1953D01*
X1Y1952D02*
X8Y1952D01*
X2059Y1952D02*
X2066Y1952D01*
X1Y1951D02*
X8Y1951D01*
X2059Y1951D02*
X2066Y1951D01*
X1Y1950D02*
X8Y1950D01*
X2059Y1950D02*
X2066Y1950D01*
X1Y1949D02*
X8Y1949D01*
X2059Y1949D02*
X2066Y1949D01*
X1Y1948D02*
X8Y1948D01*
X2059Y1948D02*
X2066Y1948D01*
X1Y1947D02*
X8Y1947D01*
X2059Y1947D02*
X2066Y1947D01*
X1Y1946D02*
X8Y1946D01*
X2059Y1946D02*
X2066Y1946D01*
X1Y1945D02*
X8Y1945D01*
X2059Y1945D02*
X2066Y1945D01*
X1Y1944D02*
X8Y1944D01*
X2059Y1944D02*
X2066Y1944D01*
X1Y1943D02*
X8Y1943D01*
X2059Y1943D02*
X2066Y1943D01*
X1Y1942D02*
X8Y1942D01*
X2059Y1942D02*
X2066Y1942D01*
X1Y1941D02*
X8Y1941D01*
X2059Y1941D02*
X2066Y1941D01*
X1Y1940D02*
X8Y1940D01*
X2059Y1940D02*
X2066Y1940D01*
X1Y1939D02*
X8Y1939D01*
X2059Y1939D02*
X2066Y1939D01*
X1Y1938D02*
X8Y1938D01*
X2059Y1938D02*
X2066Y1938D01*
X1Y1937D02*
X8Y1937D01*
X2059Y1937D02*
X2066Y1937D01*
X1Y1936D02*
X8Y1936D01*
X2059Y1936D02*
X2066Y1936D01*
X1Y1935D02*
X8Y1935D01*
X2059Y1935D02*
X2066Y1935D01*
X1Y1934D02*
X8Y1934D01*
X2059Y1934D02*
X2066Y1934D01*
X1Y1933D02*
X8Y1933D01*
X2059Y1933D02*
X2066Y1933D01*
X1Y1932D02*
X8Y1932D01*
X2059Y1932D02*
X2066Y1932D01*
X1Y1931D02*
X8Y1931D01*
X2059Y1931D02*
X2066Y1931D01*
X1Y1930D02*
X8Y1930D01*
X2059Y1930D02*
X2066Y1930D01*
X1Y1929D02*
X8Y1929D01*
X2059Y1929D02*
X2066Y1929D01*
X1Y1928D02*
X8Y1928D01*
X2059Y1928D02*
X2066Y1928D01*
X1Y1927D02*
X8Y1927D01*
X2059Y1927D02*
X2066Y1927D01*
X1Y1926D02*
X8Y1926D01*
X2059Y1926D02*
X2066Y1926D01*
X1Y1925D02*
X8Y1925D01*
X2059Y1925D02*
X2066Y1925D01*
X1Y1924D02*
X8Y1924D01*
X2059Y1924D02*
X2066Y1924D01*
X1Y1923D02*
X8Y1923D01*
X2059Y1923D02*
X2066Y1923D01*
X1Y1922D02*
X8Y1922D01*
X2059Y1922D02*
X2066Y1922D01*
X1Y1921D02*
X8Y1921D01*
X2059Y1921D02*
X2066Y1921D01*
X1Y1920D02*
X8Y1920D01*
X2059Y1920D02*
X2066Y1920D01*
X1Y1919D02*
X8Y1919D01*
X2059Y1919D02*
X2066Y1919D01*
X1Y1918D02*
X8Y1918D01*
X2059Y1918D02*
X2066Y1918D01*
X1Y1917D02*
X8Y1917D01*
X2059Y1917D02*
X2066Y1917D01*
X1Y1916D02*
X8Y1916D01*
X2059Y1916D02*
X2066Y1916D01*
X1Y1915D02*
X8Y1915D01*
X2059Y1915D02*
X2066Y1915D01*
X1Y1914D02*
X8Y1914D01*
X2059Y1914D02*
X2066Y1914D01*
X1Y1913D02*
X8Y1913D01*
X2059Y1913D02*
X2066Y1913D01*
X1Y1912D02*
X8Y1912D01*
X2059Y1912D02*
X2066Y1912D01*
X1Y1911D02*
X8Y1911D01*
X2059Y1911D02*
X2066Y1911D01*
X1Y1910D02*
X8Y1910D01*
X2059Y1910D02*
X2066Y1910D01*
X1Y1909D02*
X8Y1909D01*
X2059Y1909D02*
X2066Y1909D01*
X1Y1908D02*
X8Y1908D01*
X2059Y1908D02*
X2066Y1908D01*
X1Y1907D02*
X8Y1907D01*
X2059Y1907D02*
X2066Y1907D01*
X1Y1906D02*
X8Y1906D01*
X2059Y1906D02*
X2066Y1906D01*
X1Y1905D02*
X8Y1905D01*
X2059Y1905D02*
X2066Y1905D01*
X1Y1904D02*
X8Y1904D01*
X2059Y1904D02*
X2066Y1904D01*
X1Y1903D02*
X8Y1903D01*
X2059Y1903D02*
X2066Y1903D01*
X1Y1902D02*
X8Y1902D01*
X2059Y1902D02*
X2066Y1902D01*
X1Y1901D02*
X8Y1901D01*
X2059Y1901D02*
X2066Y1901D01*
X1Y1900D02*
X8Y1900D01*
X2059Y1900D02*
X2066Y1900D01*
X1Y1899D02*
X8Y1899D01*
X2059Y1899D02*
X2066Y1899D01*
X1Y1898D02*
X8Y1898D01*
X2059Y1898D02*
X2066Y1898D01*
X1Y1897D02*
X8Y1897D01*
X2059Y1897D02*
X2066Y1897D01*
X1Y1896D02*
X8Y1896D01*
X2059Y1896D02*
X2066Y1896D01*
X1Y1895D02*
X8Y1895D01*
X2059Y1895D02*
X2066Y1895D01*
X1Y1894D02*
X8Y1894D01*
X2059Y1894D02*
X2066Y1894D01*
X1Y1893D02*
X8Y1893D01*
X2059Y1893D02*
X2066Y1893D01*
X1Y1892D02*
X8Y1892D01*
X2059Y1892D02*
X2066Y1892D01*
X1Y1891D02*
X8Y1891D01*
X2059Y1891D02*
X2066Y1891D01*
X1Y1890D02*
X8Y1890D01*
X2059Y1890D02*
X2066Y1890D01*
X1Y1889D02*
X8Y1889D01*
X2059Y1889D02*
X2066Y1889D01*
X1Y1888D02*
X8Y1888D01*
X2059Y1888D02*
X2066Y1888D01*
X1Y1887D02*
X8Y1887D01*
X2059Y1887D02*
X2066Y1887D01*
X1Y1886D02*
X8Y1886D01*
X2059Y1886D02*
X2066Y1886D01*
X1Y1885D02*
X8Y1885D01*
X2059Y1885D02*
X2066Y1885D01*
X1Y1884D02*
X8Y1884D01*
X2059Y1884D02*
X2066Y1884D01*
X1Y1883D02*
X8Y1883D01*
X2059Y1883D02*
X2066Y1883D01*
X1Y1882D02*
X8Y1882D01*
X2059Y1882D02*
X2066Y1882D01*
X1Y1881D02*
X8Y1881D01*
X2059Y1881D02*
X2066Y1881D01*
X1Y1880D02*
X8Y1880D01*
X2059Y1880D02*
X2066Y1880D01*
X1Y1879D02*
X8Y1879D01*
X2059Y1879D02*
X2066Y1879D01*
X1Y1878D02*
X8Y1878D01*
X2059Y1878D02*
X2066Y1878D01*
X1Y1877D02*
X8Y1877D01*
X2059Y1877D02*
X2066Y1877D01*
X1Y1876D02*
X8Y1876D01*
X2059Y1876D02*
X2066Y1876D01*
X1Y1875D02*
X8Y1875D01*
X2059Y1875D02*
X2066Y1875D01*
X1Y1874D02*
X8Y1874D01*
X2059Y1874D02*
X2066Y1874D01*
X1Y1873D02*
X8Y1873D01*
X2059Y1873D02*
X2066Y1873D01*
X1Y1872D02*
X8Y1872D01*
X2059Y1872D02*
X2066Y1872D01*
X1Y1871D02*
X8Y1871D01*
X2059Y1871D02*
X2066Y1871D01*
X1Y1870D02*
X8Y1870D01*
X2059Y1870D02*
X2066Y1870D01*
X1Y1869D02*
X8Y1869D01*
X2059Y1869D02*
X2066Y1869D01*
X1Y1868D02*
X8Y1868D01*
X2059Y1868D02*
X2066Y1868D01*
X1Y1867D02*
X8Y1867D01*
X2059Y1867D02*
X2066Y1867D01*
X1Y1866D02*
X8Y1866D01*
X2059Y1866D02*
X2066Y1866D01*
X1Y1865D02*
X8Y1865D01*
X2059Y1865D02*
X2066Y1865D01*
X1Y1864D02*
X8Y1864D01*
X2059Y1864D02*
X2066Y1864D01*
X1Y1863D02*
X8Y1863D01*
X2059Y1863D02*
X2066Y1863D01*
X1Y1862D02*
X8Y1862D01*
X2059Y1862D02*
X2066Y1862D01*
X1Y1861D02*
X8Y1861D01*
X2059Y1861D02*
X2066Y1861D01*
X1Y1860D02*
X8Y1860D01*
X2059Y1860D02*
X2066Y1860D01*
X1Y1859D02*
X8Y1859D01*
X2059Y1859D02*
X2066Y1859D01*
X1Y1858D02*
X8Y1858D01*
X2059Y1858D02*
X2066Y1858D01*
X1Y1857D02*
X8Y1857D01*
X2059Y1857D02*
X2066Y1857D01*
X1Y1856D02*
X8Y1856D01*
X2059Y1856D02*
X2066Y1856D01*
X1Y1855D02*
X8Y1855D01*
X2059Y1855D02*
X2066Y1855D01*
X1Y1854D02*
X8Y1854D01*
X2059Y1854D02*
X2066Y1854D01*
X1Y1853D02*
X8Y1853D01*
X2059Y1853D02*
X2066Y1853D01*
X1Y1852D02*
X8Y1852D01*
X2059Y1852D02*
X2066Y1852D01*
X1Y1851D02*
X8Y1851D01*
X2059Y1851D02*
X2066Y1851D01*
X1Y1850D02*
X8Y1850D01*
X2059Y1850D02*
X2066Y1850D01*
X1Y1849D02*
X8Y1849D01*
X2059Y1849D02*
X2066Y1849D01*
X1Y1848D02*
X8Y1848D01*
X2059Y1848D02*
X2066Y1848D01*
X1Y1847D02*
X8Y1847D01*
X2059Y1847D02*
X2066Y1847D01*
X1Y1846D02*
X8Y1846D01*
X2059Y1846D02*
X2066Y1846D01*
X1Y1845D02*
X8Y1845D01*
X2059Y1845D02*
X2066Y1845D01*
X1Y1844D02*
X8Y1844D01*
X2059Y1844D02*
X2066Y1844D01*
X1Y1843D02*
X8Y1843D01*
X2059Y1843D02*
X2066Y1843D01*
X1Y1842D02*
X8Y1842D01*
X2059Y1842D02*
X2066Y1842D01*
X1Y1841D02*
X8Y1841D01*
X2059Y1841D02*
X2066Y1841D01*
X1Y1840D02*
X8Y1840D01*
X2059Y1840D02*
X2066Y1840D01*
X1Y1839D02*
X8Y1839D01*
X2059Y1839D02*
X2066Y1839D01*
X1Y1838D02*
X8Y1838D01*
X2059Y1838D02*
X2066Y1838D01*
X1Y1837D02*
X8Y1837D01*
X2059Y1837D02*
X2066Y1837D01*
X1Y1836D02*
X8Y1836D01*
X2059Y1836D02*
X2066Y1836D01*
X1Y1835D02*
X8Y1835D01*
X2059Y1835D02*
X2066Y1835D01*
X1Y1834D02*
X8Y1834D01*
X2059Y1834D02*
X2066Y1834D01*
X1Y1833D02*
X8Y1833D01*
X2059Y1833D02*
X2066Y1833D01*
X1Y1832D02*
X8Y1832D01*
X2059Y1832D02*
X2066Y1832D01*
X1Y1831D02*
X8Y1831D01*
X2059Y1831D02*
X2066Y1831D01*
X1Y1830D02*
X8Y1830D01*
X2059Y1830D02*
X2066Y1830D01*
X1Y1829D02*
X8Y1829D01*
X2059Y1829D02*
X2066Y1829D01*
X1Y1828D02*
X8Y1828D01*
X2059Y1828D02*
X2066Y1828D01*
X1Y1827D02*
X8Y1827D01*
X2059Y1827D02*
X2066Y1827D01*
X1Y1826D02*
X8Y1826D01*
X2059Y1826D02*
X2066Y1826D01*
X1Y1825D02*
X8Y1825D01*
X2059Y1825D02*
X2066Y1825D01*
X1Y1824D02*
X8Y1824D01*
X2059Y1824D02*
X2066Y1824D01*
X1Y1823D02*
X8Y1823D01*
X2059Y1823D02*
X2066Y1823D01*
X1Y1822D02*
X8Y1822D01*
X2059Y1822D02*
X2066Y1822D01*
X1Y1821D02*
X8Y1821D01*
X2059Y1821D02*
X2066Y1821D01*
X1Y1820D02*
X8Y1820D01*
X2059Y1820D02*
X2066Y1820D01*
X1Y1819D02*
X8Y1819D01*
X2059Y1819D02*
X2066Y1819D01*
X1Y1818D02*
X8Y1818D01*
X2059Y1818D02*
X2066Y1818D01*
X1Y1817D02*
X8Y1817D01*
X2059Y1817D02*
X2066Y1817D01*
X1Y1816D02*
X8Y1816D01*
X2059Y1816D02*
X2066Y1816D01*
X1Y1815D02*
X8Y1815D01*
X2059Y1815D02*
X2066Y1815D01*
X1Y1814D02*
X8Y1814D01*
X2059Y1814D02*
X2066Y1814D01*
X1Y1813D02*
X8Y1813D01*
X2059Y1813D02*
X2066Y1813D01*
X1Y1812D02*
X8Y1812D01*
X2059Y1812D02*
X2066Y1812D01*
X1Y1811D02*
X8Y1811D01*
X2059Y1811D02*
X2066Y1811D01*
X1Y1810D02*
X8Y1810D01*
X2059Y1810D02*
X2066Y1810D01*
X1Y1809D02*
X8Y1809D01*
X2059Y1809D02*
X2066Y1809D01*
X1Y1808D02*
X8Y1808D01*
X2059Y1808D02*
X2066Y1808D01*
X1Y1807D02*
X8Y1807D01*
X2059Y1807D02*
X2066Y1807D01*
X1Y1806D02*
X8Y1806D01*
X2059Y1806D02*
X2066Y1806D01*
X1Y1805D02*
X8Y1805D01*
X2059Y1805D02*
X2066Y1805D01*
X1Y1804D02*
X8Y1804D01*
X2059Y1804D02*
X2066Y1804D01*
X1Y1803D02*
X8Y1803D01*
X2059Y1803D02*
X2066Y1803D01*
X1Y1802D02*
X8Y1802D01*
X2059Y1802D02*
X2066Y1802D01*
X1Y1801D02*
X8Y1801D01*
X2059Y1801D02*
X2066Y1801D01*
X1Y1800D02*
X8Y1800D01*
X2059Y1800D02*
X2066Y1800D01*
X1Y1799D02*
X8Y1799D01*
X2059Y1799D02*
X2066Y1799D01*
X1Y1798D02*
X8Y1798D01*
X2059Y1798D02*
X2066Y1798D01*
X1Y1797D02*
X8Y1797D01*
X2059Y1797D02*
X2066Y1797D01*
X1Y1796D02*
X8Y1796D01*
X2059Y1796D02*
X2066Y1796D01*
X1Y1795D02*
X8Y1795D01*
X2059Y1795D02*
X2066Y1795D01*
X1Y1794D02*
X8Y1794D01*
X2059Y1794D02*
X2066Y1794D01*
X1Y1793D02*
X8Y1793D01*
X2059Y1793D02*
X2066Y1793D01*
X1Y1792D02*
X8Y1792D01*
X2059Y1792D02*
X2066Y1792D01*
X1Y1791D02*
X8Y1791D01*
X2059Y1791D02*
X2066Y1791D01*
X1Y1790D02*
X8Y1790D01*
X2059Y1790D02*
X2066Y1790D01*
X1Y1789D02*
X8Y1789D01*
X2059Y1789D02*
X2066Y1789D01*
X1Y1788D02*
X8Y1788D01*
X2059Y1788D02*
X2066Y1788D01*
X1Y1787D02*
X8Y1787D01*
X2059Y1787D02*
X2066Y1787D01*
X1Y1786D02*
X8Y1786D01*
X2059Y1786D02*
X2066Y1786D01*
X1Y1785D02*
X8Y1785D01*
X2059Y1785D02*
X2066Y1785D01*
X1Y1784D02*
X8Y1784D01*
X2059Y1784D02*
X2066Y1784D01*
X1Y1783D02*
X8Y1783D01*
X2059Y1783D02*
X2066Y1783D01*
X1Y1782D02*
X8Y1782D01*
X2059Y1782D02*
X2066Y1782D01*
X1Y1781D02*
X8Y1781D01*
X2059Y1781D02*
X2066Y1781D01*
X1Y1780D02*
X8Y1780D01*
X2059Y1780D02*
X2066Y1780D01*
X1Y1779D02*
X8Y1779D01*
X2059Y1779D02*
X2066Y1779D01*
X1Y1778D02*
X8Y1778D01*
X2059Y1778D02*
X2066Y1778D01*
X1Y1777D02*
X8Y1777D01*
X2059Y1777D02*
X2066Y1777D01*
X1Y1776D02*
X8Y1776D01*
X2059Y1776D02*
X2066Y1776D01*
X1Y1775D02*
X8Y1775D01*
X2059Y1775D02*
X2066Y1775D01*
X1Y1774D02*
X8Y1774D01*
X2059Y1774D02*
X2066Y1774D01*
X1Y1773D02*
X8Y1773D01*
X2059Y1773D02*
X2066Y1773D01*
X1Y1772D02*
X8Y1772D01*
X2059Y1772D02*
X2066Y1772D01*
X1Y1771D02*
X8Y1771D01*
X2059Y1771D02*
X2066Y1771D01*
X1Y1770D02*
X8Y1770D01*
X2059Y1770D02*
X2066Y1770D01*
X1Y1769D02*
X8Y1769D01*
X2059Y1769D02*
X2066Y1769D01*
X1Y1768D02*
X8Y1768D01*
X2059Y1768D02*
X2066Y1768D01*
X1Y1767D02*
X8Y1767D01*
X2059Y1767D02*
X2066Y1767D01*
X1Y1766D02*
X8Y1766D01*
X2059Y1766D02*
X2066Y1766D01*
X1Y1765D02*
X8Y1765D01*
X2059Y1765D02*
X2066Y1765D01*
X1Y1764D02*
X8Y1764D01*
X2059Y1764D02*
X2066Y1764D01*
X1Y1763D02*
X8Y1763D01*
X2059Y1763D02*
X2066Y1763D01*
X1Y1762D02*
X8Y1762D01*
X2059Y1762D02*
X2066Y1762D01*
X1Y1761D02*
X8Y1761D01*
X2059Y1761D02*
X2066Y1761D01*
X1Y1760D02*
X8Y1760D01*
X2059Y1760D02*
X2066Y1760D01*
X1Y1759D02*
X8Y1759D01*
X2059Y1759D02*
X2066Y1759D01*
X1Y1758D02*
X8Y1758D01*
X2059Y1758D02*
X2066Y1758D01*
X1Y1757D02*
X8Y1757D01*
X2059Y1757D02*
X2066Y1757D01*
X1Y1756D02*
X8Y1756D01*
X2059Y1756D02*
X2066Y1756D01*
X1Y1755D02*
X8Y1755D01*
X2059Y1755D02*
X2066Y1755D01*
X1Y1754D02*
X8Y1754D01*
X2059Y1754D02*
X2066Y1754D01*
X1Y1753D02*
X8Y1753D01*
X2059Y1753D02*
X2066Y1753D01*
X1Y1752D02*
X8Y1752D01*
X2059Y1752D02*
X2066Y1752D01*
X1Y1751D02*
X8Y1751D01*
X2059Y1751D02*
X2066Y1751D01*
X1Y1750D02*
X8Y1750D01*
X2059Y1750D02*
X2066Y1750D01*
X1Y1749D02*
X8Y1749D01*
X2059Y1749D02*
X2066Y1749D01*
X1Y1748D02*
X8Y1748D01*
X2059Y1748D02*
X2066Y1748D01*
X1Y1747D02*
X8Y1747D01*
X2059Y1747D02*
X2066Y1747D01*
X1Y1746D02*
X8Y1746D01*
X2059Y1746D02*
X2066Y1746D01*
X1Y1745D02*
X8Y1745D01*
X2059Y1745D02*
X2066Y1745D01*
X1Y1744D02*
X8Y1744D01*
X2059Y1744D02*
X2066Y1744D01*
X1Y1743D02*
X8Y1743D01*
X2059Y1743D02*
X2066Y1743D01*
X1Y1742D02*
X8Y1742D01*
X2059Y1742D02*
X2066Y1742D01*
X1Y1741D02*
X8Y1741D01*
X2059Y1741D02*
X2066Y1741D01*
X1Y1740D02*
X8Y1740D01*
X2059Y1740D02*
X2066Y1740D01*
X1Y1739D02*
X8Y1739D01*
X2059Y1739D02*
X2066Y1739D01*
X1Y1738D02*
X8Y1738D01*
X2059Y1738D02*
X2066Y1738D01*
X1Y1737D02*
X8Y1737D01*
X2059Y1737D02*
X2066Y1737D01*
X1Y1736D02*
X8Y1736D01*
X2059Y1736D02*
X2066Y1736D01*
X1Y1735D02*
X8Y1735D01*
X2059Y1735D02*
X2066Y1735D01*
X1Y1734D02*
X8Y1734D01*
X2059Y1734D02*
X2066Y1734D01*
X1Y1733D02*
X8Y1733D01*
X2059Y1733D02*
X2066Y1733D01*
X1Y1732D02*
X8Y1732D01*
X2059Y1732D02*
X2066Y1732D01*
X1Y1731D02*
X8Y1731D01*
X2059Y1731D02*
X2066Y1731D01*
X1Y1730D02*
X8Y1730D01*
X2059Y1730D02*
X2066Y1730D01*
X1Y1729D02*
X8Y1729D01*
X2059Y1729D02*
X2066Y1729D01*
X1Y1728D02*
X8Y1728D01*
X2059Y1728D02*
X2066Y1728D01*
X1Y1727D02*
X8Y1727D01*
X2059Y1727D02*
X2066Y1727D01*
X1Y1726D02*
X8Y1726D01*
X2059Y1726D02*
X2066Y1726D01*
X1Y1725D02*
X8Y1725D01*
X2059Y1725D02*
X2066Y1725D01*
X1Y1724D02*
X8Y1724D01*
X2059Y1724D02*
X2066Y1724D01*
X1Y1723D02*
X8Y1723D01*
X2059Y1723D02*
X2066Y1723D01*
X1Y1722D02*
X8Y1722D01*
X2059Y1722D02*
X2066Y1722D01*
X1Y1721D02*
X8Y1721D01*
X2059Y1721D02*
X2066Y1721D01*
X1Y1720D02*
X8Y1720D01*
X2059Y1720D02*
X2066Y1720D01*
X1Y1719D02*
X8Y1719D01*
X2059Y1719D02*
X2066Y1719D01*
X1Y1718D02*
X8Y1718D01*
X2059Y1718D02*
X2066Y1718D01*
X1Y1717D02*
X8Y1717D01*
X2059Y1717D02*
X2066Y1717D01*
X1Y1716D02*
X8Y1716D01*
X2059Y1716D02*
X2066Y1716D01*
X1Y1715D02*
X8Y1715D01*
X2059Y1715D02*
X2066Y1715D01*
X1Y1714D02*
X8Y1714D01*
X2059Y1714D02*
X2066Y1714D01*
X1Y1713D02*
X8Y1713D01*
X2059Y1713D02*
X2066Y1713D01*
X1Y1712D02*
X8Y1712D01*
X2059Y1712D02*
X2066Y1712D01*
X1Y1711D02*
X8Y1711D01*
X2059Y1711D02*
X2066Y1711D01*
X1Y1710D02*
X8Y1710D01*
X2059Y1710D02*
X2066Y1710D01*
X1Y1709D02*
X8Y1709D01*
X2059Y1709D02*
X2066Y1709D01*
X1Y1708D02*
X8Y1708D01*
X2059Y1708D02*
X2066Y1708D01*
X1Y1707D02*
X8Y1707D01*
X2059Y1707D02*
X2066Y1707D01*
X1Y1706D02*
X8Y1706D01*
X2059Y1706D02*
X2066Y1706D01*
X1Y1705D02*
X8Y1705D01*
X2059Y1705D02*
X2066Y1705D01*
X1Y1704D02*
X8Y1704D01*
X2059Y1704D02*
X2066Y1704D01*
X1Y1703D02*
X8Y1703D01*
X2059Y1703D02*
X2066Y1703D01*
X1Y1702D02*
X8Y1702D01*
X2059Y1702D02*
X2066Y1702D01*
X1Y1701D02*
X8Y1701D01*
X2059Y1701D02*
X2066Y1701D01*
X1Y1700D02*
X8Y1700D01*
X2059Y1700D02*
X2066Y1700D01*
X1Y1699D02*
X8Y1699D01*
X2059Y1699D02*
X2066Y1699D01*
X1Y1698D02*
X8Y1698D01*
X2059Y1698D02*
X2066Y1698D01*
X1Y1697D02*
X8Y1697D01*
X2059Y1697D02*
X2066Y1697D01*
X1Y1696D02*
X8Y1696D01*
X2059Y1696D02*
X2066Y1696D01*
X1Y1695D02*
X8Y1695D01*
X2059Y1695D02*
X2066Y1695D01*
X1Y1694D02*
X8Y1694D01*
X2059Y1694D02*
X2066Y1694D01*
X1Y1693D02*
X8Y1693D01*
X2059Y1693D02*
X2066Y1693D01*
X1Y1692D02*
X8Y1692D01*
X2059Y1692D02*
X2066Y1692D01*
X1Y1691D02*
X8Y1691D01*
X2059Y1691D02*
X2066Y1691D01*
X1Y1690D02*
X8Y1690D01*
X2059Y1690D02*
X2066Y1690D01*
X1Y1689D02*
X8Y1689D01*
X2059Y1689D02*
X2066Y1689D01*
X1Y1688D02*
X8Y1688D01*
X2059Y1688D02*
X2066Y1688D01*
X1Y1687D02*
X8Y1687D01*
X2059Y1687D02*
X2066Y1687D01*
X1Y1686D02*
X8Y1686D01*
X2059Y1686D02*
X2066Y1686D01*
X1Y1685D02*
X8Y1685D01*
X2059Y1685D02*
X2066Y1685D01*
X1Y1684D02*
X8Y1684D01*
X2059Y1684D02*
X2066Y1684D01*
X1Y1683D02*
X8Y1683D01*
X2059Y1683D02*
X2066Y1683D01*
X1Y1682D02*
X8Y1682D01*
X2059Y1682D02*
X2066Y1682D01*
X1Y1681D02*
X8Y1681D01*
X2059Y1681D02*
X2066Y1681D01*
X1Y1680D02*
X8Y1680D01*
X2059Y1680D02*
X2066Y1680D01*
X1Y1679D02*
X8Y1679D01*
X2059Y1679D02*
X2066Y1679D01*
X1Y1678D02*
X8Y1678D01*
X2059Y1678D02*
X2066Y1678D01*
X1Y1677D02*
X8Y1677D01*
X2059Y1677D02*
X2066Y1677D01*
X1Y1676D02*
X8Y1676D01*
X2059Y1676D02*
X2066Y1676D01*
X1Y1675D02*
X8Y1675D01*
X2059Y1675D02*
X2066Y1675D01*
X1Y1674D02*
X8Y1674D01*
X2059Y1674D02*
X2066Y1674D01*
X1Y1673D02*
X8Y1673D01*
X2059Y1673D02*
X2066Y1673D01*
X1Y1672D02*
X8Y1672D01*
X2059Y1672D02*
X2066Y1672D01*
X1Y1671D02*
X8Y1671D01*
X2059Y1671D02*
X2066Y1671D01*
X1Y1670D02*
X8Y1670D01*
X2059Y1670D02*
X2066Y1670D01*
X1Y1669D02*
X8Y1669D01*
X2059Y1669D02*
X2066Y1669D01*
X1Y1668D02*
X8Y1668D01*
X2059Y1668D02*
X2066Y1668D01*
X1Y1667D02*
X8Y1667D01*
X2059Y1667D02*
X2066Y1667D01*
X1Y1666D02*
X8Y1666D01*
X2059Y1666D02*
X2066Y1666D01*
X1Y1665D02*
X8Y1665D01*
X2059Y1665D02*
X2066Y1665D01*
X1Y1664D02*
X8Y1664D01*
X2059Y1664D02*
X2066Y1664D01*
X1Y1663D02*
X8Y1663D01*
X2059Y1663D02*
X2066Y1663D01*
X1Y1662D02*
X8Y1662D01*
X2059Y1662D02*
X2066Y1662D01*
X1Y1661D02*
X8Y1661D01*
X2059Y1661D02*
X2066Y1661D01*
X1Y1660D02*
X8Y1660D01*
X2059Y1660D02*
X2066Y1660D01*
X1Y1659D02*
X8Y1659D01*
X2059Y1659D02*
X2066Y1659D01*
X1Y1658D02*
X8Y1658D01*
X2059Y1658D02*
X2066Y1658D01*
X1Y1657D02*
X8Y1657D01*
X2059Y1657D02*
X2066Y1657D01*
X1Y1656D02*
X8Y1656D01*
X2059Y1656D02*
X2066Y1656D01*
X1Y1655D02*
X8Y1655D01*
X2059Y1655D02*
X2066Y1655D01*
X1Y1654D02*
X8Y1654D01*
X2059Y1654D02*
X2066Y1654D01*
X1Y1653D02*
X8Y1653D01*
X2059Y1653D02*
X2066Y1653D01*
X1Y1652D02*
X8Y1652D01*
X2059Y1652D02*
X2066Y1652D01*
X1Y1651D02*
X8Y1651D01*
X2059Y1651D02*
X2066Y1651D01*
X1Y1650D02*
X8Y1650D01*
X2059Y1650D02*
X2066Y1650D01*
X1Y1649D02*
X8Y1649D01*
X2059Y1649D02*
X2066Y1649D01*
X1Y1648D02*
X8Y1648D01*
X2059Y1648D02*
X2066Y1648D01*
X1Y1647D02*
X8Y1647D01*
X2059Y1647D02*
X2066Y1647D01*
X1Y1646D02*
X8Y1646D01*
X2059Y1646D02*
X2066Y1646D01*
X1Y1645D02*
X8Y1645D01*
X2059Y1645D02*
X2066Y1645D01*
X1Y1644D02*
X8Y1644D01*
X2059Y1644D02*
X2066Y1644D01*
X1Y1643D02*
X8Y1643D01*
X2059Y1643D02*
X2066Y1643D01*
X1Y1642D02*
X8Y1642D01*
X2059Y1642D02*
X2066Y1642D01*
X1Y1641D02*
X8Y1641D01*
X2059Y1641D02*
X2066Y1641D01*
X1Y1640D02*
X8Y1640D01*
X2059Y1640D02*
X2066Y1640D01*
X1Y1639D02*
X8Y1639D01*
X2059Y1639D02*
X2066Y1639D01*
X1Y1638D02*
X8Y1638D01*
X2059Y1638D02*
X2066Y1638D01*
X1Y1637D02*
X8Y1637D01*
X2059Y1637D02*
X2066Y1637D01*
X1Y1636D02*
X8Y1636D01*
X2059Y1636D02*
X2066Y1636D01*
X1Y1635D02*
X8Y1635D01*
X2059Y1635D02*
X2066Y1635D01*
X1Y1634D02*
X8Y1634D01*
X2059Y1634D02*
X2066Y1634D01*
X1Y1633D02*
X8Y1633D01*
X2059Y1633D02*
X2066Y1633D01*
X1Y1632D02*
X8Y1632D01*
X2059Y1632D02*
X2066Y1632D01*
X1Y1631D02*
X8Y1631D01*
X2059Y1631D02*
X2066Y1631D01*
X1Y1630D02*
X8Y1630D01*
X2059Y1630D02*
X2066Y1630D01*
X1Y1629D02*
X8Y1629D01*
X2059Y1629D02*
X2066Y1629D01*
X1Y1628D02*
X8Y1628D01*
X2059Y1628D02*
X2066Y1628D01*
X1Y1627D02*
X8Y1627D01*
X2059Y1627D02*
X2066Y1627D01*
X1Y1626D02*
X8Y1626D01*
X2059Y1626D02*
X2066Y1626D01*
X1Y1625D02*
X8Y1625D01*
X2059Y1625D02*
X2066Y1625D01*
X1Y1624D02*
X8Y1624D01*
X2059Y1624D02*
X2066Y1624D01*
X1Y1623D02*
X8Y1623D01*
X2059Y1623D02*
X2066Y1623D01*
X1Y1622D02*
X8Y1622D01*
X2059Y1622D02*
X2066Y1622D01*
X1Y1621D02*
X8Y1621D01*
X2059Y1621D02*
X2066Y1621D01*
X1Y1620D02*
X8Y1620D01*
X2059Y1620D02*
X2066Y1620D01*
X1Y1619D02*
X8Y1619D01*
X2059Y1619D02*
X2066Y1619D01*
X1Y1618D02*
X8Y1618D01*
X2059Y1618D02*
X2066Y1618D01*
X1Y1617D02*
X8Y1617D01*
X2059Y1617D02*
X2066Y1617D01*
X1Y1616D02*
X8Y1616D01*
X2059Y1616D02*
X2066Y1616D01*
X1Y1615D02*
X8Y1615D01*
X2059Y1615D02*
X2066Y1615D01*
X1Y1614D02*
X8Y1614D01*
X2059Y1614D02*
X2066Y1614D01*
X1Y1613D02*
X8Y1613D01*
X2059Y1613D02*
X2066Y1613D01*
X1Y1612D02*
X8Y1612D01*
X2059Y1612D02*
X2066Y1612D01*
X1Y1611D02*
X8Y1611D01*
X2059Y1611D02*
X2066Y1611D01*
X1Y1610D02*
X8Y1610D01*
X2059Y1610D02*
X2066Y1610D01*
X1Y1609D02*
X8Y1609D01*
X2059Y1609D02*
X2066Y1609D01*
X1Y1608D02*
X8Y1608D01*
X2059Y1608D02*
X2066Y1608D01*
X1Y1607D02*
X8Y1607D01*
X2059Y1607D02*
X2066Y1607D01*
X1Y1606D02*
X8Y1606D01*
X2059Y1606D02*
X2066Y1606D01*
X1Y1605D02*
X8Y1605D01*
X2059Y1605D02*
X2066Y1605D01*
X1Y1604D02*
X8Y1604D01*
X2059Y1604D02*
X2066Y1604D01*
X1Y1603D02*
X8Y1603D01*
X2059Y1603D02*
X2066Y1603D01*
X1Y1602D02*
X8Y1602D01*
X2059Y1602D02*
X2066Y1602D01*
X1Y1601D02*
X8Y1601D01*
X2059Y1601D02*
X2066Y1601D01*
X1Y1600D02*
X8Y1600D01*
X2059Y1600D02*
X2066Y1600D01*
X1Y1599D02*
X8Y1599D01*
X2059Y1599D02*
X2066Y1599D01*
X1Y1598D02*
X8Y1598D01*
X2059Y1598D02*
X2066Y1598D01*
X1Y1597D02*
X8Y1597D01*
X2059Y1597D02*
X2066Y1597D01*
X1Y1596D02*
X8Y1596D01*
X2059Y1596D02*
X2066Y1596D01*
X1Y1595D02*
X8Y1595D01*
X2059Y1595D02*
X2066Y1595D01*
X1Y1594D02*
X8Y1594D01*
X2059Y1594D02*
X2066Y1594D01*
X1Y1593D02*
X8Y1593D01*
X2059Y1593D02*
X2066Y1593D01*
X1Y1592D02*
X8Y1592D01*
X2059Y1592D02*
X2066Y1592D01*
X1Y1591D02*
X8Y1591D01*
X2059Y1591D02*
X2066Y1591D01*
X1Y1590D02*
X8Y1590D01*
X2059Y1590D02*
X2066Y1590D01*
X1Y1589D02*
X8Y1589D01*
X2059Y1589D02*
X2066Y1589D01*
X1Y1588D02*
X8Y1588D01*
X2059Y1588D02*
X2066Y1588D01*
X1Y1587D02*
X8Y1587D01*
X2059Y1587D02*
X2066Y1587D01*
X1Y1586D02*
X8Y1586D01*
X2059Y1586D02*
X2066Y1586D01*
X1Y1585D02*
X8Y1585D01*
X2059Y1585D02*
X2066Y1585D01*
X1Y1584D02*
X8Y1584D01*
X2059Y1584D02*
X2066Y1584D01*
X1Y1583D02*
X8Y1583D01*
X2059Y1583D02*
X2066Y1583D01*
X1Y1582D02*
X8Y1582D01*
X2059Y1582D02*
X2066Y1582D01*
X1Y1581D02*
X8Y1581D01*
X2059Y1581D02*
X2066Y1581D01*
X1Y1580D02*
X8Y1580D01*
X2059Y1580D02*
X2066Y1580D01*
X1Y1579D02*
X8Y1579D01*
X2059Y1579D02*
X2066Y1579D01*
X1Y1578D02*
X8Y1578D01*
X2059Y1578D02*
X2066Y1578D01*
X1Y1577D02*
X8Y1577D01*
X2059Y1577D02*
X2066Y1577D01*
X1Y1576D02*
X8Y1576D01*
X2059Y1576D02*
X2066Y1576D01*
X1Y1575D02*
X8Y1575D01*
X2059Y1575D02*
X2066Y1575D01*
X1Y1574D02*
X8Y1574D01*
X2059Y1574D02*
X2066Y1574D01*
X1Y1573D02*
X8Y1573D01*
X2059Y1573D02*
X2066Y1573D01*
X1Y1572D02*
X8Y1572D01*
X2059Y1572D02*
X2066Y1572D01*
X1Y1571D02*
X8Y1571D01*
X2059Y1571D02*
X2066Y1571D01*
X1Y1570D02*
X8Y1570D01*
X2059Y1570D02*
X2066Y1570D01*
X1Y1569D02*
X8Y1569D01*
X2059Y1569D02*
X2066Y1569D01*
X1Y1568D02*
X8Y1568D01*
X2059Y1568D02*
X2066Y1568D01*
X1Y1567D02*
X8Y1567D01*
X2059Y1567D02*
X2066Y1567D01*
X1Y1566D02*
X8Y1566D01*
X2059Y1566D02*
X2066Y1566D01*
X1Y1565D02*
X8Y1565D01*
X2059Y1565D02*
X2066Y1565D01*
X1Y1564D02*
X8Y1564D01*
X2059Y1564D02*
X2066Y1564D01*
X1Y1563D02*
X8Y1563D01*
X2059Y1563D02*
X2066Y1563D01*
X1Y1562D02*
X8Y1562D01*
X2059Y1562D02*
X2066Y1562D01*
X1Y1561D02*
X8Y1561D01*
X2059Y1561D02*
X2066Y1561D01*
X1Y1560D02*
X8Y1560D01*
X2059Y1560D02*
X2066Y1560D01*
X1Y1559D02*
X8Y1559D01*
X2059Y1559D02*
X2066Y1559D01*
X1Y1558D02*
X8Y1558D01*
X2059Y1558D02*
X2066Y1558D01*
X1Y1557D02*
X8Y1557D01*
X2059Y1557D02*
X2066Y1557D01*
X1Y1556D02*
X8Y1556D01*
X2059Y1556D02*
X2066Y1556D01*
X1Y1555D02*
X8Y1555D01*
X2059Y1555D02*
X2066Y1555D01*
X1Y1554D02*
X8Y1554D01*
X2059Y1554D02*
X2066Y1554D01*
X1Y1553D02*
X8Y1553D01*
X2059Y1553D02*
X2066Y1553D01*
X1Y1552D02*
X8Y1552D01*
X2059Y1552D02*
X2066Y1552D01*
X1Y1551D02*
X8Y1551D01*
X2059Y1551D02*
X2066Y1551D01*
X1Y1550D02*
X8Y1550D01*
X2059Y1550D02*
X2066Y1550D01*
X1Y1549D02*
X8Y1549D01*
X2059Y1549D02*
X2066Y1549D01*
X1Y1548D02*
X8Y1548D01*
X2059Y1548D02*
X2066Y1548D01*
X1Y1547D02*
X8Y1547D01*
X2059Y1547D02*
X2066Y1547D01*
X1Y1546D02*
X8Y1546D01*
X2059Y1546D02*
X2066Y1546D01*
X1Y1545D02*
X8Y1545D01*
X2059Y1545D02*
X2066Y1545D01*
X1Y1544D02*
X8Y1544D01*
X2059Y1544D02*
X2066Y1544D01*
X1Y1543D02*
X8Y1543D01*
X2059Y1543D02*
X2066Y1543D01*
X1Y1542D02*
X8Y1542D01*
X2059Y1542D02*
X2066Y1542D01*
X1Y1541D02*
X8Y1541D01*
X2059Y1541D02*
X2066Y1541D01*
X1Y1540D02*
X8Y1540D01*
X2059Y1540D02*
X2066Y1540D01*
X1Y1539D02*
X8Y1539D01*
X2059Y1539D02*
X2066Y1539D01*
X1Y1538D02*
X8Y1538D01*
X2059Y1538D02*
X2066Y1538D01*
X1Y1537D02*
X8Y1537D01*
X2059Y1537D02*
X2066Y1537D01*
X1Y1536D02*
X8Y1536D01*
X2059Y1536D02*
X2066Y1536D01*
X1Y1535D02*
X8Y1535D01*
X2059Y1535D02*
X2066Y1535D01*
X1Y1534D02*
X8Y1534D01*
X2059Y1534D02*
X2066Y1534D01*
X1Y1533D02*
X8Y1533D01*
X2059Y1533D02*
X2066Y1533D01*
X1Y1532D02*
X8Y1532D01*
X2059Y1532D02*
X2066Y1532D01*
X1Y1531D02*
X8Y1531D01*
X2059Y1531D02*
X2066Y1531D01*
X1Y1530D02*
X8Y1530D01*
X2059Y1530D02*
X2066Y1530D01*
X1Y1529D02*
X8Y1529D01*
X2059Y1529D02*
X2066Y1529D01*
X1Y1528D02*
X8Y1528D01*
X2059Y1528D02*
X2066Y1528D01*
X1Y1527D02*
X8Y1527D01*
X2059Y1527D02*
X2066Y1527D01*
X1Y1526D02*
X8Y1526D01*
X2059Y1526D02*
X2066Y1526D01*
X1Y1525D02*
X8Y1525D01*
X2059Y1525D02*
X2066Y1525D01*
X1Y1524D02*
X8Y1524D01*
X2059Y1524D02*
X2066Y1524D01*
X1Y1523D02*
X8Y1523D01*
X2059Y1523D02*
X2066Y1523D01*
X1Y1522D02*
X8Y1522D01*
X2059Y1522D02*
X2066Y1522D01*
X1Y1521D02*
X8Y1521D01*
X2059Y1521D02*
X2066Y1521D01*
X1Y1520D02*
X8Y1520D01*
X2059Y1520D02*
X2066Y1520D01*
X1Y1519D02*
X8Y1519D01*
X2059Y1519D02*
X2066Y1519D01*
X1Y1518D02*
X8Y1518D01*
X2059Y1518D02*
X2066Y1518D01*
X1Y1517D02*
X8Y1517D01*
X2059Y1517D02*
X2066Y1517D01*
X1Y1516D02*
X8Y1516D01*
X2059Y1516D02*
X2066Y1516D01*
X1Y1515D02*
X8Y1515D01*
X2059Y1515D02*
X2066Y1515D01*
X1Y1514D02*
X8Y1514D01*
X2059Y1514D02*
X2066Y1514D01*
X1Y1513D02*
X8Y1513D01*
X2059Y1513D02*
X2066Y1513D01*
X1Y1512D02*
X8Y1512D01*
X2059Y1512D02*
X2066Y1512D01*
X1Y1511D02*
X8Y1511D01*
X2059Y1511D02*
X2066Y1511D01*
X1Y1510D02*
X8Y1510D01*
X2059Y1510D02*
X2066Y1510D01*
X1Y1509D02*
X8Y1509D01*
X2059Y1509D02*
X2066Y1509D01*
X1Y1508D02*
X8Y1508D01*
X2059Y1508D02*
X2066Y1508D01*
X1Y1507D02*
X8Y1507D01*
X2059Y1507D02*
X2066Y1507D01*
X1Y1506D02*
X8Y1506D01*
X2059Y1506D02*
X2066Y1506D01*
X1Y1505D02*
X8Y1505D01*
X2059Y1505D02*
X2066Y1505D01*
X1Y1504D02*
X8Y1504D01*
X2059Y1504D02*
X2066Y1504D01*
X1Y1503D02*
X8Y1503D01*
X2059Y1503D02*
X2066Y1503D01*
X1Y1502D02*
X8Y1502D01*
X2059Y1502D02*
X2066Y1502D01*
X1Y1501D02*
X8Y1501D01*
X2059Y1501D02*
X2066Y1501D01*
X1Y1500D02*
X8Y1500D01*
X2059Y1500D02*
X2066Y1500D01*
X1Y1499D02*
X8Y1499D01*
X2059Y1499D02*
X2066Y1499D01*
X1Y1498D02*
X8Y1498D01*
X2059Y1498D02*
X2066Y1498D01*
X1Y1497D02*
X8Y1497D01*
X2059Y1497D02*
X2066Y1497D01*
X1Y1496D02*
X8Y1496D01*
X2059Y1496D02*
X2066Y1496D01*
X1Y1495D02*
X8Y1495D01*
X2059Y1495D02*
X2066Y1495D01*
X1Y1494D02*
X8Y1494D01*
X2059Y1494D02*
X2066Y1494D01*
X1Y1493D02*
X8Y1493D01*
X2059Y1493D02*
X2066Y1493D01*
X1Y1492D02*
X8Y1492D01*
X2059Y1492D02*
X2066Y1492D01*
X1Y1491D02*
X8Y1491D01*
X2059Y1491D02*
X2066Y1491D01*
X1Y1490D02*
X8Y1490D01*
X2059Y1490D02*
X2066Y1490D01*
X1Y1489D02*
X8Y1489D01*
X2059Y1489D02*
X2066Y1489D01*
X1Y1488D02*
X8Y1488D01*
X2059Y1488D02*
X2066Y1488D01*
X1Y1487D02*
X8Y1487D01*
X2059Y1487D02*
X2066Y1487D01*
X1Y1486D02*
X8Y1486D01*
X2059Y1486D02*
X2066Y1486D01*
X1Y1485D02*
X8Y1485D01*
X2059Y1485D02*
X2066Y1485D01*
X1Y1484D02*
X8Y1484D01*
X2059Y1484D02*
X2066Y1484D01*
X1Y1483D02*
X8Y1483D01*
X2059Y1483D02*
X2066Y1483D01*
X1Y1482D02*
X8Y1482D01*
X2059Y1482D02*
X2066Y1482D01*
X1Y1481D02*
X8Y1481D01*
X2059Y1481D02*
X2066Y1481D01*
X1Y1480D02*
X8Y1480D01*
X2059Y1480D02*
X2066Y1480D01*
X1Y1479D02*
X8Y1479D01*
X2059Y1479D02*
X2066Y1479D01*
X1Y1478D02*
X8Y1478D01*
X2059Y1478D02*
X2066Y1478D01*
X1Y1477D02*
X8Y1477D01*
X2059Y1477D02*
X2066Y1477D01*
X1Y1476D02*
X8Y1476D01*
X2059Y1476D02*
X2066Y1476D01*
X1Y1475D02*
X8Y1475D01*
X2059Y1475D02*
X2066Y1475D01*
X1Y1474D02*
X8Y1474D01*
X2059Y1474D02*
X2066Y1474D01*
X1Y1473D02*
X8Y1473D01*
X2059Y1473D02*
X2066Y1473D01*
X1Y1472D02*
X8Y1472D01*
X2059Y1472D02*
X2066Y1472D01*
X1Y1471D02*
X8Y1471D01*
X2059Y1471D02*
X2066Y1471D01*
X1Y1470D02*
X8Y1470D01*
X2059Y1470D02*
X2066Y1470D01*
X1Y1469D02*
X8Y1469D01*
X2059Y1469D02*
X2066Y1469D01*
X1Y1468D02*
X8Y1468D01*
X2059Y1468D02*
X2066Y1468D01*
X1Y1467D02*
X8Y1467D01*
X2059Y1467D02*
X2066Y1467D01*
X1Y1466D02*
X8Y1466D01*
X2059Y1466D02*
X2066Y1466D01*
X1Y1465D02*
X8Y1465D01*
X2059Y1465D02*
X2066Y1465D01*
X1Y1464D02*
X8Y1464D01*
X2059Y1464D02*
X2066Y1464D01*
X1Y1463D02*
X8Y1463D01*
X2059Y1463D02*
X2066Y1463D01*
X1Y1462D02*
X8Y1462D01*
X2059Y1462D02*
X2066Y1462D01*
X1Y1461D02*
X8Y1461D01*
X2059Y1461D02*
X2066Y1461D01*
X1Y1460D02*
X8Y1460D01*
X2059Y1460D02*
X2066Y1460D01*
X1Y1459D02*
X8Y1459D01*
X2059Y1459D02*
X2066Y1459D01*
X1Y1458D02*
X8Y1458D01*
X2059Y1458D02*
X2066Y1458D01*
X1Y1457D02*
X8Y1457D01*
X2059Y1457D02*
X2066Y1457D01*
X1Y1456D02*
X8Y1456D01*
X2059Y1456D02*
X2066Y1456D01*
X1Y1455D02*
X8Y1455D01*
X2059Y1455D02*
X2066Y1455D01*
X1Y1454D02*
X8Y1454D01*
X2059Y1454D02*
X2066Y1454D01*
X1Y1453D02*
X8Y1453D01*
X2059Y1453D02*
X2066Y1453D01*
X1Y1452D02*
X8Y1452D01*
X2059Y1452D02*
X2066Y1452D01*
X1Y1451D02*
X8Y1451D01*
X2059Y1451D02*
X2066Y1451D01*
X1Y1450D02*
X8Y1450D01*
X2059Y1450D02*
X2066Y1450D01*
X1Y1449D02*
X8Y1449D01*
X2059Y1449D02*
X2066Y1449D01*
X1Y1448D02*
X8Y1448D01*
X2059Y1448D02*
X2066Y1448D01*
X1Y1447D02*
X8Y1447D01*
X2059Y1447D02*
X2066Y1447D01*
X1Y1446D02*
X8Y1446D01*
X2059Y1446D02*
X2066Y1446D01*
X1Y1445D02*
X8Y1445D01*
X2059Y1445D02*
X2066Y1445D01*
X1Y1444D02*
X8Y1444D01*
X2059Y1444D02*
X2066Y1444D01*
X1Y1443D02*
X8Y1443D01*
X2059Y1443D02*
X2066Y1443D01*
X1Y1442D02*
X8Y1442D01*
X2059Y1442D02*
X2066Y1442D01*
X1Y1441D02*
X8Y1441D01*
X2059Y1441D02*
X2066Y1441D01*
X1Y1440D02*
X8Y1440D01*
X2059Y1440D02*
X2066Y1440D01*
X1Y1439D02*
X8Y1439D01*
X2059Y1439D02*
X2066Y1439D01*
X1Y1438D02*
X8Y1438D01*
X2059Y1438D02*
X2066Y1438D01*
X1Y1437D02*
X8Y1437D01*
X2059Y1437D02*
X2066Y1437D01*
X1Y1436D02*
X8Y1436D01*
X2059Y1436D02*
X2066Y1436D01*
X1Y1435D02*
X8Y1435D01*
X2059Y1435D02*
X2066Y1435D01*
X1Y1434D02*
X8Y1434D01*
X2059Y1434D02*
X2066Y1434D01*
X1Y1433D02*
X8Y1433D01*
X2059Y1433D02*
X2066Y1433D01*
X1Y1432D02*
X8Y1432D01*
X2059Y1432D02*
X2066Y1432D01*
X1Y1431D02*
X8Y1431D01*
X2059Y1431D02*
X2066Y1431D01*
X1Y1430D02*
X8Y1430D01*
X2059Y1430D02*
X2066Y1430D01*
X1Y1429D02*
X8Y1429D01*
X2059Y1429D02*
X2066Y1429D01*
X1Y1428D02*
X8Y1428D01*
X2059Y1428D02*
X2066Y1428D01*
X1Y1427D02*
X8Y1427D01*
X2059Y1427D02*
X2066Y1427D01*
X1Y1426D02*
X8Y1426D01*
X2059Y1426D02*
X2066Y1426D01*
X1Y1425D02*
X8Y1425D01*
X2059Y1425D02*
X2066Y1425D01*
X1Y1424D02*
X8Y1424D01*
X2059Y1424D02*
X2066Y1424D01*
X1Y1423D02*
X8Y1423D01*
X2059Y1423D02*
X2066Y1423D01*
X1Y1422D02*
X8Y1422D01*
X2059Y1422D02*
X2066Y1422D01*
X1Y1421D02*
X8Y1421D01*
X2059Y1421D02*
X2066Y1421D01*
X1Y1420D02*
X8Y1420D01*
X2059Y1420D02*
X2066Y1420D01*
X1Y1419D02*
X8Y1419D01*
X2059Y1419D02*
X2066Y1419D01*
X1Y1418D02*
X8Y1418D01*
X2059Y1418D02*
X2066Y1418D01*
X1Y1417D02*
X8Y1417D01*
X2059Y1417D02*
X2066Y1417D01*
X1Y1416D02*
X8Y1416D01*
X2059Y1416D02*
X2066Y1416D01*
X1Y1415D02*
X8Y1415D01*
X2059Y1415D02*
X2066Y1415D01*
X1Y1414D02*
X8Y1414D01*
X2059Y1414D02*
X2066Y1414D01*
X1Y1413D02*
X8Y1413D01*
X2059Y1413D02*
X2066Y1413D01*
X1Y1412D02*
X8Y1412D01*
X2059Y1412D02*
X2066Y1412D01*
X1Y1411D02*
X8Y1411D01*
X2059Y1411D02*
X2066Y1411D01*
X1Y1410D02*
X8Y1410D01*
X2059Y1410D02*
X2066Y1410D01*
X1Y1409D02*
X8Y1409D01*
X2059Y1409D02*
X2066Y1409D01*
X1Y1408D02*
X8Y1408D01*
X2059Y1408D02*
X2066Y1408D01*
X1Y1407D02*
X8Y1407D01*
X2059Y1407D02*
X2066Y1407D01*
X1Y1406D02*
X8Y1406D01*
X2059Y1406D02*
X2066Y1406D01*
X1Y1405D02*
X8Y1405D01*
X2059Y1405D02*
X2066Y1405D01*
X1Y1404D02*
X8Y1404D01*
X2059Y1404D02*
X2066Y1404D01*
X1Y1403D02*
X8Y1403D01*
X2059Y1403D02*
X2066Y1403D01*
X1Y1402D02*
X8Y1402D01*
X2059Y1402D02*
X2066Y1402D01*
X1Y1401D02*
X8Y1401D01*
X2059Y1401D02*
X2066Y1401D01*
X1Y1400D02*
X8Y1400D01*
X2059Y1400D02*
X2066Y1400D01*
X1Y1399D02*
X8Y1399D01*
X2059Y1399D02*
X2066Y1399D01*
X1Y1398D02*
X8Y1398D01*
X2059Y1398D02*
X2066Y1398D01*
X1Y1397D02*
X8Y1397D01*
X2059Y1397D02*
X2066Y1397D01*
X1Y1396D02*
X8Y1396D01*
X2059Y1396D02*
X2066Y1396D01*
X1Y1395D02*
X8Y1395D01*
X2059Y1395D02*
X2066Y1395D01*
X1Y1394D02*
X8Y1394D01*
X2059Y1394D02*
X2066Y1394D01*
X1Y1393D02*
X8Y1393D01*
X2059Y1393D02*
X2066Y1393D01*
X1Y1392D02*
X8Y1392D01*
X2059Y1392D02*
X2066Y1392D01*
X1Y1391D02*
X8Y1391D01*
X2059Y1391D02*
X2066Y1391D01*
X1Y1390D02*
X8Y1390D01*
X2059Y1390D02*
X2066Y1390D01*
X1Y1389D02*
X8Y1389D01*
X2059Y1389D02*
X2066Y1389D01*
X1Y1388D02*
X8Y1388D01*
X2059Y1388D02*
X2066Y1388D01*
X1Y1387D02*
X8Y1387D01*
X2059Y1387D02*
X2066Y1387D01*
X1Y1386D02*
X8Y1386D01*
X2059Y1386D02*
X2066Y1386D01*
X1Y1385D02*
X8Y1385D01*
X2059Y1385D02*
X2066Y1385D01*
X1Y1384D02*
X8Y1384D01*
X2059Y1384D02*
X2066Y1384D01*
X1Y1383D02*
X8Y1383D01*
X2059Y1383D02*
X2066Y1383D01*
X1Y1382D02*
X8Y1382D01*
X2059Y1382D02*
X2066Y1382D01*
X1Y1381D02*
X8Y1381D01*
X2059Y1381D02*
X2066Y1381D01*
X1Y1380D02*
X8Y1380D01*
X2059Y1380D02*
X2066Y1380D01*
X1Y1379D02*
X8Y1379D01*
X2059Y1379D02*
X2066Y1379D01*
X1Y1378D02*
X8Y1378D01*
X2059Y1378D02*
X2066Y1378D01*
X1Y1377D02*
X8Y1377D01*
X2059Y1377D02*
X2066Y1377D01*
X1Y1376D02*
X8Y1376D01*
X2059Y1376D02*
X2066Y1376D01*
X1Y1375D02*
X8Y1375D01*
X2059Y1375D02*
X2066Y1375D01*
X1Y1374D02*
X8Y1374D01*
X2059Y1374D02*
X2066Y1374D01*
X1Y1373D02*
X8Y1373D01*
X2059Y1373D02*
X2066Y1373D01*
X1Y1372D02*
X8Y1372D01*
X2059Y1372D02*
X2066Y1372D01*
X1Y1371D02*
X8Y1371D01*
X2059Y1371D02*
X2066Y1371D01*
X1Y1370D02*
X8Y1370D01*
X2059Y1370D02*
X2066Y1370D01*
X1Y1369D02*
X8Y1369D01*
X2059Y1369D02*
X2066Y1369D01*
X1Y1368D02*
X8Y1368D01*
X2059Y1368D02*
X2066Y1368D01*
X1Y1367D02*
X8Y1367D01*
X2059Y1367D02*
X2066Y1367D01*
X1Y1366D02*
X8Y1366D01*
X2059Y1366D02*
X2066Y1366D01*
X1Y1365D02*
X8Y1365D01*
X2059Y1365D02*
X2066Y1365D01*
X1Y1364D02*
X8Y1364D01*
X2059Y1364D02*
X2066Y1364D01*
X1Y1363D02*
X8Y1363D01*
X2059Y1363D02*
X2066Y1363D01*
X1Y1362D02*
X8Y1362D01*
X2059Y1362D02*
X2066Y1362D01*
X1Y1361D02*
X8Y1361D01*
X2059Y1361D02*
X2066Y1361D01*
X1Y1360D02*
X8Y1360D01*
X2059Y1360D02*
X2066Y1360D01*
X1Y1359D02*
X8Y1359D01*
X2059Y1359D02*
X2066Y1359D01*
X1Y1358D02*
X8Y1358D01*
X2059Y1358D02*
X2066Y1358D01*
X1Y1357D02*
X8Y1357D01*
X2059Y1357D02*
X2066Y1357D01*
X1Y1356D02*
X8Y1356D01*
X2059Y1356D02*
X2066Y1356D01*
X1Y1355D02*
X8Y1355D01*
X2059Y1355D02*
X2066Y1355D01*
X1Y1354D02*
X8Y1354D01*
X2059Y1354D02*
X2066Y1354D01*
X1Y1353D02*
X8Y1353D01*
X2059Y1353D02*
X2066Y1353D01*
X1Y1352D02*
X8Y1352D01*
X2059Y1352D02*
X2066Y1352D01*
X1Y1351D02*
X8Y1351D01*
X2059Y1351D02*
X2066Y1351D01*
X1Y1350D02*
X8Y1350D01*
X2059Y1350D02*
X2066Y1350D01*
X1Y1349D02*
X8Y1349D01*
X2059Y1349D02*
X2066Y1349D01*
X1Y1348D02*
X8Y1348D01*
X2059Y1348D02*
X2066Y1348D01*
X1Y1347D02*
X8Y1347D01*
X2059Y1347D02*
X2066Y1347D01*
X1Y1346D02*
X8Y1346D01*
X2059Y1346D02*
X2066Y1346D01*
X1Y1345D02*
X8Y1345D01*
X2059Y1345D02*
X2066Y1345D01*
X1Y1344D02*
X8Y1344D01*
X2059Y1344D02*
X2066Y1344D01*
X1Y1343D02*
X8Y1343D01*
X2059Y1343D02*
X2066Y1343D01*
X1Y1342D02*
X8Y1342D01*
X2059Y1342D02*
X2066Y1342D01*
X1Y1341D02*
X8Y1341D01*
X2059Y1341D02*
X2066Y1341D01*
X1Y1340D02*
X8Y1340D01*
X2059Y1340D02*
X2066Y1340D01*
X1Y1339D02*
X8Y1339D01*
X2059Y1339D02*
X2066Y1339D01*
X1Y1338D02*
X8Y1338D01*
X2059Y1338D02*
X2066Y1338D01*
X1Y1337D02*
X8Y1337D01*
X2059Y1337D02*
X2066Y1337D01*
X1Y1336D02*
X8Y1336D01*
X2059Y1336D02*
X2066Y1336D01*
X1Y1335D02*
X8Y1335D01*
X2059Y1335D02*
X2066Y1335D01*
X1Y1334D02*
X8Y1334D01*
X2059Y1334D02*
X2066Y1334D01*
X1Y1333D02*
X8Y1333D01*
X2059Y1333D02*
X2066Y1333D01*
X1Y1332D02*
X8Y1332D01*
X2059Y1332D02*
X2066Y1332D01*
X1Y1331D02*
X8Y1331D01*
X2059Y1331D02*
X2066Y1331D01*
X1Y1330D02*
X8Y1330D01*
X2059Y1330D02*
X2066Y1330D01*
X1Y1329D02*
X8Y1329D01*
X2059Y1329D02*
X2066Y1329D01*
X1Y1328D02*
X8Y1328D01*
X2059Y1328D02*
X2066Y1328D01*
X1Y1327D02*
X8Y1327D01*
X2059Y1327D02*
X2066Y1327D01*
X1Y1326D02*
X8Y1326D01*
X2059Y1326D02*
X2066Y1326D01*
X1Y1325D02*
X8Y1325D01*
X2059Y1325D02*
X2066Y1325D01*
X1Y1324D02*
X8Y1324D01*
X2059Y1324D02*
X2066Y1324D01*
X1Y1323D02*
X8Y1323D01*
X2059Y1323D02*
X2066Y1323D01*
X1Y1322D02*
X8Y1322D01*
X2059Y1322D02*
X2066Y1322D01*
X1Y1321D02*
X8Y1321D01*
X2059Y1321D02*
X2066Y1321D01*
X1Y1320D02*
X8Y1320D01*
X2059Y1320D02*
X2066Y1320D01*
X1Y1319D02*
X8Y1319D01*
X2059Y1319D02*
X2066Y1319D01*
X1Y1318D02*
X8Y1318D01*
X2059Y1318D02*
X2066Y1318D01*
X1Y1317D02*
X8Y1317D01*
X2059Y1317D02*
X2066Y1317D01*
X1Y1316D02*
X8Y1316D01*
X2059Y1316D02*
X2066Y1316D01*
X1Y1315D02*
X8Y1315D01*
X2059Y1315D02*
X2066Y1315D01*
X1Y1314D02*
X8Y1314D01*
X2059Y1314D02*
X2066Y1314D01*
X1Y1313D02*
X8Y1313D01*
X2059Y1313D02*
X2066Y1313D01*
X1Y1312D02*
X8Y1312D01*
X2059Y1312D02*
X2066Y1312D01*
X1Y1311D02*
X8Y1311D01*
X2059Y1311D02*
X2066Y1311D01*
X1Y1310D02*
X8Y1310D01*
X2059Y1310D02*
X2066Y1310D01*
X1Y1309D02*
X8Y1309D01*
X2059Y1309D02*
X2066Y1309D01*
X1Y1308D02*
X8Y1308D01*
X2059Y1308D02*
X2066Y1308D01*
X1Y1307D02*
X8Y1307D01*
X2059Y1307D02*
X2066Y1307D01*
X1Y1306D02*
X8Y1306D01*
X2059Y1306D02*
X2066Y1306D01*
X1Y1305D02*
X8Y1305D01*
X2059Y1305D02*
X2066Y1305D01*
X1Y1304D02*
X8Y1304D01*
X2059Y1304D02*
X2066Y1304D01*
X1Y1303D02*
X8Y1303D01*
X2059Y1303D02*
X2066Y1303D01*
X1Y1302D02*
X8Y1302D01*
X2059Y1302D02*
X2066Y1302D01*
X1Y1301D02*
X8Y1301D01*
X2059Y1301D02*
X2066Y1301D01*
X1Y1300D02*
X8Y1300D01*
X2059Y1300D02*
X2066Y1300D01*
X1Y1299D02*
X8Y1299D01*
X2059Y1299D02*
X2066Y1299D01*
X1Y1298D02*
X8Y1298D01*
X2059Y1298D02*
X2066Y1298D01*
X1Y1297D02*
X8Y1297D01*
X2059Y1297D02*
X2066Y1297D01*
X1Y1296D02*
X8Y1296D01*
X2059Y1296D02*
X2066Y1296D01*
X1Y1295D02*
X8Y1295D01*
X2059Y1295D02*
X2066Y1295D01*
X1Y1294D02*
X8Y1294D01*
X2059Y1294D02*
X2066Y1294D01*
X1Y1293D02*
X8Y1293D01*
X2059Y1293D02*
X2066Y1293D01*
X1Y1292D02*
X8Y1292D01*
X2059Y1292D02*
X2066Y1292D01*
X1Y1291D02*
X8Y1291D01*
X2059Y1291D02*
X2066Y1291D01*
X1Y1290D02*
X8Y1290D01*
X2059Y1290D02*
X2066Y1290D01*
X1Y1289D02*
X8Y1289D01*
X2059Y1289D02*
X2066Y1289D01*
X1Y1288D02*
X8Y1288D01*
X2059Y1288D02*
X2066Y1288D01*
X1Y1287D02*
X8Y1287D01*
X2059Y1287D02*
X2066Y1287D01*
X1Y1286D02*
X8Y1286D01*
X2059Y1286D02*
X2066Y1286D01*
X1Y1285D02*
X8Y1285D01*
X2059Y1285D02*
X2066Y1285D01*
X1Y1284D02*
X8Y1284D01*
X2059Y1284D02*
X2066Y1284D01*
X1Y1283D02*
X8Y1283D01*
X2059Y1283D02*
X2066Y1283D01*
X1Y1282D02*
X8Y1282D01*
X2059Y1282D02*
X2066Y1282D01*
X1Y1281D02*
X8Y1281D01*
X2059Y1281D02*
X2066Y1281D01*
X1Y1280D02*
X8Y1280D01*
X2059Y1280D02*
X2066Y1280D01*
X1Y1279D02*
X8Y1279D01*
X2059Y1279D02*
X2066Y1279D01*
X1Y1278D02*
X8Y1278D01*
X2059Y1278D02*
X2066Y1278D01*
X1Y1277D02*
X8Y1277D01*
X2059Y1277D02*
X2066Y1277D01*
X1Y1276D02*
X8Y1276D01*
X2059Y1276D02*
X2066Y1276D01*
X1Y1275D02*
X8Y1275D01*
X2059Y1275D02*
X2066Y1275D01*
X1Y1274D02*
X8Y1274D01*
X2059Y1274D02*
X2066Y1274D01*
X1Y1273D02*
X8Y1273D01*
X2059Y1273D02*
X2066Y1273D01*
X1Y1272D02*
X8Y1272D01*
X2059Y1272D02*
X2066Y1272D01*
X1Y1271D02*
X8Y1271D01*
X2059Y1271D02*
X2066Y1271D01*
X1Y1270D02*
X8Y1270D01*
X2059Y1270D02*
X2066Y1270D01*
X1Y1269D02*
X8Y1269D01*
X2059Y1269D02*
X2066Y1269D01*
X1Y1268D02*
X8Y1268D01*
X2059Y1268D02*
X2066Y1268D01*
X1Y1267D02*
X8Y1267D01*
X2059Y1267D02*
X2066Y1267D01*
X1Y1266D02*
X8Y1266D01*
X2059Y1266D02*
X2066Y1266D01*
X1Y1265D02*
X8Y1265D01*
X2059Y1265D02*
X2066Y1265D01*
X1Y1264D02*
X8Y1264D01*
X2059Y1264D02*
X2066Y1264D01*
X1Y1263D02*
X8Y1263D01*
X2059Y1263D02*
X2066Y1263D01*
X1Y1262D02*
X8Y1262D01*
X2059Y1262D02*
X2066Y1262D01*
X1Y1261D02*
X8Y1261D01*
X2059Y1261D02*
X2066Y1261D01*
X1Y1260D02*
X8Y1260D01*
X2059Y1260D02*
X2066Y1260D01*
X1Y1259D02*
X8Y1259D01*
X2059Y1259D02*
X2066Y1259D01*
X1Y1258D02*
X8Y1258D01*
X2059Y1258D02*
X2066Y1258D01*
X1Y1257D02*
X8Y1257D01*
X2059Y1257D02*
X2066Y1257D01*
X1Y1256D02*
X8Y1256D01*
X2059Y1256D02*
X2066Y1256D01*
X1Y1255D02*
X8Y1255D01*
X2059Y1255D02*
X2066Y1255D01*
X1Y1254D02*
X8Y1254D01*
X2059Y1254D02*
X2066Y1254D01*
X1Y1253D02*
X8Y1253D01*
X2059Y1253D02*
X2066Y1253D01*
X1Y1252D02*
X8Y1252D01*
X2059Y1252D02*
X2066Y1252D01*
X1Y1251D02*
X8Y1251D01*
X2059Y1251D02*
X2066Y1251D01*
X1Y1250D02*
X8Y1250D01*
X2059Y1250D02*
X2066Y1250D01*
X1Y1249D02*
X8Y1249D01*
X2059Y1249D02*
X2066Y1249D01*
X1Y1248D02*
X8Y1248D01*
X2059Y1248D02*
X2066Y1248D01*
X1Y1247D02*
X8Y1247D01*
X2059Y1247D02*
X2066Y1247D01*
X1Y1246D02*
X8Y1246D01*
X2059Y1246D02*
X2066Y1246D01*
X1Y1245D02*
X8Y1245D01*
X2059Y1245D02*
X2066Y1245D01*
X1Y1244D02*
X8Y1244D01*
X2059Y1244D02*
X2066Y1244D01*
X1Y1243D02*
X8Y1243D01*
X2059Y1243D02*
X2066Y1243D01*
X1Y1242D02*
X8Y1242D01*
X2059Y1242D02*
X2066Y1242D01*
X1Y1241D02*
X8Y1241D01*
X2059Y1241D02*
X2066Y1241D01*
X1Y1240D02*
X8Y1240D01*
X2059Y1240D02*
X2066Y1240D01*
X1Y1239D02*
X8Y1239D01*
X2059Y1239D02*
X2066Y1239D01*
X1Y1238D02*
X8Y1238D01*
X2059Y1238D02*
X2066Y1238D01*
X1Y1237D02*
X8Y1237D01*
X2059Y1237D02*
X2066Y1237D01*
X1Y1236D02*
X8Y1236D01*
X2059Y1236D02*
X2066Y1236D01*
X1Y1235D02*
X8Y1235D01*
X2059Y1235D02*
X2066Y1235D01*
X1Y1234D02*
X8Y1234D01*
X2059Y1234D02*
X2066Y1234D01*
X1Y1233D02*
X8Y1233D01*
X2059Y1233D02*
X2066Y1233D01*
X1Y1232D02*
X8Y1232D01*
X2059Y1232D02*
X2066Y1232D01*
X1Y1231D02*
X8Y1231D01*
X2059Y1231D02*
X2066Y1231D01*
X1Y1230D02*
X8Y1230D01*
X2059Y1230D02*
X2066Y1230D01*
X1Y1229D02*
X8Y1229D01*
X2059Y1229D02*
X2066Y1229D01*
X1Y1228D02*
X8Y1228D01*
X2059Y1228D02*
X2066Y1228D01*
X1Y1227D02*
X8Y1227D01*
X2059Y1227D02*
X2066Y1227D01*
X1Y1226D02*
X8Y1226D01*
X2059Y1226D02*
X2066Y1226D01*
X1Y1225D02*
X8Y1225D01*
X2059Y1225D02*
X2066Y1225D01*
X1Y1224D02*
X8Y1224D01*
X2059Y1224D02*
X2066Y1224D01*
X1Y1223D02*
X8Y1223D01*
X2059Y1223D02*
X2066Y1223D01*
X1Y1222D02*
X8Y1222D01*
X2059Y1222D02*
X2066Y1222D01*
X1Y1221D02*
X8Y1221D01*
X2059Y1221D02*
X2066Y1221D01*
X1Y1220D02*
X8Y1220D01*
X2059Y1220D02*
X2066Y1220D01*
X1Y1219D02*
X8Y1219D01*
X2059Y1219D02*
X2066Y1219D01*
X1Y1218D02*
X8Y1218D01*
X2059Y1218D02*
X2066Y1218D01*
X1Y1217D02*
X8Y1217D01*
X2059Y1217D02*
X2066Y1217D01*
X1Y1216D02*
X8Y1216D01*
X2059Y1216D02*
X2066Y1216D01*
X1Y1215D02*
X8Y1215D01*
X2059Y1215D02*
X2066Y1215D01*
X1Y1214D02*
X8Y1214D01*
X2059Y1214D02*
X2066Y1214D01*
X1Y1213D02*
X8Y1213D01*
X2059Y1213D02*
X2066Y1213D01*
X1Y1212D02*
X8Y1212D01*
X2059Y1212D02*
X2066Y1212D01*
X1Y1211D02*
X8Y1211D01*
X2059Y1211D02*
X2066Y1211D01*
X1Y1210D02*
X8Y1210D01*
X2059Y1210D02*
X2066Y1210D01*
X1Y1209D02*
X8Y1209D01*
X2059Y1209D02*
X2066Y1209D01*
X1Y1208D02*
X8Y1208D01*
X2059Y1208D02*
X2066Y1208D01*
X1Y1207D02*
X8Y1207D01*
X2059Y1207D02*
X2066Y1207D01*
X1Y1206D02*
X8Y1206D01*
X2059Y1206D02*
X2066Y1206D01*
X1Y1205D02*
X8Y1205D01*
X2059Y1205D02*
X2066Y1205D01*
X1Y1204D02*
X8Y1204D01*
X2059Y1204D02*
X2066Y1204D01*
X1Y1203D02*
X8Y1203D01*
X2059Y1203D02*
X2066Y1203D01*
X1Y1202D02*
X8Y1202D01*
X2059Y1202D02*
X2066Y1202D01*
X1Y1201D02*
X8Y1201D01*
X2059Y1201D02*
X2066Y1201D01*
X1Y1200D02*
X8Y1200D01*
X2059Y1200D02*
X2066Y1200D01*
X1Y1199D02*
X8Y1199D01*
X2059Y1199D02*
X2066Y1199D01*
X1Y1198D02*
X8Y1198D01*
X2059Y1198D02*
X2066Y1198D01*
X1Y1197D02*
X8Y1197D01*
X2059Y1197D02*
X2066Y1197D01*
X1Y1196D02*
X8Y1196D01*
X2059Y1196D02*
X2066Y1196D01*
X1Y1195D02*
X8Y1195D01*
X2059Y1195D02*
X2066Y1195D01*
X1Y1194D02*
X8Y1194D01*
X2059Y1194D02*
X2066Y1194D01*
X1Y1193D02*
X8Y1193D01*
X2059Y1193D02*
X2066Y1193D01*
X1Y1192D02*
X8Y1192D01*
X2059Y1192D02*
X2066Y1192D01*
X1Y1191D02*
X8Y1191D01*
X2059Y1191D02*
X2066Y1191D01*
X1Y1190D02*
X8Y1190D01*
X2059Y1190D02*
X2066Y1190D01*
X1Y1189D02*
X8Y1189D01*
X2059Y1189D02*
X2066Y1189D01*
X1Y1188D02*
X8Y1188D01*
X2059Y1188D02*
X2066Y1188D01*
X1Y1187D02*
X8Y1187D01*
X2059Y1187D02*
X2066Y1187D01*
X1Y1186D02*
X8Y1186D01*
X2059Y1186D02*
X2066Y1186D01*
X1Y1185D02*
X8Y1185D01*
X2059Y1185D02*
X2066Y1185D01*
X1Y1184D02*
X8Y1184D01*
X2059Y1184D02*
X2066Y1184D01*
X1Y1183D02*
X8Y1183D01*
X2059Y1183D02*
X2066Y1183D01*
X1Y1182D02*
X8Y1182D01*
X2059Y1182D02*
X2066Y1182D01*
X1Y1181D02*
X8Y1181D01*
X2059Y1181D02*
X2066Y1181D01*
X1Y1180D02*
X8Y1180D01*
X2059Y1180D02*
X2066Y1180D01*
X1Y1179D02*
X8Y1179D01*
X2059Y1179D02*
X2066Y1179D01*
X1Y1178D02*
X8Y1178D01*
X2059Y1178D02*
X2066Y1178D01*
X1Y1177D02*
X8Y1177D01*
X2059Y1177D02*
X2066Y1177D01*
X1Y1176D02*
X8Y1176D01*
X2059Y1176D02*
X2066Y1176D01*
X1Y1175D02*
X8Y1175D01*
X2059Y1175D02*
X2066Y1175D01*
X1Y1174D02*
X8Y1174D01*
X2059Y1174D02*
X2066Y1174D01*
X1Y1173D02*
X8Y1173D01*
X2059Y1173D02*
X2066Y1173D01*
X1Y1172D02*
X8Y1172D01*
X2059Y1172D02*
X2066Y1172D01*
X1Y1171D02*
X8Y1171D01*
X2059Y1171D02*
X2066Y1171D01*
X1Y1170D02*
X8Y1170D01*
X2059Y1170D02*
X2066Y1170D01*
X1Y1169D02*
X8Y1169D01*
X2059Y1169D02*
X2066Y1169D01*
X1Y1168D02*
X8Y1168D01*
X2059Y1168D02*
X2066Y1168D01*
X1Y1167D02*
X8Y1167D01*
X2059Y1167D02*
X2066Y1167D01*
X1Y1166D02*
X8Y1166D01*
X2059Y1166D02*
X2066Y1166D01*
X1Y1165D02*
X8Y1165D01*
X2059Y1165D02*
X2066Y1165D01*
X1Y1164D02*
X8Y1164D01*
X2059Y1164D02*
X2066Y1164D01*
X1Y1163D02*
X8Y1163D01*
X2059Y1163D02*
X2066Y1163D01*
X1Y1162D02*
X8Y1162D01*
X2059Y1162D02*
X2066Y1162D01*
X1Y1161D02*
X8Y1161D01*
X2059Y1161D02*
X2066Y1161D01*
X1Y1160D02*
X8Y1160D01*
X2059Y1160D02*
X2066Y1160D01*
X1Y1159D02*
X8Y1159D01*
X2059Y1159D02*
X2066Y1159D01*
X1Y1158D02*
X8Y1158D01*
X2059Y1158D02*
X2066Y1158D01*
X1Y1157D02*
X8Y1157D01*
X2059Y1157D02*
X2066Y1157D01*
X1Y1156D02*
X8Y1156D01*
X2059Y1156D02*
X2066Y1156D01*
X1Y1155D02*
X8Y1155D01*
X2059Y1155D02*
X2066Y1155D01*
X1Y1154D02*
X8Y1154D01*
X2059Y1154D02*
X2066Y1154D01*
X1Y1153D02*
X8Y1153D01*
X2059Y1153D02*
X2066Y1153D01*
X1Y1152D02*
X8Y1152D01*
X2059Y1152D02*
X2066Y1152D01*
X1Y1151D02*
X8Y1151D01*
X2059Y1151D02*
X2066Y1151D01*
X1Y1150D02*
X8Y1150D01*
X2059Y1150D02*
X2066Y1150D01*
X1Y1149D02*
X8Y1149D01*
X2059Y1149D02*
X2066Y1149D01*
X1Y1148D02*
X8Y1148D01*
X2059Y1148D02*
X2066Y1148D01*
X1Y1147D02*
X8Y1147D01*
X2059Y1147D02*
X2066Y1147D01*
X1Y1146D02*
X8Y1146D01*
X2059Y1146D02*
X2066Y1146D01*
X1Y1145D02*
X8Y1145D01*
X2059Y1145D02*
X2066Y1145D01*
X1Y1144D02*
X8Y1144D01*
X2059Y1144D02*
X2066Y1144D01*
X1Y1143D02*
X8Y1143D01*
X2059Y1143D02*
X2066Y1143D01*
X1Y1142D02*
X8Y1142D01*
X2059Y1142D02*
X2066Y1142D01*
X1Y1141D02*
X8Y1141D01*
X2059Y1141D02*
X2066Y1141D01*
X1Y1140D02*
X8Y1140D01*
X2059Y1140D02*
X2066Y1140D01*
X1Y1139D02*
X8Y1139D01*
X2059Y1139D02*
X2066Y1139D01*
X1Y1138D02*
X8Y1138D01*
X2059Y1138D02*
X2066Y1138D01*
X1Y1137D02*
X8Y1137D01*
X2059Y1137D02*
X2066Y1137D01*
X1Y1136D02*
X8Y1136D01*
X2059Y1136D02*
X2066Y1136D01*
X1Y1135D02*
X8Y1135D01*
X2059Y1135D02*
X2066Y1135D01*
X1Y1134D02*
X8Y1134D01*
X2059Y1134D02*
X2066Y1134D01*
X1Y1133D02*
X8Y1133D01*
X2059Y1133D02*
X2066Y1133D01*
X1Y1132D02*
X8Y1132D01*
X2059Y1132D02*
X2066Y1132D01*
X1Y1131D02*
X8Y1131D01*
X2059Y1131D02*
X2066Y1131D01*
X1Y1130D02*
X8Y1130D01*
X2059Y1130D02*
X2066Y1130D01*
X1Y1129D02*
X8Y1129D01*
X2059Y1129D02*
X2066Y1129D01*
X1Y1128D02*
X8Y1128D01*
X2059Y1128D02*
X2066Y1128D01*
X1Y1127D02*
X8Y1127D01*
X2059Y1127D02*
X2066Y1127D01*
X1Y1126D02*
X8Y1126D01*
X2059Y1126D02*
X2066Y1126D01*
X1Y1125D02*
X8Y1125D01*
X2059Y1125D02*
X2066Y1125D01*
X1Y1124D02*
X8Y1124D01*
X2059Y1124D02*
X2066Y1124D01*
X1Y1123D02*
X8Y1123D01*
X2059Y1123D02*
X2066Y1123D01*
X1Y1122D02*
X8Y1122D01*
X2059Y1122D02*
X2066Y1122D01*
X1Y1121D02*
X8Y1121D01*
X2059Y1121D02*
X2066Y1121D01*
X1Y1120D02*
X8Y1120D01*
X2059Y1120D02*
X2066Y1120D01*
X1Y1119D02*
X8Y1119D01*
X2059Y1119D02*
X2066Y1119D01*
X1Y1118D02*
X8Y1118D01*
X2059Y1118D02*
X2066Y1118D01*
X1Y1117D02*
X8Y1117D01*
X2059Y1117D02*
X2066Y1117D01*
X1Y1116D02*
X8Y1116D01*
X2059Y1116D02*
X2066Y1116D01*
X1Y1115D02*
X8Y1115D01*
X2059Y1115D02*
X2066Y1115D01*
X1Y1114D02*
X8Y1114D01*
X2059Y1114D02*
X2066Y1114D01*
X1Y1113D02*
X8Y1113D01*
X2059Y1113D02*
X2066Y1113D01*
X1Y1112D02*
X8Y1112D01*
X2059Y1112D02*
X2066Y1112D01*
X1Y1111D02*
X8Y1111D01*
X2059Y1111D02*
X2066Y1111D01*
X1Y1110D02*
X8Y1110D01*
X2059Y1110D02*
X2066Y1110D01*
X1Y1109D02*
X8Y1109D01*
X2059Y1109D02*
X2066Y1109D01*
X1Y1108D02*
X8Y1108D01*
X2059Y1108D02*
X2066Y1108D01*
X1Y1107D02*
X8Y1107D01*
X2059Y1107D02*
X2066Y1107D01*
X1Y1106D02*
X8Y1106D01*
X2059Y1106D02*
X2066Y1106D01*
X1Y1105D02*
X8Y1105D01*
X2059Y1105D02*
X2066Y1105D01*
X1Y1104D02*
X8Y1104D01*
X2059Y1104D02*
X2066Y1104D01*
X1Y1103D02*
X8Y1103D01*
X2059Y1103D02*
X2066Y1103D01*
X1Y1102D02*
X8Y1102D01*
X2059Y1102D02*
X2066Y1102D01*
X1Y1101D02*
X8Y1101D01*
X2059Y1101D02*
X2066Y1101D01*
X1Y1100D02*
X8Y1100D01*
X2059Y1100D02*
X2066Y1100D01*
X1Y1099D02*
X8Y1099D01*
X2059Y1099D02*
X2066Y1099D01*
X1Y1098D02*
X8Y1098D01*
X2059Y1098D02*
X2066Y1098D01*
X1Y1097D02*
X8Y1097D01*
X2059Y1097D02*
X2066Y1097D01*
X1Y1096D02*
X8Y1096D01*
X2059Y1096D02*
X2066Y1096D01*
X1Y1095D02*
X8Y1095D01*
X2059Y1095D02*
X2066Y1095D01*
X1Y1094D02*
X8Y1094D01*
X2059Y1094D02*
X2066Y1094D01*
X1Y1093D02*
X8Y1093D01*
X2059Y1093D02*
X2066Y1093D01*
X1Y1092D02*
X8Y1092D01*
X2059Y1092D02*
X2066Y1092D01*
X1Y1091D02*
X8Y1091D01*
X2059Y1091D02*
X2066Y1091D01*
X1Y1090D02*
X8Y1090D01*
X2059Y1090D02*
X2066Y1090D01*
X1Y1089D02*
X8Y1089D01*
X2059Y1089D02*
X2066Y1089D01*
X1Y1088D02*
X8Y1088D01*
X2059Y1088D02*
X2066Y1088D01*
X1Y1087D02*
X8Y1087D01*
X2059Y1087D02*
X2066Y1087D01*
X1Y1086D02*
X8Y1086D01*
X2059Y1086D02*
X2066Y1086D01*
X1Y1085D02*
X8Y1085D01*
X2059Y1085D02*
X2066Y1085D01*
X1Y1084D02*
X8Y1084D01*
X2059Y1084D02*
X2066Y1084D01*
X1Y1083D02*
X8Y1083D01*
X2059Y1083D02*
X2066Y1083D01*
X1Y1082D02*
X8Y1082D01*
X2059Y1082D02*
X2066Y1082D01*
X1Y1081D02*
X8Y1081D01*
X2059Y1081D02*
X2066Y1081D01*
X1Y1080D02*
X8Y1080D01*
X2059Y1080D02*
X2066Y1080D01*
X1Y1079D02*
X8Y1079D01*
X2059Y1079D02*
X2066Y1079D01*
X1Y1078D02*
X8Y1078D01*
X2059Y1078D02*
X2066Y1078D01*
X1Y1077D02*
X8Y1077D01*
X2059Y1077D02*
X2066Y1077D01*
X1Y1076D02*
X8Y1076D01*
X2059Y1076D02*
X2066Y1076D01*
X1Y1075D02*
X8Y1075D01*
X2059Y1075D02*
X2066Y1075D01*
X1Y1074D02*
X8Y1074D01*
X2059Y1074D02*
X2066Y1074D01*
X1Y1073D02*
X8Y1073D01*
X2059Y1073D02*
X2066Y1073D01*
X1Y1072D02*
X8Y1072D01*
X2059Y1072D02*
X2066Y1072D01*
X1Y1071D02*
X8Y1071D01*
X2059Y1071D02*
X2066Y1071D01*
X1Y1070D02*
X8Y1070D01*
X2059Y1070D02*
X2066Y1070D01*
X1Y1069D02*
X8Y1069D01*
X2059Y1069D02*
X2066Y1069D01*
X1Y1068D02*
X8Y1068D01*
X2059Y1068D02*
X2066Y1068D01*
X1Y1067D02*
X8Y1067D01*
X2059Y1067D02*
X2066Y1067D01*
X1Y1066D02*
X8Y1066D01*
X2059Y1066D02*
X2066Y1066D01*
X1Y1065D02*
X8Y1065D01*
X2059Y1065D02*
X2066Y1065D01*
X1Y1064D02*
X8Y1064D01*
X2059Y1064D02*
X2066Y1064D01*
X1Y1063D02*
X8Y1063D01*
X2059Y1063D02*
X2066Y1063D01*
X1Y1062D02*
X8Y1062D01*
X2059Y1062D02*
X2066Y1062D01*
X1Y1061D02*
X8Y1061D01*
X2059Y1061D02*
X2066Y1061D01*
X1Y1060D02*
X8Y1060D01*
X2059Y1060D02*
X2066Y1060D01*
X1Y1059D02*
X8Y1059D01*
X2059Y1059D02*
X2066Y1059D01*
X1Y1058D02*
X8Y1058D01*
X2059Y1058D02*
X2066Y1058D01*
X1Y1057D02*
X8Y1057D01*
X2059Y1057D02*
X2066Y1057D01*
X1Y1056D02*
X8Y1056D01*
X2059Y1056D02*
X2066Y1056D01*
X1Y1055D02*
X8Y1055D01*
X2059Y1055D02*
X2066Y1055D01*
X1Y1054D02*
X8Y1054D01*
X2059Y1054D02*
X2066Y1054D01*
X1Y1053D02*
X8Y1053D01*
X2059Y1053D02*
X2066Y1053D01*
X1Y1052D02*
X8Y1052D01*
X2059Y1052D02*
X2066Y1052D01*
X1Y1051D02*
X8Y1051D01*
X2059Y1051D02*
X2066Y1051D01*
X1Y1050D02*
X8Y1050D01*
X2059Y1050D02*
X2066Y1050D01*
X1Y1049D02*
X8Y1049D01*
X2059Y1049D02*
X2066Y1049D01*
X1Y1048D02*
X8Y1048D01*
X2059Y1048D02*
X2066Y1048D01*
X1Y1047D02*
X8Y1047D01*
X2059Y1047D02*
X2066Y1047D01*
X1Y1046D02*
X8Y1046D01*
X2059Y1046D02*
X2066Y1046D01*
X1Y1045D02*
X8Y1045D01*
X2059Y1045D02*
X2066Y1045D01*
X1Y1044D02*
X8Y1044D01*
X2059Y1044D02*
X2066Y1044D01*
X1Y1043D02*
X8Y1043D01*
X2059Y1043D02*
X2066Y1043D01*
X1Y1042D02*
X8Y1042D01*
X2059Y1042D02*
X2066Y1042D01*
X1Y1041D02*
X8Y1041D01*
X2059Y1041D02*
X2066Y1041D01*
X1Y1040D02*
X8Y1040D01*
X2059Y1040D02*
X2066Y1040D01*
X1Y1039D02*
X8Y1039D01*
X2059Y1039D02*
X2066Y1039D01*
X1Y1038D02*
X8Y1038D01*
X2059Y1038D02*
X2066Y1038D01*
X1Y1037D02*
X8Y1037D01*
X2059Y1037D02*
X2066Y1037D01*
X1Y1036D02*
X8Y1036D01*
X2059Y1036D02*
X2066Y1036D01*
X1Y1035D02*
X8Y1035D01*
X2059Y1035D02*
X2066Y1035D01*
X1Y1034D02*
X8Y1034D01*
X2059Y1034D02*
X2066Y1034D01*
X1Y1033D02*
X8Y1033D01*
X2059Y1033D02*
X2066Y1033D01*
X1Y1032D02*
X8Y1032D01*
X2059Y1032D02*
X2066Y1032D01*
X1Y1031D02*
X8Y1031D01*
X2059Y1031D02*
X2066Y1031D01*
X1Y1030D02*
X8Y1030D01*
X2059Y1030D02*
X2066Y1030D01*
X1Y1029D02*
X8Y1029D01*
X2059Y1029D02*
X2066Y1029D01*
X1Y1028D02*
X8Y1028D01*
X2059Y1028D02*
X2066Y1028D01*
X1Y1027D02*
X8Y1027D01*
X2059Y1027D02*
X2066Y1027D01*
X1Y1026D02*
X8Y1026D01*
X2059Y1026D02*
X2066Y1026D01*
X1Y1025D02*
X8Y1025D01*
X2059Y1025D02*
X2066Y1025D01*
X1Y1024D02*
X8Y1024D01*
X2059Y1024D02*
X2066Y1024D01*
X1Y1023D02*
X8Y1023D01*
X2059Y1023D02*
X2066Y1023D01*
X1Y1022D02*
X8Y1022D01*
X2059Y1022D02*
X2066Y1022D01*
X1Y1021D02*
X8Y1021D01*
X2059Y1021D02*
X2066Y1021D01*
X1Y1020D02*
X8Y1020D01*
X2059Y1020D02*
X2066Y1020D01*
X1Y1019D02*
X8Y1019D01*
X2059Y1019D02*
X2066Y1019D01*
X1Y1018D02*
X8Y1018D01*
X2059Y1018D02*
X2066Y1018D01*
X1Y1017D02*
X8Y1017D01*
X2059Y1017D02*
X2066Y1017D01*
X1Y1016D02*
X8Y1016D01*
X2059Y1016D02*
X2066Y1016D01*
X1Y1015D02*
X8Y1015D01*
X2059Y1015D02*
X2066Y1015D01*
X1Y1014D02*
X8Y1014D01*
X2059Y1014D02*
X2066Y1014D01*
X1Y1013D02*
X8Y1013D01*
X2059Y1013D02*
X2066Y1013D01*
X1Y1012D02*
X8Y1012D01*
X2059Y1012D02*
X2066Y1012D01*
X1Y1011D02*
X8Y1011D01*
X2059Y1011D02*
X2066Y1011D01*
X1Y1010D02*
X8Y1010D01*
X2059Y1010D02*
X2066Y1010D01*
X1Y1009D02*
X8Y1009D01*
X2059Y1009D02*
X2066Y1009D01*
X1Y1008D02*
X8Y1008D01*
X2059Y1008D02*
X2066Y1008D01*
X1Y1007D02*
X8Y1007D01*
X2059Y1007D02*
X2066Y1007D01*
X1Y1006D02*
X8Y1006D01*
X2059Y1006D02*
X2066Y1006D01*
X1Y1005D02*
X8Y1005D01*
X2059Y1005D02*
X2066Y1005D01*
X1Y1004D02*
X8Y1004D01*
X2059Y1004D02*
X2066Y1004D01*
X1Y1003D02*
X8Y1003D01*
X2059Y1003D02*
X2066Y1003D01*
X1Y1002D02*
X8Y1002D01*
X2059Y1002D02*
X2066Y1002D01*
X1Y1001D02*
X8Y1001D01*
X2059Y1001D02*
X2066Y1001D01*
X1Y1000D02*
X8Y1000D01*
X2059Y1000D02*
X2066Y1000D01*
X1Y999D02*
X8Y999D01*
X2059Y999D02*
X2066Y999D01*
X1Y998D02*
X8Y998D01*
X2059Y998D02*
X2066Y998D01*
X1Y997D02*
X8Y997D01*
X2059Y997D02*
X2066Y997D01*
X1Y996D02*
X8Y996D01*
X2059Y996D02*
X2066Y996D01*
X1Y995D02*
X8Y995D01*
X2059Y995D02*
X2066Y995D01*
X1Y994D02*
X8Y994D01*
X2059Y994D02*
X2066Y994D01*
X1Y993D02*
X8Y993D01*
X2059Y993D02*
X2066Y993D01*
X1Y992D02*
X8Y992D01*
X2059Y992D02*
X2066Y992D01*
X1Y991D02*
X8Y991D01*
X2059Y991D02*
X2066Y991D01*
X1Y990D02*
X8Y990D01*
X2059Y990D02*
X2066Y990D01*
X1Y989D02*
X8Y989D01*
X2059Y989D02*
X2066Y989D01*
X1Y988D02*
X8Y988D01*
X2059Y988D02*
X2066Y988D01*
X1Y987D02*
X8Y987D01*
X2059Y987D02*
X2066Y987D01*
X1Y986D02*
X8Y986D01*
X2059Y986D02*
X2066Y986D01*
X1Y985D02*
X8Y985D01*
X2059Y985D02*
X2066Y985D01*
X1Y984D02*
X8Y984D01*
X2059Y984D02*
X2066Y984D01*
X1Y983D02*
X8Y983D01*
X2059Y983D02*
X2066Y983D01*
X1Y982D02*
X8Y982D01*
X2059Y982D02*
X2066Y982D01*
X1Y981D02*
X8Y981D01*
X2059Y981D02*
X2066Y981D01*
X1Y980D02*
X8Y980D01*
X2059Y980D02*
X2066Y980D01*
X1Y979D02*
X8Y979D01*
X2059Y979D02*
X2066Y979D01*
X1Y978D02*
X8Y978D01*
X2059Y978D02*
X2066Y978D01*
X1Y977D02*
X8Y977D01*
X2059Y977D02*
X2066Y977D01*
X1Y976D02*
X8Y976D01*
X2059Y976D02*
X2066Y976D01*
X1Y975D02*
X8Y975D01*
X2059Y975D02*
X2066Y975D01*
X1Y974D02*
X8Y974D01*
X2059Y974D02*
X2066Y974D01*
X1Y973D02*
X8Y973D01*
X2059Y973D02*
X2066Y973D01*
X1Y972D02*
X8Y972D01*
X2059Y972D02*
X2066Y972D01*
X1Y971D02*
X8Y971D01*
X2059Y971D02*
X2066Y971D01*
X1Y970D02*
X8Y970D01*
X2059Y970D02*
X2066Y970D01*
X1Y969D02*
X8Y969D01*
X2059Y969D02*
X2066Y969D01*
X1Y968D02*
X8Y968D01*
X2059Y968D02*
X2066Y968D01*
X1Y967D02*
X8Y967D01*
X2059Y967D02*
X2066Y967D01*
X1Y966D02*
X8Y966D01*
X2059Y966D02*
X2066Y966D01*
X1Y965D02*
X8Y965D01*
X2059Y965D02*
X2066Y965D01*
X1Y964D02*
X8Y964D01*
X2059Y964D02*
X2066Y964D01*
X1Y963D02*
X8Y963D01*
X2059Y963D02*
X2066Y963D01*
X1Y962D02*
X8Y962D01*
X2059Y962D02*
X2066Y962D01*
X1Y961D02*
X8Y961D01*
X2059Y961D02*
X2066Y961D01*
X1Y960D02*
X8Y960D01*
X2059Y960D02*
X2066Y960D01*
X1Y959D02*
X8Y959D01*
X2059Y959D02*
X2066Y959D01*
X1Y958D02*
X8Y958D01*
X2059Y958D02*
X2066Y958D01*
X1Y957D02*
X8Y957D01*
X2059Y957D02*
X2066Y957D01*
X1Y956D02*
X8Y956D01*
X2059Y956D02*
X2066Y956D01*
X1Y955D02*
X8Y955D01*
X2059Y955D02*
X2066Y955D01*
X1Y954D02*
X8Y954D01*
X2059Y954D02*
X2066Y954D01*
X1Y953D02*
X8Y953D01*
X2059Y953D02*
X2066Y953D01*
X1Y952D02*
X8Y952D01*
X2059Y952D02*
X2066Y952D01*
X1Y951D02*
X8Y951D01*
X2059Y951D02*
X2066Y951D01*
X1Y950D02*
X8Y950D01*
X2059Y950D02*
X2066Y950D01*
X1Y949D02*
X8Y949D01*
X2059Y949D02*
X2066Y949D01*
X1Y948D02*
X8Y948D01*
X2059Y948D02*
X2066Y948D01*
X1Y947D02*
X8Y947D01*
X2059Y947D02*
X2066Y947D01*
X1Y946D02*
X8Y946D01*
X2059Y946D02*
X2066Y946D01*
X1Y945D02*
X8Y945D01*
X2059Y945D02*
X2066Y945D01*
X1Y944D02*
X8Y944D01*
X2059Y944D02*
X2066Y944D01*
X1Y943D02*
X8Y943D01*
X2059Y943D02*
X2066Y943D01*
X1Y942D02*
X8Y942D01*
X2059Y942D02*
X2066Y942D01*
X1Y941D02*
X8Y941D01*
X2059Y941D02*
X2066Y941D01*
X1Y940D02*
X8Y940D01*
X2059Y940D02*
X2066Y940D01*
X1Y939D02*
X8Y939D01*
X2059Y939D02*
X2066Y939D01*
X1Y938D02*
X8Y938D01*
X2059Y938D02*
X2066Y938D01*
X1Y937D02*
X8Y937D01*
X2059Y937D02*
X2066Y937D01*
X1Y936D02*
X8Y936D01*
X2059Y936D02*
X2066Y936D01*
X1Y935D02*
X8Y935D01*
X2059Y935D02*
X2066Y935D01*
X1Y934D02*
X8Y934D01*
X2059Y934D02*
X2066Y934D01*
X1Y933D02*
X8Y933D01*
X2059Y933D02*
X2066Y933D01*
X1Y932D02*
X8Y932D01*
X2059Y932D02*
X2066Y932D01*
X1Y931D02*
X8Y931D01*
X2059Y931D02*
X2066Y931D01*
X1Y930D02*
X8Y930D01*
X2059Y930D02*
X2066Y930D01*
X1Y929D02*
X8Y929D01*
X2059Y929D02*
X2066Y929D01*
X1Y928D02*
X8Y928D01*
X2059Y928D02*
X2066Y928D01*
X1Y927D02*
X8Y927D01*
X2059Y927D02*
X2066Y927D01*
X1Y926D02*
X8Y926D01*
X2059Y926D02*
X2066Y926D01*
X1Y925D02*
X8Y925D01*
X2059Y925D02*
X2066Y925D01*
X1Y924D02*
X8Y924D01*
X2059Y924D02*
X2066Y924D01*
X1Y923D02*
X8Y923D01*
X2059Y923D02*
X2066Y923D01*
X1Y922D02*
X8Y922D01*
X2059Y922D02*
X2066Y922D01*
X1Y921D02*
X8Y921D01*
X2059Y921D02*
X2066Y921D01*
X1Y920D02*
X8Y920D01*
X2059Y920D02*
X2066Y920D01*
X1Y919D02*
X8Y919D01*
X2059Y919D02*
X2066Y919D01*
X1Y918D02*
X8Y918D01*
X2059Y918D02*
X2066Y918D01*
X1Y917D02*
X8Y917D01*
X2059Y917D02*
X2066Y917D01*
X1Y916D02*
X8Y916D01*
X2059Y916D02*
X2066Y916D01*
X1Y915D02*
X8Y915D01*
X2059Y915D02*
X2066Y915D01*
X1Y914D02*
X8Y914D01*
X2059Y914D02*
X2066Y914D01*
X1Y913D02*
X8Y913D01*
X2059Y913D02*
X2066Y913D01*
X1Y912D02*
X8Y912D01*
X2059Y912D02*
X2066Y912D01*
X1Y911D02*
X8Y911D01*
X2059Y911D02*
X2066Y911D01*
X1Y910D02*
X8Y910D01*
X2059Y910D02*
X2066Y910D01*
X1Y909D02*
X8Y909D01*
X2059Y909D02*
X2066Y909D01*
X1Y908D02*
X8Y908D01*
X2059Y908D02*
X2066Y908D01*
X1Y907D02*
X8Y907D01*
X2059Y907D02*
X2066Y907D01*
X1Y906D02*
X8Y906D01*
X2059Y906D02*
X2066Y906D01*
X1Y905D02*
X8Y905D01*
X2059Y905D02*
X2066Y905D01*
X1Y904D02*
X8Y904D01*
X2059Y904D02*
X2066Y904D01*
X1Y903D02*
X8Y903D01*
X2059Y903D02*
X2066Y903D01*
X1Y902D02*
X8Y902D01*
X2059Y902D02*
X2066Y902D01*
X1Y901D02*
X8Y901D01*
X2059Y901D02*
X2066Y901D01*
X1Y900D02*
X8Y900D01*
X2059Y900D02*
X2066Y900D01*
X1Y899D02*
X8Y899D01*
X2059Y899D02*
X2066Y899D01*
X1Y898D02*
X8Y898D01*
X2059Y898D02*
X2066Y898D01*
X1Y897D02*
X8Y897D01*
X2059Y897D02*
X2066Y897D01*
X1Y896D02*
X8Y896D01*
X2059Y896D02*
X2066Y896D01*
X1Y895D02*
X8Y895D01*
X2059Y895D02*
X2066Y895D01*
X1Y894D02*
X8Y894D01*
X2059Y894D02*
X2066Y894D01*
X1Y893D02*
X8Y893D01*
X2059Y893D02*
X2066Y893D01*
X1Y892D02*
X8Y892D01*
X2059Y892D02*
X2066Y892D01*
X1Y891D02*
X8Y891D01*
X2059Y891D02*
X2066Y891D01*
X1Y890D02*
X8Y890D01*
X2059Y890D02*
X2066Y890D01*
X1Y889D02*
X8Y889D01*
X2059Y889D02*
X2066Y889D01*
X1Y888D02*
X8Y888D01*
X2059Y888D02*
X2066Y888D01*
X1Y887D02*
X8Y887D01*
X2059Y887D02*
X2066Y887D01*
X1Y886D02*
X8Y886D01*
X2059Y886D02*
X2066Y886D01*
X1Y885D02*
X8Y885D01*
X2059Y885D02*
X2066Y885D01*
X1Y884D02*
X8Y884D01*
X2059Y884D02*
X2066Y884D01*
X1Y883D02*
X8Y883D01*
X2059Y883D02*
X2066Y883D01*
X1Y882D02*
X8Y882D01*
X2059Y882D02*
X2066Y882D01*
X1Y881D02*
X8Y881D01*
X2059Y881D02*
X2066Y881D01*
X1Y880D02*
X8Y880D01*
X2059Y880D02*
X2066Y880D01*
X1Y879D02*
X8Y879D01*
X2059Y879D02*
X2066Y879D01*
X1Y878D02*
X8Y878D01*
X2059Y878D02*
X2066Y878D01*
X1Y877D02*
X8Y877D01*
X2059Y877D02*
X2066Y877D01*
X1Y876D02*
X8Y876D01*
X2059Y876D02*
X2066Y876D01*
X1Y875D02*
X8Y875D01*
X2059Y875D02*
X2066Y875D01*
X1Y874D02*
X8Y874D01*
X2059Y874D02*
X2066Y874D01*
X1Y873D02*
X8Y873D01*
X2059Y873D02*
X2066Y873D01*
X1Y872D02*
X8Y872D01*
X2059Y872D02*
X2066Y872D01*
X1Y871D02*
X8Y871D01*
X2059Y871D02*
X2066Y871D01*
X1Y870D02*
X8Y870D01*
X2059Y870D02*
X2066Y870D01*
X1Y869D02*
X8Y869D01*
X2059Y869D02*
X2066Y869D01*
X1Y868D02*
X8Y868D01*
X2059Y868D02*
X2066Y868D01*
X1Y867D02*
X8Y867D01*
X2059Y867D02*
X2066Y867D01*
X1Y866D02*
X8Y866D01*
X2059Y866D02*
X2066Y866D01*
X1Y865D02*
X8Y865D01*
X2059Y865D02*
X2066Y865D01*
X1Y864D02*
X8Y864D01*
X2059Y864D02*
X2066Y864D01*
X1Y863D02*
X8Y863D01*
X2059Y863D02*
X2066Y863D01*
X1Y862D02*
X8Y862D01*
X2059Y862D02*
X2066Y862D01*
X1Y861D02*
X8Y861D01*
X2059Y861D02*
X2066Y861D01*
X1Y860D02*
X8Y860D01*
X2059Y860D02*
X2066Y860D01*
X1Y859D02*
X8Y859D01*
X2059Y859D02*
X2066Y859D01*
X1Y858D02*
X8Y858D01*
X2059Y858D02*
X2066Y858D01*
X1Y857D02*
X8Y857D01*
X2059Y857D02*
X2066Y857D01*
X1Y856D02*
X8Y856D01*
X2059Y856D02*
X2066Y856D01*
X1Y855D02*
X8Y855D01*
X2059Y855D02*
X2066Y855D01*
X1Y854D02*
X8Y854D01*
X2059Y854D02*
X2066Y854D01*
X1Y853D02*
X8Y853D01*
X2059Y853D02*
X2066Y853D01*
X1Y852D02*
X8Y852D01*
X2059Y852D02*
X2066Y852D01*
X1Y851D02*
X8Y851D01*
X2059Y851D02*
X2066Y851D01*
X1Y850D02*
X8Y850D01*
X2059Y850D02*
X2066Y850D01*
X1Y849D02*
X8Y849D01*
X2059Y849D02*
X2066Y849D01*
X1Y848D02*
X8Y848D01*
X2059Y848D02*
X2066Y848D01*
X1Y847D02*
X8Y847D01*
X2059Y847D02*
X2066Y847D01*
X1Y846D02*
X8Y846D01*
X2059Y846D02*
X2066Y846D01*
X1Y845D02*
X8Y845D01*
X2059Y845D02*
X2066Y845D01*
X1Y844D02*
X8Y844D01*
X2059Y844D02*
X2066Y844D01*
X1Y843D02*
X8Y843D01*
X2059Y843D02*
X2066Y843D01*
X1Y842D02*
X8Y842D01*
X2059Y842D02*
X2066Y842D01*
X1Y841D02*
X8Y841D01*
X2059Y841D02*
X2066Y841D01*
X1Y840D02*
X8Y840D01*
X2059Y840D02*
X2066Y840D01*
X1Y839D02*
X8Y839D01*
X2059Y839D02*
X2066Y839D01*
X1Y838D02*
X8Y838D01*
X2059Y838D02*
X2066Y838D01*
X1Y837D02*
X8Y837D01*
X2059Y837D02*
X2066Y837D01*
X1Y836D02*
X8Y836D01*
X2059Y836D02*
X2066Y836D01*
X1Y835D02*
X8Y835D01*
X2059Y835D02*
X2066Y835D01*
X1Y834D02*
X8Y834D01*
X2059Y834D02*
X2066Y834D01*
X1Y833D02*
X8Y833D01*
X2059Y833D02*
X2066Y833D01*
X1Y832D02*
X8Y832D01*
X2059Y832D02*
X2066Y832D01*
X1Y831D02*
X8Y831D01*
X2059Y831D02*
X2066Y831D01*
X1Y830D02*
X8Y830D01*
X2059Y830D02*
X2066Y830D01*
X1Y829D02*
X8Y829D01*
X2059Y829D02*
X2066Y829D01*
X1Y828D02*
X8Y828D01*
X2059Y828D02*
X2066Y828D01*
X1Y827D02*
X8Y827D01*
X2059Y827D02*
X2066Y827D01*
X1Y826D02*
X8Y826D01*
X2059Y826D02*
X2066Y826D01*
X1Y825D02*
X8Y825D01*
X2059Y825D02*
X2066Y825D01*
X1Y824D02*
X8Y824D01*
X2059Y824D02*
X2066Y824D01*
X1Y823D02*
X8Y823D01*
X2059Y823D02*
X2066Y823D01*
X1Y822D02*
X8Y822D01*
X2059Y822D02*
X2066Y822D01*
X1Y821D02*
X8Y821D01*
X2059Y821D02*
X2066Y821D01*
X1Y820D02*
X8Y820D01*
X2059Y820D02*
X2066Y820D01*
X1Y819D02*
X8Y819D01*
X2059Y819D02*
X2066Y819D01*
X1Y818D02*
X8Y818D01*
X2059Y818D02*
X2066Y818D01*
X1Y817D02*
X8Y817D01*
X2059Y817D02*
X2066Y817D01*
X1Y816D02*
X8Y816D01*
X2059Y816D02*
X2066Y816D01*
X1Y815D02*
X8Y815D01*
X2059Y815D02*
X2066Y815D01*
X1Y814D02*
X8Y814D01*
X2059Y814D02*
X2066Y814D01*
X1Y813D02*
X8Y813D01*
X2059Y813D02*
X2066Y813D01*
X1Y812D02*
X8Y812D01*
X2059Y812D02*
X2066Y812D01*
X1Y811D02*
X8Y811D01*
X2059Y811D02*
X2066Y811D01*
X1Y810D02*
X8Y810D01*
X2059Y810D02*
X2066Y810D01*
X1Y809D02*
X8Y809D01*
X2059Y809D02*
X2066Y809D01*
X1Y808D02*
X8Y808D01*
X2059Y808D02*
X2066Y808D01*
X1Y807D02*
X8Y807D01*
X2059Y807D02*
X2066Y807D01*
X1Y806D02*
X8Y806D01*
X2059Y806D02*
X2066Y806D01*
X1Y805D02*
X8Y805D01*
X2059Y805D02*
X2066Y805D01*
X1Y804D02*
X8Y804D01*
X2059Y804D02*
X2066Y804D01*
X1Y803D02*
X8Y803D01*
X2059Y803D02*
X2066Y803D01*
X1Y802D02*
X8Y802D01*
X2059Y802D02*
X2066Y802D01*
X1Y801D02*
X8Y801D01*
X2059Y801D02*
X2066Y801D01*
X1Y800D02*
X8Y800D01*
X2059Y800D02*
X2066Y800D01*
X1Y799D02*
X8Y799D01*
X2059Y799D02*
X2066Y799D01*
X1Y798D02*
X8Y798D01*
X2059Y798D02*
X2066Y798D01*
X1Y797D02*
X8Y797D01*
X2059Y797D02*
X2066Y797D01*
X1Y796D02*
X8Y796D01*
X2059Y796D02*
X2066Y796D01*
X1Y795D02*
X8Y795D01*
X2059Y795D02*
X2066Y795D01*
X1Y794D02*
X8Y794D01*
X2059Y794D02*
X2066Y794D01*
X1Y793D02*
X8Y793D01*
X2059Y793D02*
X2066Y793D01*
X1Y792D02*
X8Y792D01*
X2059Y792D02*
X2066Y792D01*
X1Y791D02*
X8Y791D01*
X2059Y791D02*
X2066Y791D01*
X1Y790D02*
X8Y790D01*
X2059Y790D02*
X2066Y790D01*
X1Y789D02*
X8Y789D01*
X2059Y789D02*
X2066Y789D01*
X1Y788D02*
X8Y788D01*
X2059Y788D02*
X2066Y788D01*
X1Y787D02*
X8Y787D01*
X2059Y787D02*
X2066Y787D01*
X1Y786D02*
X8Y786D01*
X2059Y786D02*
X2066Y786D01*
X1Y785D02*
X8Y785D01*
X2059Y785D02*
X2066Y785D01*
X1Y784D02*
X8Y784D01*
X2059Y784D02*
X2066Y784D01*
X1Y783D02*
X8Y783D01*
X2059Y783D02*
X2066Y783D01*
X1Y782D02*
X8Y782D01*
X2059Y782D02*
X2066Y782D01*
X1Y781D02*
X8Y781D01*
X2059Y781D02*
X2066Y781D01*
X1Y780D02*
X8Y780D01*
X2059Y780D02*
X2066Y780D01*
X1Y779D02*
X8Y779D01*
X2059Y779D02*
X2066Y779D01*
X1Y778D02*
X8Y778D01*
X2059Y778D02*
X2066Y778D01*
X1Y777D02*
X8Y777D01*
X2059Y777D02*
X2066Y777D01*
X1Y776D02*
X8Y776D01*
X2059Y776D02*
X2066Y776D01*
X1Y775D02*
X8Y775D01*
X2059Y775D02*
X2066Y775D01*
X1Y774D02*
X8Y774D01*
X2059Y774D02*
X2066Y774D01*
X1Y773D02*
X8Y773D01*
X2059Y773D02*
X2066Y773D01*
X1Y772D02*
X8Y772D01*
X2059Y772D02*
X2066Y772D01*
X1Y771D02*
X8Y771D01*
X2059Y771D02*
X2066Y771D01*
X1Y770D02*
X8Y770D01*
X2059Y770D02*
X2066Y770D01*
X1Y769D02*
X8Y769D01*
X2059Y769D02*
X2066Y769D01*
X1Y768D02*
X8Y768D01*
X2059Y768D02*
X2066Y768D01*
X1Y767D02*
X8Y767D01*
X2059Y767D02*
X2066Y767D01*
X1Y766D02*
X8Y766D01*
X2059Y766D02*
X2066Y766D01*
X1Y765D02*
X8Y765D01*
X2059Y765D02*
X2066Y765D01*
X1Y764D02*
X8Y764D01*
X2059Y764D02*
X2066Y764D01*
X1Y763D02*
X8Y763D01*
X2059Y763D02*
X2066Y763D01*
X1Y762D02*
X8Y762D01*
X2059Y762D02*
X2066Y762D01*
X1Y761D02*
X8Y761D01*
X2059Y761D02*
X2066Y761D01*
X1Y760D02*
X8Y760D01*
X2059Y760D02*
X2066Y760D01*
X1Y759D02*
X8Y759D01*
X2059Y759D02*
X2066Y759D01*
X1Y758D02*
X8Y758D01*
X2059Y758D02*
X2066Y758D01*
X1Y757D02*
X8Y757D01*
X2059Y757D02*
X2066Y757D01*
X1Y756D02*
X8Y756D01*
X2059Y756D02*
X2066Y756D01*
X1Y755D02*
X8Y755D01*
X2059Y755D02*
X2066Y755D01*
X1Y754D02*
X8Y754D01*
X2059Y754D02*
X2066Y754D01*
X1Y753D02*
X8Y753D01*
X2059Y753D02*
X2066Y753D01*
X1Y752D02*
X8Y752D01*
X2059Y752D02*
X2066Y752D01*
X1Y751D02*
X8Y751D01*
X2059Y751D02*
X2066Y751D01*
X1Y750D02*
X8Y750D01*
X2059Y750D02*
X2066Y750D01*
X1Y749D02*
X8Y749D01*
X2059Y749D02*
X2066Y749D01*
X1Y748D02*
X8Y748D01*
X2059Y748D02*
X2066Y748D01*
X1Y747D02*
X8Y747D01*
X2059Y747D02*
X2066Y747D01*
X1Y746D02*
X8Y746D01*
X2059Y746D02*
X2066Y746D01*
X1Y745D02*
X8Y745D01*
X2059Y745D02*
X2066Y745D01*
X1Y744D02*
X8Y744D01*
X2059Y744D02*
X2066Y744D01*
X1Y743D02*
X8Y743D01*
X2059Y743D02*
X2066Y743D01*
X1Y742D02*
X8Y742D01*
X2059Y742D02*
X2066Y742D01*
X1Y741D02*
X8Y741D01*
X2059Y741D02*
X2066Y741D01*
X1Y740D02*
X8Y740D01*
X2059Y740D02*
X2066Y740D01*
X1Y739D02*
X8Y739D01*
X2059Y739D02*
X2066Y739D01*
X1Y738D02*
X8Y738D01*
X2059Y738D02*
X2066Y738D01*
X1Y737D02*
X8Y737D01*
X2059Y737D02*
X2066Y737D01*
X1Y736D02*
X8Y736D01*
X2059Y736D02*
X2066Y736D01*
X1Y735D02*
X8Y735D01*
X2059Y735D02*
X2066Y735D01*
X1Y734D02*
X8Y734D01*
X2059Y734D02*
X2066Y734D01*
X1Y733D02*
X8Y733D01*
X2059Y733D02*
X2066Y733D01*
X1Y732D02*
X8Y732D01*
X2059Y732D02*
X2066Y732D01*
X1Y731D02*
X8Y731D01*
X2059Y731D02*
X2066Y731D01*
X1Y730D02*
X8Y730D01*
X2059Y730D02*
X2066Y730D01*
X1Y729D02*
X8Y729D01*
X2059Y729D02*
X2066Y729D01*
X1Y728D02*
X8Y728D01*
X2059Y728D02*
X2066Y728D01*
X1Y727D02*
X8Y727D01*
X2059Y727D02*
X2066Y727D01*
X1Y726D02*
X8Y726D01*
X2059Y726D02*
X2066Y726D01*
X1Y725D02*
X8Y725D01*
X2059Y725D02*
X2066Y725D01*
X1Y724D02*
X8Y724D01*
X2059Y724D02*
X2066Y724D01*
X1Y723D02*
X8Y723D01*
X2059Y723D02*
X2066Y723D01*
X1Y722D02*
X8Y722D01*
X2059Y722D02*
X2066Y722D01*
X1Y721D02*
X8Y721D01*
X2059Y721D02*
X2066Y721D01*
X1Y720D02*
X8Y720D01*
X2059Y720D02*
X2066Y720D01*
X1Y719D02*
X8Y719D01*
X2059Y719D02*
X2066Y719D01*
X1Y718D02*
X8Y718D01*
X2059Y718D02*
X2066Y718D01*
X1Y717D02*
X8Y717D01*
X2059Y717D02*
X2066Y717D01*
X1Y716D02*
X8Y716D01*
X2059Y716D02*
X2066Y716D01*
X1Y715D02*
X8Y715D01*
X2059Y715D02*
X2066Y715D01*
X1Y714D02*
X8Y714D01*
X2059Y714D02*
X2066Y714D01*
X1Y713D02*
X8Y713D01*
X2059Y713D02*
X2066Y713D01*
X1Y712D02*
X8Y712D01*
X2059Y712D02*
X2066Y712D01*
X1Y711D02*
X8Y711D01*
X2059Y711D02*
X2066Y711D01*
X1Y710D02*
X8Y710D01*
X2059Y710D02*
X2066Y710D01*
X1Y709D02*
X8Y709D01*
X2059Y709D02*
X2066Y709D01*
X1Y708D02*
X8Y708D01*
X2059Y708D02*
X2066Y708D01*
X1Y707D02*
X8Y707D01*
X2059Y707D02*
X2066Y707D01*
X1Y706D02*
X8Y706D01*
X2059Y706D02*
X2066Y706D01*
X1Y705D02*
X8Y705D01*
X2059Y705D02*
X2066Y705D01*
X1Y704D02*
X8Y704D01*
X2059Y704D02*
X2066Y704D01*
X1Y703D02*
X8Y703D01*
X2059Y703D02*
X2066Y703D01*
X1Y702D02*
X8Y702D01*
X2059Y702D02*
X2066Y702D01*
X1Y701D02*
X8Y701D01*
X2059Y701D02*
X2066Y701D01*
X1Y700D02*
X8Y700D01*
X2059Y700D02*
X2066Y700D01*
X1Y699D02*
X8Y699D01*
X2059Y699D02*
X2066Y699D01*
X1Y698D02*
X8Y698D01*
X2059Y698D02*
X2066Y698D01*
X1Y697D02*
X8Y697D01*
X2059Y697D02*
X2066Y697D01*
X1Y696D02*
X8Y696D01*
X2059Y696D02*
X2066Y696D01*
X1Y695D02*
X8Y695D01*
X2059Y695D02*
X2066Y695D01*
X1Y694D02*
X8Y694D01*
X2059Y694D02*
X2066Y694D01*
X1Y693D02*
X8Y693D01*
X2059Y693D02*
X2066Y693D01*
X1Y692D02*
X8Y692D01*
X2059Y692D02*
X2066Y692D01*
X1Y691D02*
X8Y691D01*
X2059Y691D02*
X2066Y691D01*
X1Y690D02*
X8Y690D01*
X2059Y690D02*
X2066Y690D01*
X1Y689D02*
X8Y689D01*
X2059Y689D02*
X2066Y689D01*
X1Y688D02*
X8Y688D01*
X2059Y688D02*
X2066Y688D01*
X1Y687D02*
X8Y687D01*
X1073Y687D02*
X1082Y687D01*
X2059Y687D02*
X2066Y687D01*
X1Y686D02*
X8Y686D01*
X1073Y686D02*
X1082Y686D01*
X2059Y686D02*
X2066Y686D01*
X1Y685D02*
X8Y685D01*
X1073Y685D02*
X1082Y685D01*
X2059Y685D02*
X2066Y685D01*
X1Y684D02*
X8Y684D01*
X1073Y684D02*
X1082Y684D01*
X2059Y684D02*
X2066Y684D01*
X1Y683D02*
X8Y683D01*
X1073Y683D02*
X1082Y683D01*
X2059Y683D02*
X2066Y683D01*
X1Y682D02*
X8Y682D01*
X1073Y682D02*
X1082Y682D01*
X2059Y682D02*
X2066Y682D01*
X1Y681D02*
X8Y681D01*
X1073Y681D02*
X1082Y681D01*
X2059Y681D02*
X2066Y681D01*
X1Y680D02*
X8Y680D01*
X1073Y680D02*
X1082Y680D01*
X2059Y680D02*
X2066Y680D01*
X1Y679D02*
X8Y679D01*
X1073Y679D02*
X1082Y679D01*
X2059Y679D02*
X2066Y679D01*
X1Y678D02*
X8Y678D01*
X1073Y678D02*
X1082Y678D01*
X2059Y678D02*
X2066Y678D01*
X1Y677D02*
X8Y677D01*
X1073Y677D02*
X1082Y677D01*
X2059Y677D02*
X2066Y677D01*
X1Y676D02*
X8Y676D01*
X1073Y676D02*
X1082Y676D01*
X2059Y676D02*
X2066Y676D01*
X1Y675D02*
X8Y675D01*
X1073Y675D02*
X1082Y675D01*
X2059Y675D02*
X2066Y675D01*
X1Y674D02*
X8Y674D01*
X1073Y674D02*
X1082Y674D01*
X2059Y674D02*
X2066Y674D01*
X1Y673D02*
X8Y673D01*
X1073Y673D02*
X1082Y673D01*
X2059Y673D02*
X2066Y673D01*
X1Y672D02*
X8Y672D01*
X1073Y672D02*
X1082Y672D01*
X2059Y672D02*
X2066Y672D01*
X1Y671D02*
X8Y671D01*
X1073Y671D02*
X1082Y671D01*
X2059Y671D02*
X2066Y671D01*
X1Y670D02*
X8Y670D01*
X1073Y670D02*
X1082Y670D01*
X2059Y670D02*
X2066Y670D01*
X1Y669D02*
X8Y669D01*
X1073Y669D02*
X1082Y669D01*
X2059Y669D02*
X2066Y669D01*
X1Y668D02*
X8Y668D01*
X1073Y668D02*
X1082Y668D01*
X2059Y668D02*
X2066Y668D01*
X1Y667D02*
X8Y667D01*
X1073Y667D02*
X1082Y667D01*
X2059Y667D02*
X2066Y667D01*
X1Y666D02*
X8Y666D01*
X1073Y666D02*
X1082Y666D01*
X2059Y666D02*
X2066Y666D01*
X1Y665D02*
X8Y665D01*
X1073Y665D02*
X1082Y665D01*
X2059Y665D02*
X2066Y665D01*
X1Y664D02*
X8Y664D01*
X1073Y664D02*
X1082Y664D01*
X2059Y664D02*
X2066Y664D01*
X1Y663D02*
X8Y663D01*
X1073Y663D02*
X1082Y663D01*
X2059Y663D02*
X2066Y663D01*
X1Y662D02*
X8Y662D01*
X1073Y662D02*
X1082Y662D01*
X2059Y662D02*
X2066Y662D01*
X1Y661D02*
X8Y661D01*
X1073Y661D02*
X1082Y661D01*
X2059Y661D02*
X2066Y661D01*
X1Y660D02*
X8Y660D01*
X1073Y660D02*
X1082Y660D01*
X2059Y660D02*
X2066Y660D01*
X1Y659D02*
X8Y659D01*
X1073Y659D02*
X1082Y659D01*
X2059Y659D02*
X2066Y659D01*
X1Y658D02*
X8Y658D01*
X1073Y658D02*
X1082Y658D01*
X2059Y658D02*
X2066Y658D01*
X1Y657D02*
X8Y657D01*
X1073Y657D02*
X1082Y657D01*
X2059Y657D02*
X2066Y657D01*
X1Y656D02*
X8Y656D01*
X1073Y656D02*
X1082Y656D01*
X2059Y656D02*
X2066Y656D01*
X1Y655D02*
X8Y655D01*
X1073Y655D02*
X1082Y655D01*
X2059Y655D02*
X2066Y655D01*
X1Y654D02*
X8Y654D01*
X1073Y654D02*
X1082Y654D01*
X2059Y654D02*
X2066Y654D01*
X1Y653D02*
X8Y653D01*
X1073Y653D02*
X1082Y653D01*
X2059Y653D02*
X2066Y653D01*
X1Y652D02*
X8Y652D01*
X1073Y652D02*
X1082Y652D01*
X2059Y652D02*
X2066Y652D01*
X1Y651D02*
X8Y651D01*
X1073Y651D02*
X1082Y651D01*
X2059Y651D02*
X2066Y651D01*
X1Y650D02*
X8Y650D01*
X1073Y650D02*
X1082Y650D01*
X2059Y650D02*
X2066Y650D01*
X1Y649D02*
X8Y649D01*
X1073Y649D02*
X1082Y649D01*
X2059Y649D02*
X2066Y649D01*
X1Y648D02*
X8Y648D01*
X1073Y648D02*
X1082Y648D01*
X2059Y648D02*
X2066Y648D01*
X1Y647D02*
X8Y647D01*
X1073Y647D02*
X1082Y647D01*
X2059Y647D02*
X2066Y647D01*
X1Y646D02*
X8Y646D01*
X1073Y646D02*
X1082Y646D01*
X2059Y646D02*
X2066Y646D01*
X1Y645D02*
X8Y645D01*
X1073Y645D02*
X1082Y645D01*
X2059Y645D02*
X2066Y645D01*
X1Y644D02*
X8Y644D01*
X1073Y644D02*
X1082Y644D01*
X2059Y644D02*
X2066Y644D01*
X1Y643D02*
X8Y643D01*
X1073Y643D02*
X1082Y643D01*
X2059Y643D02*
X2066Y643D01*
X1Y642D02*
X8Y642D01*
X1073Y642D02*
X1082Y642D01*
X2059Y642D02*
X2066Y642D01*
X1Y641D02*
X8Y641D01*
X1073Y641D02*
X1082Y641D01*
X2059Y641D02*
X2066Y641D01*
X1Y640D02*
X8Y640D01*
X1073Y640D02*
X1082Y640D01*
X2059Y640D02*
X2066Y640D01*
X1Y639D02*
X8Y639D01*
X1073Y639D02*
X1082Y639D01*
X2059Y639D02*
X2066Y639D01*
X1Y638D02*
X8Y638D01*
X1073Y638D02*
X1082Y638D01*
X2059Y638D02*
X2066Y638D01*
X1Y637D02*
X8Y637D01*
X1073Y637D02*
X1082Y637D01*
X2059Y637D02*
X2066Y637D01*
X1Y636D02*
X8Y636D01*
X1073Y636D02*
X1082Y636D01*
X2059Y636D02*
X2066Y636D01*
X1Y635D02*
X8Y635D01*
X1073Y635D02*
X1082Y635D01*
X2059Y635D02*
X2066Y635D01*
X1Y634D02*
X8Y634D01*
X1073Y634D02*
X1082Y634D01*
X2059Y634D02*
X2066Y634D01*
X1Y633D02*
X8Y633D01*
X1073Y633D02*
X1082Y633D01*
X2059Y633D02*
X2066Y633D01*
X1Y632D02*
X8Y632D01*
X1073Y632D02*
X1082Y632D01*
X2059Y632D02*
X2066Y632D01*
X1Y631D02*
X8Y631D01*
X1073Y631D02*
X1082Y631D01*
X2059Y631D02*
X2066Y631D01*
X1Y630D02*
X8Y630D01*
X1073Y630D02*
X1082Y630D01*
X2059Y630D02*
X2066Y630D01*
X1Y629D02*
X8Y629D01*
X1073Y629D02*
X1082Y629D01*
X2059Y629D02*
X2066Y629D01*
X1Y628D02*
X8Y628D01*
X1073Y628D02*
X1082Y628D01*
X2059Y628D02*
X2066Y628D01*
X1Y627D02*
X8Y627D01*
X1073Y627D02*
X1082Y627D01*
X2059Y627D02*
X2066Y627D01*
X1Y626D02*
X8Y626D01*
X1073Y626D02*
X1082Y626D01*
X2059Y626D02*
X2066Y626D01*
X1Y625D02*
X8Y625D01*
X1073Y625D02*
X1082Y625D01*
X2059Y625D02*
X2066Y625D01*
X1Y624D02*
X8Y624D01*
X1073Y624D02*
X1082Y624D01*
X2059Y624D02*
X2066Y624D01*
X1Y623D02*
X8Y623D01*
X1073Y623D02*
X1082Y623D01*
X2059Y623D02*
X2066Y623D01*
X1Y622D02*
X8Y622D01*
X1073Y622D02*
X1082Y622D01*
X2059Y622D02*
X2066Y622D01*
X1Y621D02*
X8Y621D01*
X1073Y621D02*
X1082Y621D01*
X2059Y621D02*
X2066Y621D01*
X1Y620D02*
X8Y620D01*
X2059Y620D02*
X2066Y620D01*
X1Y619D02*
X8Y619D01*
X2059Y619D02*
X2066Y619D01*
X1Y618D02*
X8Y618D01*
X2059Y618D02*
X2066Y618D01*
X1Y617D02*
X8Y617D01*
X2059Y617D02*
X2066Y617D01*
X1Y616D02*
X8Y616D01*
X2059Y616D02*
X2066Y616D01*
X1Y615D02*
X8Y615D01*
X2059Y615D02*
X2066Y615D01*
X1Y614D02*
X8Y614D01*
X2059Y614D02*
X2066Y614D01*
X1Y613D02*
X8Y613D01*
X2059Y613D02*
X2066Y613D01*
X1Y612D02*
X8Y612D01*
X2059Y612D02*
X2066Y612D01*
X1Y611D02*
X8Y611D01*
X2059Y611D02*
X2066Y611D01*
X1Y610D02*
X8Y610D01*
X2059Y610D02*
X2066Y610D01*
X1Y609D02*
X8Y609D01*
X2059Y609D02*
X2066Y609D01*
X1Y608D02*
X8Y608D01*
X2059Y608D02*
X2066Y608D01*
X1Y607D02*
X8Y607D01*
X2059Y607D02*
X2066Y607D01*
X1Y606D02*
X8Y606D01*
X2059Y606D02*
X2066Y606D01*
X1Y605D02*
X8Y605D01*
X2059Y605D02*
X2066Y605D01*
X1Y604D02*
X8Y604D01*
X2059Y604D02*
X2066Y604D01*
X1Y603D02*
X8Y603D01*
X2059Y603D02*
X2066Y603D01*
X1Y602D02*
X8Y602D01*
X2059Y602D02*
X2066Y602D01*
X1Y601D02*
X8Y601D01*
X2059Y601D02*
X2066Y601D01*
X1Y600D02*
X8Y600D01*
X2059Y600D02*
X2066Y600D01*
X1Y599D02*
X8Y599D01*
X2059Y599D02*
X2066Y599D01*
X1Y598D02*
X8Y598D01*
X2059Y598D02*
X2066Y598D01*
X1Y597D02*
X8Y597D01*
X2059Y597D02*
X2066Y597D01*
X1Y596D02*
X8Y596D01*
X2059Y596D02*
X2066Y596D01*
X1Y595D02*
X8Y595D01*
X2059Y595D02*
X2066Y595D01*
X1Y594D02*
X8Y594D01*
X2059Y594D02*
X2066Y594D01*
X1Y593D02*
X8Y593D01*
X2059Y593D02*
X2066Y593D01*
X1Y592D02*
X8Y592D01*
X2059Y592D02*
X2066Y592D01*
X1Y591D02*
X8Y591D01*
X2059Y591D02*
X2066Y591D01*
X1Y590D02*
X8Y590D01*
X2059Y590D02*
X2066Y590D01*
X1Y589D02*
X8Y589D01*
X2059Y589D02*
X2066Y589D01*
X1Y588D02*
X8Y588D01*
X2059Y588D02*
X2066Y588D01*
X1Y587D02*
X8Y587D01*
X2059Y587D02*
X2066Y587D01*
X1Y586D02*
X8Y586D01*
X2059Y586D02*
X2066Y586D01*
X1Y585D02*
X8Y585D01*
X2059Y585D02*
X2066Y585D01*
X1Y584D02*
X8Y584D01*
X2059Y584D02*
X2066Y584D01*
X1Y583D02*
X8Y583D01*
X2059Y583D02*
X2066Y583D01*
X1Y582D02*
X8Y582D01*
X2059Y582D02*
X2066Y582D01*
X1Y581D02*
X8Y581D01*
X2059Y581D02*
X2066Y581D01*
X1Y580D02*
X8Y580D01*
X2059Y580D02*
X2066Y580D01*
X1Y579D02*
X8Y579D01*
X2059Y579D02*
X2066Y579D01*
X1Y578D02*
X8Y578D01*
X2059Y578D02*
X2066Y578D01*
X1Y577D02*
X8Y577D01*
X2059Y577D02*
X2066Y577D01*
X1Y576D02*
X8Y576D01*
X2059Y576D02*
X2066Y576D01*
X1Y575D02*
X8Y575D01*
X2059Y575D02*
X2066Y575D01*
X1Y574D02*
X8Y574D01*
X2059Y574D02*
X2066Y574D01*
X1Y573D02*
X8Y573D01*
X2059Y573D02*
X2066Y573D01*
X1Y572D02*
X8Y572D01*
X2059Y572D02*
X2066Y572D01*
X1Y571D02*
X8Y571D01*
X2059Y571D02*
X2066Y571D01*
X1Y570D02*
X8Y570D01*
X2059Y570D02*
X2066Y570D01*
X1Y569D02*
X8Y569D01*
X2059Y569D02*
X2066Y569D01*
X1Y568D02*
X8Y568D01*
X2059Y568D02*
X2066Y568D01*
X1Y567D02*
X8Y567D01*
X2059Y567D02*
X2066Y567D01*
X1Y566D02*
X8Y566D01*
X2059Y566D02*
X2066Y566D01*
X1Y565D02*
X8Y565D01*
X2059Y565D02*
X2066Y565D01*
X1Y564D02*
X8Y564D01*
X2059Y564D02*
X2066Y564D01*
X1Y563D02*
X8Y563D01*
X2059Y563D02*
X2066Y563D01*
X1Y562D02*
X8Y562D01*
X2059Y562D02*
X2066Y562D01*
X1Y561D02*
X8Y561D01*
X2059Y561D02*
X2066Y561D01*
X1Y560D02*
X8Y560D01*
X2059Y560D02*
X2066Y560D01*
X1Y559D02*
X8Y559D01*
X2059Y559D02*
X2066Y559D01*
X1Y558D02*
X8Y558D01*
X2059Y558D02*
X2066Y558D01*
X1Y557D02*
X8Y557D01*
X2059Y557D02*
X2066Y557D01*
X1Y556D02*
X8Y556D01*
X2059Y556D02*
X2066Y556D01*
X1Y555D02*
X8Y555D01*
X2059Y555D02*
X2066Y555D01*
X1Y554D02*
X8Y554D01*
X2059Y554D02*
X2066Y554D01*
X1Y553D02*
X8Y553D01*
X2059Y553D02*
X2066Y553D01*
X1Y552D02*
X8Y552D01*
X2059Y552D02*
X2066Y552D01*
X1Y551D02*
X8Y551D01*
X2059Y551D02*
X2066Y551D01*
X1Y550D02*
X8Y550D01*
X2059Y550D02*
X2066Y550D01*
X1Y549D02*
X8Y549D01*
X2059Y549D02*
X2066Y549D01*
X1Y548D02*
X8Y548D01*
X2059Y548D02*
X2066Y548D01*
X1Y547D02*
X8Y547D01*
X2059Y547D02*
X2066Y547D01*
X1Y546D02*
X8Y546D01*
X2059Y546D02*
X2066Y546D01*
X1Y545D02*
X8Y545D01*
X2059Y545D02*
X2066Y545D01*
X1Y544D02*
X8Y544D01*
X2059Y544D02*
X2066Y544D01*
X1Y543D02*
X8Y543D01*
X2059Y543D02*
X2066Y543D01*
X1Y542D02*
X8Y542D01*
X2059Y542D02*
X2066Y542D01*
X1Y541D02*
X8Y541D01*
X2059Y541D02*
X2066Y541D01*
X1Y540D02*
X8Y540D01*
X2059Y540D02*
X2066Y540D01*
X1Y539D02*
X8Y539D01*
X2059Y539D02*
X2066Y539D01*
X1Y538D02*
X8Y538D01*
X2059Y538D02*
X2066Y538D01*
X1Y537D02*
X8Y537D01*
X2059Y537D02*
X2066Y537D01*
X1Y536D02*
X8Y536D01*
X2059Y536D02*
X2066Y536D01*
X1Y535D02*
X8Y535D01*
X2059Y535D02*
X2066Y535D01*
X1Y534D02*
X8Y534D01*
X2059Y534D02*
X2066Y534D01*
X1Y533D02*
X8Y533D01*
X2059Y533D02*
X2066Y533D01*
X1Y532D02*
X8Y532D01*
X2059Y532D02*
X2066Y532D01*
X1Y531D02*
X8Y531D01*
X2059Y531D02*
X2066Y531D01*
X1Y530D02*
X8Y530D01*
X2059Y530D02*
X2066Y530D01*
X1Y529D02*
X8Y529D01*
X2059Y529D02*
X2066Y529D01*
X1Y528D02*
X8Y528D01*
X2059Y528D02*
X2066Y528D01*
X1Y527D02*
X8Y527D01*
X2059Y527D02*
X2066Y527D01*
X1Y526D02*
X8Y526D01*
X2059Y526D02*
X2066Y526D01*
X1Y525D02*
X8Y525D01*
X2059Y525D02*
X2066Y525D01*
X1Y524D02*
X8Y524D01*
X2059Y524D02*
X2066Y524D01*
X1Y523D02*
X8Y523D01*
X2059Y523D02*
X2066Y523D01*
X1Y522D02*
X8Y522D01*
X2059Y522D02*
X2066Y522D01*
X1Y521D02*
X8Y521D01*
X2059Y521D02*
X2066Y521D01*
X1Y520D02*
X8Y520D01*
X2059Y520D02*
X2066Y520D01*
X1Y519D02*
X8Y519D01*
X2059Y519D02*
X2066Y519D01*
X1Y518D02*
X8Y518D01*
X2059Y518D02*
X2066Y518D01*
X1Y517D02*
X8Y517D01*
X2059Y517D02*
X2066Y517D01*
X1Y516D02*
X8Y516D01*
X2059Y516D02*
X2066Y516D01*
X1Y515D02*
X8Y515D01*
X2059Y515D02*
X2066Y515D01*
X1Y514D02*
X8Y514D01*
X2059Y514D02*
X2066Y514D01*
X1Y513D02*
X8Y513D01*
X2059Y513D02*
X2066Y513D01*
X1Y512D02*
X8Y512D01*
X2059Y512D02*
X2066Y512D01*
X1Y511D02*
X8Y511D01*
X2059Y511D02*
X2066Y511D01*
X1Y510D02*
X8Y510D01*
X2059Y510D02*
X2066Y510D01*
X1Y509D02*
X8Y509D01*
X2059Y509D02*
X2066Y509D01*
X1Y508D02*
X8Y508D01*
X2059Y508D02*
X2066Y508D01*
X1Y507D02*
X8Y507D01*
X2059Y507D02*
X2066Y507D01*
X1Y506D02*
X8Y506D01*
X2059Y506D02*
X2066Y506D01*
X1Y505D02*
X8Y505D01*
X2059Y505D02*
X2066Y505D01*
X1Y504D02*
X8Y504D01*
X2059Y504D02*
X2066Y504D01*
X1Y503D02*
X8Y503D01*
X2059Y503D02*
X2066Y503D01*
X1Y502D02*
X8Y502D01*
X2059Y502D02*
X2066Y502D01*
X1Y501D02*
X8Y501D01*
X2059Y501D02*
X2066Y501D01*
X1Y500D02*
X8Y500D01*
X2059Y500D02*
X2066Y500D01*
X1Y499D02*
X8Y499D01*
X2059Y499D02*
X2066Y499D01*
X1Y498D02*
X8Y498D01*
X2059Y498D02*
X2066Y498D01*
X1Y497D02*
X8Y497D01*
X2059Y497D02*
X2066Y497D01*
X1Y496D02*
X8Y496D01*
X2059Y496D02*
X2066Y496D01*
X1Y495D02*
X8Y495D01*
X2059Y495D02*
X2066Y495D01*
X1Y494D02*
X8Y494D01*
X2059Y494D02*
X2066Y494D01*
X1Y493D02*
X8Y493D01*
X2059Y493D02*
X2066Y493D01*
X1Y492D02*
X8Y492D01*
X2059Y492D02*
X2066Y492D01*
X1Y491D02*
X8Y491D01*
X2059Y491D02*
X2066Y491D01*
X1Y490D02*
X8Y490D01*
X2059Y490D02*
X2066Y490D01*
X1Y489D02*
X8Y489D01*
X2059Y489D02*
X2066Y489D01*
X1Y488D02*
X8Y488D01*
X2059Y488D02*
X2066Y488D01*
X1Y487D02*
X8Y487D01*
X2059Y487D02*
X2066Y487D01*
X1Y486D02*
X8Y486D01*
X2059Y486D02*
X2066Y486D01*
X1Y485D02*
X8Y485D01*
X2059Y485D02*
X2066Y485D01*
X1Y484D02*
X8Y484D01*
X2059Y484D02*
X2066Y484D01*
X1Y483D02*
X8Y483D01*
X2059Y483D02*
X2066Y483D01*
X1Y482D02*
X8Y482D01*
X2059Y482D02*
X2066Y482D01*
X1Y481D02*
X8Y481D01*
X2059Y481D02*
X2066Y481D01*
X1Y480D02*
X8Y480D01*
X2059Y480D02*
X2066Y480D01*
X1Y479D02*
X8Y479D01*
X2059Y479D02*
X2066Y479D01*
X1Y478D02*
X8Y478D01*
X2059Y478D02*
X2066Y478D01*
X1Y477D02*
X8Y477D01*
X2059Y477D02*
X2066Y477D01*
X1Y476D02*
X8Y476D01*
X2059Y476D02*
X2066Y476D01*
X1Y475D02*
X8Y475D01*
X2059Y475D02*
X2066Y475D01*
X1Y474D02*
X8Y474D01*
X2059Y474D02*
X2066Y474D01*
X1Y473D02*
X8Y473D01*
X2059Y473D02*
X2066Y473D01*
X1Y472D02*
X8Y472D01*
X2059Y472D02*
X2066Y472D01*
X1Y471D02*
X8Y471D01*
X2059Y471D02*
X2066Y471D01*
X1Y470D02*
X8Y470D01*
X2059Y470D02*
X2066Y470D01*
X1Y469D02*
X8Y469D01*
X2059Y469D02*
X2066Y469D01*
X1Y468D02*
X8Y468D01*
X2059Y468D02*
X2066Y468D01*
X1Y467D02*
X8Y467D01*
X2059Y467D02*
X2066Y467D01*
X1Y466D02*
X8Y466D01*
X2059Y466D02*
X2066Y466D01*
X1Y465D02*
X8Y465D01*
X2059Y465D02*
X2066Y465D01*
X1Y464D02*
X8Y464D01*
X2059Y464D02*
X2066Y464D01*
X1Y463D02*
X8Y463D01*
X2059Y463D02*
X2066Y463D01*
X1Y462D02*
X8Y462D01*
X2059Y462D02*
X2066Y462D01*
X1Y461D02*
X8Y461D01*
X1326Y461D02*
X1326Y461D01*
X2059Y461D02*
X2066Y461D01*
X1Y460D02*
X8Y460D01*
X1324Y460D02*
X1328Y460D01*
X2059Y460D02*
X2066Y460D01*
X1Y459D02*
X8Y459D01*
X1323Y459D02*
X1329Y459D01*
X2059Y459D02*
X2066Y459D01*
X1Y458D02*
X8Y458D01*
X1323Y458D02*
X1329Y458D01*
X2059Y458D02*
X2066Y458D01*
X1Y457D02*
X8Y457D01*
X1323Y457D02*
X1329Y457D01*
X2059Y457D02*
X2066Y457D01*
X1Y456D02*
X8Y456D01*
X1323Y456D02*
X1329Y456D01*
X2059Y456D02*
X2066Y456D01*
X1Y455D02*
X8Y455D01*
X1323Y455D02*
X1329Y455D01*
X2059Y455D02*
X2066Y455D01*
X1Y454D02*
X8Y454D01*
X1323Y454D02*
X1329Y454D01*
X2059Y454D02*
X2066Y454D01*
X1Y453D02*
X8Y453D01*
X1323Y453D02*
X1329Y453D01*
X2059Y453D02*
X2066Y453D01*
X1Y452D02*
X8Y452D01*
X1323Y452D02*
X1329Y452D01*
X2059Y452D02*
X2066Y452D01*
X1Y451D02*
X8Y451D01*
X1323Y451D02*
X1329Y451D01*
X2059Y451D02*
X2066Y451D01*
X1Y450D02*
X8Y450D01*
X1323Y450D02*
X1329Y450D01*
X2059Y450D02*
X2066Y450D01*
X1Y449D02*
X8Y449D01*
X1323Y449D02*
X1329Y449D01*
X2059Y449D02*
X2066Y449D01*
X1Y448D02*
X8Y448D01*
X1323Y448D02*
X1329Y448D01*
X2059Y448D02*
X2066Y448D01*
X1Y447D02*
X8Y447D01*
X1323Y447D02*
X1329Y447D01*
X2059Y447D02*
X2066Y447D01*
X1Y446D02*
X8Y446D01*
X1323Y446D02*
X1329Y446D01*
X2059Y446D02*
X2066Y446D01*
X1Y445D02*
X8Y445D01*
X1323Y445D02*
X1329Y445D01*
X2059Y445D02*
X2066Y445D01*
X1Y444D02*
X8Y444D01*
X1323Y444D02*
X1329Y444D01*
X2059Y444D02*
X2066Y444D01*
X1Y443D02*
X8Y443D01*
X1323Y443D02*
X1329Y443D01*
X2059Y443D02*
X2066Y443D01*
X1Y442D02*
X8Y442D01*
X1323Y442D02*
X1329Y442D01*
X2059Y442D02*
X2066Y442D01*
X1Y441D02*
X8Y441D01*
X1323Y441D02*
X1329Y441D01*
X2059Y441D02*
X2066Y441D01*
X1Y440D02*
X8Y440D01*
X1323Y440D02*
X1329Y440D01*
X2059Y440D02*
X2066Y440D01*
X1Y439D02*
X8Y439D01*
X1323Y439D02*
X1329Y439D01*
X2059Y439D02*
X2066Y439D01*
X1Y438D02*
X8Y438D01*
X1323Y438D02*
X1329Y438D01*
X2059Y438D02*
X2066Y438D01*
X1Y437D02*
X8Y437D01*
X1323Y437D02*
X1329Y437D01*
X2059Y437D02*
X2066Y437D01*
X1Y436D02*
X8Y436D01*
X1323Y436D02*
X1329Y436D01*
X2059Y436D02*
X2066Y436D01*
X1Y435D02*
X8Y435D01*
X1323Y435D02*
X1329Y435D01*
X2059Y435D02*
X2066Y435D01*
X1Y434D02*
X8Y434D01*
X1323Y434D02*
X1329Y434D01*
X2059Y434D02*
X2066Y434D01*
X1Y433D02*
X8Y433D01*
X1323Y433D02*
X1329Y433D01*
X2059Y433D02*
X2066Y433D01*
X1Y432D02*
X8Y432D01*
X1323Y432D02*
X1329Y432D01*
X2059Y432D02*
X2066Y432D01*
X1Y431D02*
X8Y431D01*
X1323Y431D02*
X1333Y431D01*
X2059Y431D02*
X2066Y431D01*
X1Y430D02*
X8Y430D01*
X1323Y430D02*
X1333Y430D01*
X2059Y430D02*
X2066Y430D01*
X1Y429D02*
X8Y429D01*
X1323Y429D02*
X1333Y429D01*
X2059Y429D02*
X2066Y429D01*
X1Y428D02*
X8Y428D01*
X1323Y428D02*
X1333Y428D01*
X2059Y428D02*
X2066Y428D01*
X1Y427D02*
X8Y427D01*
X1323Y427D02*
X1333Y427D01*
X2059Y427D02*
X2066Y427D01*
X1Y426D02*
X8Y426D01*
X1323Y426D02*
X1333Y426D01*
X2059Y426D02*
X2066Y426D01*
X1Y425D02*
X8Y425D01*
X1323Y425D02*
X1333Y425D01*
X2059Y425D02*
X2066Y425D01*
X1Y424D02*
X8Y424D01*
X1323Y424D02*
X1329Y424D01*
X2059Y424D02*
X2066Y424D01*
X1Y423D02*
X8Y423D01*
X1323Y423D02*
X1329Y423D01*
X2059Y423D02*
X2066Y423D01*
X1Y422D02*
X8Y422D01*
X1323Y422D02*
X1329Y422D01*
X2059Y422D02*
X2066Y422D01*
X1Y421D02*
X8Y421D01*
X1323Y421D02*
X1329Y421D01*
X2059Y421D02*
X2066Y421D01*
X1Y420D02*
X8Y420D01*
X1073Y420D02*
X1081Y420D01*
X1323Y420D02*
X1329Y420D01*
X2059Y420D02*
X2066Y420D01*
X1Y419D02*
X8Y419D01*
X1073Y419D02*
X1082Y419D01*
X1323Y419D02*
X1329Y419D01*
X2059Y419D02*
X2066Y419D01*
X1Y418D02*
X8Y418D01*
X1073Y418D02*
X1082Y418D01*
X1323Y418D02*
X1329Y418D01*
X2059Y418D02*
X2066Y418D01*
X1Y417D02*
X8Y417D01*
X1073Y417D02*
X1082Y417D01*
X1323Y417D02*
X1329Y417D01*
X2059Y417D02*
X2066Y417D01*
X1Y416D02*
X8Y416D01*
X1073Y416D02*
X1082Y416D01*
X1323Y416D02*
X1329Y416D01*
X2059Y416D02*
X2066Y416D01*
X1Y415D02*
X8Y415D01*
X1073Y415D02*
X1082Y415D01*
X1323Y415D02*
X1329Y415D01*
X2059Y415D02*
X2066Y415D01*
X1Y414D02*
X8Y414D01*
X1073Y414D02*
X1082Y414D01*
X1323Y414D02*
X1335Y414D01*
X2059Y414D02*
X2066Y414D01*
X1Y413D02*
X8Y413D01*
X1073Y413D02*
X1082Y413D01*
X1323Y413D02*
X1336Y413D01*
X2059Y413D02*
X2066Y413D01*
X1Y412D02*
X8Y412D01*
X1073Y412D02*
X1082Y412D01*
X1323Y412D02*
X1336Y412D01*
X2059Y412D02*
X2066Y412D01*
X1Y411D02*
X8Y411D01*
X1073Y411D02*
X1082Y411D01*
X1323Y411D02*
X1337Y411D01*
X2059Y411D02*
X2066Y411D01*
X1Y410D02*
X8Y410D01*
X1073Y410D02*
X1082Y410D01*
X1323Y410D02*
X1337Y410D01*
X2059Y410D02*
X2066Y410D01*
X1Y409D02*
X8Y409D01*
X1073Y409D02*
X1082Y409D01*
X1323Y409D02*
X1338Y409D01*
X2059Y409D02*
X2066Y409D01*
X1Y408D02*
X8Y408D01*
X1073Y408D02*
X1082Y408D01*
X1323Y408D02*
X1338Y408D01*
X2059Y408D02*
X2066Y408D01*
X1Y407D02*
X8Y407D01*
X1073Y407D02*
X1082Y407D01*
X1323Y407D02*
X1339Y407D01*
X2059Y407D02*
X2066Y407D01*
X1Y406D02*
X8Y406D01*
X1073Y406D02*
X1082Y406D01*
X2059Y406D02*
X2066Y406D01*
X1Y405D02*
X8Y405D01*
X1073Y405D02*
X1082Y405D01*
X2059Y405D02*
X2066Y405D01*
X1Y404D02*
X8Y404D01*
X1073Y404D02*
X1082Y404D01*
X2059Y404D02*
X2066Y404D01*
X1Y403D02*
X8Y403D01*
X1073Y403D02*
X1082Y403D01*
X2059Y403D02*
X2066Y403D01*
X1Y402D02*
X8Y402D01*
X1073Y402D02*
X1082Y402D01*
X2059Y402D02*
X2066Y402D01*
X1Y401D02*
X8Y401D01*
X1073Y401D02*
X1082Y401D01*
X2059Y401D02*
X2066Y401D01*
X1Y400D02*
X8Y400D01*
X1073Y400D02*
X1082Y400D01*
X2059Y400D02*
X2066Y400D01*
X1Y399D02*
X8Y399D01*
X1073Y399D02*
X1082Y399D01*
X2059Y399D02*
X2066Y399D01*
X1Y398D02*
X8Y398D01*
X1073Y398D02*
X1082Y398D01*
X2059Y398D02*
X2066Y398D01*
X1Y397D02*
X8Y397D01*
X1073Y397D02*
X1082Y397D01*
X2059Y397D02*
X2066Y397D01*
X1Y396D02*
X8Y396D01*
X1073Y396D02*
X1082Y396D01*
X2059Y396D02*
X2066Y396D01*
X1Y395D02*
X8Y395D01*
X1073Y395D02*
X1082Y395D01*
X2059Y395D02*
X2066Y395D01*
X1Y394D02*
X8Y394D01*
X1073Y394D02*
X1082Y394D01*
X2059Y394D02*
X2066Y394D01*
X1Y393D02*
X8Y393D01*
X1073Y393D02*
X1082Y393D01*
X2059Y393D02*
X2066Y393D01*
X1Y392D02*
X8Y392D01*
X1073Y392D02*
X1082Y392D01*
X2059Y392D02*
X2066Y392D01*
X1Y391D02*
X8Y391D01*
X1073Y391D02*
X1082Y391D01*
X2059Y391D02*
X2066Y391D01*
X1Y390D02*
X8Y390D01*
X1073Y390D02*
X1082Y390D01*
X2059Y390D02*
X2066Y390D01*
X1Y389D02*
X8Y389D01*
X1073Y389D02*
X1082Y389D01*
X2059Y389D02*
X2066Y389D01*
X1Y388D02*
X8Y388D01*
X1073Y388D02*
X1082Y388D01*
X2059Y388D02*
X2066Y388D01*
X1Y387D02*
X8Y387D01*
X1073Y387D02*
X1082Y387D01*
X2059Y387D02*
X2066Y387D01*
X1Y386D02*
X8Y386D01*
X1073Y386D02*
X1082Y386D01*
X2059Y386D02*
X2066Y386D01*
X1Y385D02*
X8Y385D01*
X1073Y385D02*
X1082Y385D01*
X2059Y385D02*
X2066Y385D01*
X1Y384D02*
X8Y384D01*
X1073Y384D02*
X1082Y384D01*
X2059Y384D02*
X2066Y384D01*
X1Y383D02*
X8Y383D01*
X1073Y383D02*
X1082Y383D01*
X2059Y383D02*
X2066Y383D01*
X1Y382D02*
X8Y382D01*
X1073Y382D02*
X1082Y382D01*
X2059Y382D02*
X2066Y382D01*
X1Y381D02*
X8Y381D01*
X1073Y381D02*
X1082Y381D01*
X2059Y381D02*
X2066Y381D01*
X1Y380D02*
X8Y380D01*
X1073Y380D02*
X1082Y380D01*
X2059Y380D02*
X2066Y380D01*
X1Y379D02*
X8Y379D01*
X1073Y379D02*
X1082Y379D01*
X2059Y379D02*
X2066Y379D01*
X1Y378D02*
X8Y378D01*
X1073Y378D02*
X1082Y378D01*
X2059Y378D02*
X2066Y378D01*
X1Y377D02*
X8Y377D01*
X1073Y377D02*
X1082Y377D01*
X2059Y377D02*
X2066Y377D01*
X1Y376D02*
X8Y376D01*
X1073Y376D02*
X1082Y376D01*
X2059Y376D02*
X2066Y376D01*
X1Y375D02*
X8Y375D01*
X1073Y375D02*
X1082Y375D01*
X2059Y375D02*
X2066Y375D01*
X1Y374D02*
X8Y374D01*
X1073Y374D02*
X1082Y374D01*
X2059Y374D02*
X2066Y374D01*
X1Y373D02*
X8Y373D01*
X1073Y373D02*
X1082Y373D01*
X2059Y373D02*
X2066Y373D01*
X1Y372D02*
X8Y372D01*
X1082Y372D02*
X1082Y372D01*
X2059Y372D02*
X2066Y372D01*
X1Y371D02*
X8Y371D01*
X2059Y371D02*
X2066Y371D01*
X1Y370D02*
X8Y370D01*
X2059Y370D02*
X2066Y370D01*
X1Y369D02*
X8Y369D01*
X2059Y369D02*
X2066Y369D01*
X1Y368D02*
X8Y368D01*
X2059Y368D02*
X2066Y368D01*
X1Y367D02*
X8Y367D01*
X2059Y367D02*
X2066Y367D01*
X1Y366D02*
X8Y366D01*
X2059Y366D02*
X2066Y366D01*
X1Y365D02*
X8Y365D01*
X2059Y365D02*
X2066Y365D01*
X1Y364D02*
X8Y364D01*
X2059Y364D02*
X2066Y364D01*
X1Y363D02*
X8Y363D01*
X2059Y363D02*
X2066Y363D01*
X1Y362D02*
X8Y362D01*
X2059Y362D02*
X2066Y362D01*
X1Y361D02*
X8Y361D01*
X2059Y361D02*
X2066Y361D01*
X1Y360D02*
X8Y360D01*
X2059Y360D02*
X2066Y360D01*
X1Y359D02*
X8Y359D01*
X2059Y359D02*
X2066Y359D01*
X1Y358D02*
X8Y358D01*
X2059Y358D02*
X2066Y358D01*
X1Y357D02*
X8Y357D01*
X2059Y357D02*
X2066Y357D01*
X1Y356D02*
X8Y356D01*
X2059Y356D02*
X2066Y356D01*
X1Y355D02*
X8Y355D01*
X2059Y355D02*
X2066Y355D01*
X1Y354D02*
X8Y354D01*
X2059Y354D02*
X2066Y354D01*
X1Y353D02*
X8Y353D01*
X2059Y353D02*
X2066Y353D01*
X1Y352D02*
X8Y352D01*
X2059Y352D02*
X2066Y352D01*
X1Y351D02*
X8Y351D01*
X2059Y351D02*
X2066Y351D01*
X1Y350D02*
X8Y350D01*
X2059Y350D02*
X2066Y350D01*
X1Y349D02*
X8Y349D01*
X2059Y349D02*
X2066Y349D01*
X1Y348D02*
X8Y348D01*
X2059Y348D02*
X2066Y348D01*
X1Y347D02*
X8Y347D01*
X2059Y347D02*
X2066Y347D01*
X1Y346D02*
X8Y346D01*
X2059Y346D02*
X2066Y346D01*
X1Y345D02*
X8Y345D01*
X2059Y345D02*
X2066Y345D01*
X1Y344D02*
X8Y344D01*
X2059Y344D02*
X2066Y344D01*
X1Y343D02*
X8Y343D01*
X2059Y343D02*
X2066Y343D01*
X1Y342D02*
X8Y342D01*
X2059Y342D02*
X2066Y342D01*
X1Y341D02*
X8Y341D01*
X2059Y341D02*
X2066Y341D01*
X1Y340D02*
X8Y340D01*
X2059Y340D02*
X2066Y340D01*
X1Y339D02*
X8Y339D01*
X2059Y339D02*
X2066Y339D01*
X1Y338D02*
X8Y338D01*
X2059Y338D02*
X2066Y338D01*
X1Y337D02*
X8Y337D01*
X2059Y337D02*
X2066Y337D01*
X1Y336D02*
X8Y336D01*
X2059Y336D02*
X2066Y336D01*
X1Y335D02*
X8Y335D01*
X2059Y335D02*
X2066Y335D01*
X1Y334D02*
X8Y334D01*
X2059Y334D02*
X2066Y334D01*
X1Y333D02*
X8Y333D01*
X2059Y333D02*
X2066Y333D01*
X1Y332D02*
X8Y332D01*
X2059Y332D02*
X2066Y332D01*
X1Y331D02*
X8Y331D01*
X2059Y331D02*
X2066Y331D01*
X1Y330D02*
X8Y330D01*
X2059Y330D02*
X2066Y330D01*
X1Y329D02*
X8Y329D01*
X2059Y329D02*
X2066Y329D01*
X1Y328D02*
X8Y328D01*
X2059Y328D02*
X2066Y328D01*
X1Y327D02*
X8Y327D01*
X2059Y327D02*
X2066Y327D01*
X1Y326D02*
X8Y326D01*
X2059Y326D02*
X2066Y326D01*
X1Y325D02*
X8Y325D01*
X2059Y325D02*
X2066Y325D01*
X1Y324D02*
X8Y324D01*
X2059Y324D02*
X2066Y324D01*
X1Y323D02*
X8Y323D01*
X2059Y323D02*
X2066Y323D01*
X1Y322D02*
X8Y322D01*
X2059Y322D02*
X2066Y322D01*
X1Y321D02*
X8Y321D01*
X2059Y321D02*
X2066Y321D01*
X1Y320D02*
X8Y320D01*
X2059Y320D02*
X2066Y320D01*
X1Y319D02*
X8Y319D01*
X2059Y319D02*
X2066Y319D01*
X1Y318D02*
X8Y318D01*
X2059Y318D02*
X2066Y318D01*
X1Y317D02*
X8Y317D01*
X2059Y317D02*
X2066Y317D01*
X1Y316D02*
X8Y316D01*
X2059Y316D02*
X2066Y316D01*
X1Y315D02*
X8Y315D01*
X2059Y315D02*
X2066Y315D01*
X1Y314D02*
X8Y314D01*
X2059Y314D02*
X2066Y314D01*
X1Y313D02*
X8Y313D01*
X2059Y313D02*
X2066Y313D01*
X1Y312D02*
X8Y312D01*
X2059Y312D02*
X2066Y312D01*
X1Y311D02*
X8Y311D01*
X2059Y311D02*
X2066Y311D01*
X1Y310D02*
X8Y310D01*
X2059Y310D02*
X2066Y310D01*
X1Y309D02*
X8Y309D01*
X2059Y309D02*
X2066Y309D01*
X1Y308D02*
X8Y308D01*
X2059Y308D02*
X2066Y308D01*
X1Y307D02*
X8Y307D01*
X2059Y307D02*
X2066Y307D01*
X1Y306D02*
X8Y306D01*
X2059Y306D02*
X2066Y306D01*
X1Y305D02*
X8Y305D01*
X2059Y305D02*
X2066Y305D01*
X1Y304D02*
X8Y304D01*
X2059Y304D02*
X2066Y304D01*
X1Y303D02*
X8Y303D01*
X2059Y303D02*
X2066Y303D01*
X1Y302D02*
X8Y302D01*
X2059Y302D02*
X2066Y302D01*
X1Y301D02*
X8Y301D01*
X2059Y301D02*
X2066Y301D01*
X1Y300D02*
X8Y300D01*
X2059Y300D02*
X2066Y300D01*
X1Y299D02*
X8Y299D01*
X2059Y299D02*
X2066Y299D01*
X1Y298D02*
X8Y298D01*
X2059Y298D02*
X2066Y298D01*
X1Y297D02*
X8Y297D01*
X2059Y297D02*
X2066Y297D01*
X1Y296D02*
X8Y296D01*
X2059Y296D02*
X2066Y296D01*
X1Y295D02*
X8Y295D01*
X2059Y295D02*
X2066Y295D01*
X1Y294D02*
X8Y294D01*
X2059Y294D02*
X2066Y294D01*
X1Y293D02*
X8Y293D01*
X2059Y293D02*
X2066Y293D01*
X1Y292D02*
X8Y292D01*
X2059Y292D02*
X2066Y292D01*
X1Y291D02*
X8Y291D01*
X2059Y291D02*
X2066Y291D01*
X1Y290D02*
X8Y290D01*
X2059Y290D02*
X2066Y290D01*
X1Y289D02*
X8Y289D01*
X2059Y289D02*
X2066Y289D01*
X1Y288D02*
X8Y288D01*
X2059Y288D02*
X2066Y288D01*
X1Y287D02*
X8Y287D01*
X2059Y287D02*
X2066Y287D01*
X1Y286D02*
X8Y286D01*
X2059Y286D02*
X2066Y286D01*
X1Y285D02*
X8Y285D01*
X2059Y285D02*
X2066Y285D01*
X1Y284D02*
X8Y284D01*
X2059Y284D02*
X2066Y284D01*
X1Y283D02*
X8Y283D01*
X2059Y283D02*
X2066Y283D01*
X1Y282D02*
X8Y282D01*
X2059Y282D02*
X2066Y282D01*
X1Y281D02*
X8Y281D01*
X2059Y281D02*
X2066Y281D01*
X1Y280D02*
X8Y280D01*
X2059Y280D02*
X2066Y280D01*
X1Y279D02*
X8Y279D01*
X2059Y279D02*
X2066Y279D01*
X1Y278D02*
X8Y278D01*
X2059Y278D02*
X2066Y278D01*
X1Y277D02*
X8Y277D01*
X2059Y277D02*
X2066Y277D01*
X1Y276D02*
X8Y276D01*
X2059Y276D02*
X2066Y276D01*
X1Y275D02*
X8Y275D01*
X2059Y275D02*
X2066Y275D01*
X1Y274D02*
X8Y274D01*
X2059Y274D02*
X2066Y274D01*
X1Y273D02*
X8Y273D01*
X2059Y273D02*
X2066Y273D01*
X1Y272D02*
X8Y272D01*
X2059Y272D02*
X2066Y272D01*
X1Y271D02*
X8Y271D01*
X2059Y271D02*
X2066Y271D01*
X1Y270D02*
X8Y270D01*
X2059Y270D02*
X2066Y270D01*
X1Y269D02*
X8Y269D01*
X2059Y269D02*
X2066Y269D01*
X1Y268D02*
X8Y268D01*
X2059Y268D02*
X2066Y268D01*
X1Y267D02*
X8Y267D01*
X2059Y267D02*
X2066Y267D01*
X1Y266D02*
X8Y266D01*
X2059Y266D02*
X2066Y266D01*
X1Y265D02*
X8Y265D01*
X2059Y265D02*
X2066Y265D01*
X1Y264D02*
X8Y264D01*
X2059Y264D02*
X2066Y264D01*
X1Y263D02*
X8Y263D01*
X2059Y263D02*
X2066Y263D01*
X1Y262D02*
X8Y262D01*
X2059Y262D02*
X2066Y262D01*
X1Y261D02*
X8Y261D01*
X2059Y261D02*
X2066Y261D01*
X1Y260D02*
X8Y260D01*
X2059Y260D02*
X2066Y260D01*
X1Y259D02*
X8Y259D01*
X2059Y259D02*
X2066Y259D01*
X1Y258D02*
X8Y258D01*
X2059Y258D02*
X2066Y258D01*
X1Y257D02*
X8Y257D01*
X2059Y257D02*
X2066Y257D01*
X1Y256D02*
X8Y256D01*
X2059Y256D02*
X2066Y256D01*
X1Y255D02*
X8Y255D01*
X2059Y255D02*
X2066Y255D01*
X1Y254D02*
X8Y254D01*
X2059Y254D02*
X2066Y254D01*
X1Y253D02*
X8Y253D01*
X2059Y253D02*
X2066Y253D01*
X1Y252D02*
X8Y252D01*
X2059Y252D02*
X2066Y252D01*
X1Y251D02*
X8Y251D01*
X2059Y251D02*
X2066Y251D01*
X1Y250D02*
X8Y250D01*
X2059Y250D02*
X2066Y250D01*
X1Y249D02*
X8Y249D01*
X2059Y249D02*
X2066Y249D01*
X1Y248D02*
X8Y248D01*
X2059Y248D02*
X2066Y248D01*
X1Y247D02*
X8Y247D01*
X2059Y247D02*
X2066Y247D01*
X1Y246D02*
X8Y246D01*
X2059Y246D02*
X2066Y246D01*
X1Y245D02*
X8Y245D01*
X2059Y245D02*
X2066Y245D01*
X1Y244D02*
X8Y244D01*
X2059Y244D02*
X2066Y244D01*
X1Y243D02*
X8Y243D01*
X2059Y243D02*
X2066Y243D01*
X1Y242D02*
X8Y242D01*
X2059Y242D02*
X2066Y242D01*
X1Y241D02*
X8Y241D01*
X2059Y241D02*
X2066Y241D01*
X1Y240D02*
X8Y240D01*
X2059Y240D02*
X2066Y240D01*
X1Y239D02*
X8Y239D01*
X2059Y239D02*
X2066Y239D01*
X1Y238D02*
X8Y238D01*
X2059Y238D02*
X2066Y238D01*
X1Y237D02*
X8Y237D01*
X2059Y237D02*
X2066Y237D01*
X1Y236D02*
X8Y236D01*
X2059Y236D02*
X2066Y236D01*
X1Y235D02*
X8Y235D01*
X2059Y235D02*
X2066Y235D01*
X1Y234D02*
X8Y234D01*
X2059Y234D02*
X2066Y234D01*
X1Y233D02*
X8Y233D01*
X2059Y233D02*
X2066Y233D01*
X1Y232D02*
X8Y232D01*
X2059Y232D02*
X2066Y232D01*
X1Y231D02*
X8Y231D01*
X2059Y231D02*
X2066Y231D01*
X1Y230D02*
X8Y230D01*
X2059Y230D02*
X2066Y230D01*
X1Y229D02*
X8Y229D01*
X2059Y229D02*
X2066Y229D01*
X1Y228D02*
X8Y228D01*
X2059Y228D02*
X2066Y228D01*
X1Y227D02*
X8Y227D01*
X2059Y227D02*
X2066Y227D01*
X1Y226D02*
X8Y226D01*
X2059Y226D02*
X2066Y226D01*
X1Y225D02*
X8Y225D01*
X2059Y225D02*
X2066Y225D01*
X1Y224D02*
X8Y224D01*
X2059Y224D02*
X2066Y224D01*
X1Y223D02*
X8Y223D01*
X2059Y223D02*
X2066Y223D01*
X1Y222D02*
X8Y222D01*
X2059Y222D02*
X2066Y222D01*
X1Y221D02*
X8Y221D01*
X2059Y221D02*
X2066Y221D01*
X1Y220D02*
X8Y220D01*
X2059Y220D02*
X2066Y220D01*
X1Y219D02*
X8Y219D01*
X2059Y219D02*
X2066Y219D01*
X1Y218D02*
X8Y218D01*
X2059Y218D02*
X2066Y218D01*
X1Y217D02*
X8Y217D01*
X2059Y217D02*
X2066Y217D01*
X1Y216D02*
X8Y216D01*
X2059Y216D02*
X2066Y216D01*
X1Y215D02*
X8Y215D01*
X2059Y215D02*
X2066Y215D01*
X1Y214D02*
X8Y214D01*
X2059Y214D02*
X2066Y214D01*
X1Y213D02*
X8Y213D01*
X2059Y213D02*
X2066Y213D01*
X1Y212D02*
X8Y212D01*
X2059Y212D02*
X2066Y212D01*
X1Y211D02*
X8Y211D01*
X2059Y211D02*
X2066Y211D01*
X1Y210D02*
X8Y210D01*
X2059Y210D02*
X2066Y210D01*
X1Y209D02*
X8Y209D01*
X2059Y209D02*
X2066Y209D01*
X1Y208D02*
X8Y208D01*
X2059Y208D02*
X2066Y208D01*
X1Y207D02*
X8Y207D01*
X2059Y207D02*
X2066Y207D01*
X1Y206D02*
X8Y206D01*
X2059Y206D02*
X2066Y206D01*
X1Y205D02*
X8Y205D01*
X2059Y205D02*
X2066Y205D01*
X1Y204D02*
X8Y204D01*
X2059Y204D02*
X2066Y204D01*
X1Y203D02*
X8Y203D01*
X2059Y203D02*
X2066Y203D01*
X1Y202D02*
X8Y202D01*
X2059Y202D02*
X2066Y202D01*
X1Y201D02*
X8Y201D01*
X2059Y201D02*
X2066Y201D01*
X1Y200D02*
X8Y200D01*
X2059Y200D02*
X2066Y200D01*
X1Y199D02*
X8Y199D01*
X2059Y199D02*
X2066Y199D01*
X1Y198D02*
X8Y198D01*
X2059Y198D02*
X2066Y198D01*
X1Y197D02*
X8Y197D01*
X2059Y197D02*
X2066Y197D01*
X1Y196D02*
X8Y196D01*
X2059Y196D02*
X2066Y196D01*
X1Y195D02*
X8Y195D01*
X2059Y195D02*
X2066Y195D01*
X1Y194D02*
X8Y194D01*
X2059Y194D02*
X2066Y194D01*
X1Y193D02*
X8Y193D01*
X2059Y193D02*
X2066Y193D01*
X1Y192D02*
X8Y192D01*
X2059Y192D02*
X2066Y192D01*
X1Y191D02*
X8Y191D01*
X2059Y191D02*
X2066Y191D01*
X1Y190D02*
X8Y190D01*
X2059Y190D02*
X2066Y190D01*
X1Y189D02*
X8Y189D01*
X2059Y189D02*
X2066Y189D01*
X1Y188D02*
X8Y188D01*
X2059Y188D02*
X2066Y188D01*
X1Y187D02*
X8Y187D01*
X2059Y187D02*
X2066Y187D01*
X1Y186D02*
X8Y186D01*
X2059Y186D02*
X2066Y186D01*
X1Y185D02*
X8Y185D01*
X2059Y185D02*
X2066Y185D01*
X1Y184D02*
X8Y184D01*
X2059Y184D02*
X2066Y184D01*
X1Y183D02*
X8Y183D01*
X2059Y183D02*
X2066Y183D01*
X1Y182D02*
X8Y182D01*
X2059Y182D02*
X2066Y182D01*
X1Y181D02*
X8Y181D01*
X2059Y181D02*
X2066Y181D01*
X1Y180D02*
X8Y180D01*
X2059Y180D02*
X2066Y180D01*
X1Y179D02*
X8Y179D01*
X2059Y179D02*
X2066Y179D01*
X1Y178D02*
X8Y178D01*
X2059Y178D02*
X2066Y178D01*
X1Y177D02*
X8Y177D01*
X2059Y177D02*
X2066Y177D01*
X1Y176D02*
X8Y176D01*
X2059Y176D02*
X2066Y176D01*
X1Y175D02*
X8Y175D01*
X2059Y175D02*
X2066Y175D01*
X1Y174D02*
X8Y174D01*
X2059Y174D02*
X2066Y174D01*
X1Y173D02*
X8Y173D01*
X2059Y173D02*
X2066Y173D01*
X1Y172D02*
X8Y172D01*
X2059Y172D02*
X2066Y172D01*
X1Y171D02*
X8Y171D01*
X2059Y171D02*
X2066Y171D01*
X1Y170D02*
X8Y170D01*
X2059Y170D02*
X2066Y170D01*
X1Y169D02*
X8Y169D01*
X2059Y169D02*
X2066Y169D01*
X1Y168D02*
X8Y168D01*
X2059Y168D02*
X2066Y168D01*
X1Y167D02*
X8Y167D01*
X2059Y167D02*
X2066Y167D01*
X1Y166D02*
X8Y166D01*
X2059Y166D02*
X2066Y166D01*
X1Y165D02*
X8Y165D01*
X2059Y165D02*
X2066Y165D01*
X1Y164D02*
X8Y164D01*
X2059Y164D02*
X2066Y164D01*
X1Y163D02*
X8Y163D01*
X2059Y163D02*
X2066Y163D01*
X1Y162D02*
X8Y162D01*
X2059Y162D02*
X2066Y162D01*
X1Y161D02*
X8Y161D01*
X2059Y161D02*
X2066Y161D01*
X1Y160D02*
X8Y160D01*
X2059Y160D02*
X2066Y160D01*
X1Y159D02*
X8Y159D01*
X2059Y159D02*
X2066Y159D01*
X1Y158D02*
X8Y158D01*
X2059Y158D02*
X2066Y158D01*
X1Y157D02*
X8Y157D01*
X2059Y157D02*
X2066Y157D01*
X1Y156D02*
X8Y156D01*
X2059Y156D02*
X2066Y156D01*
X1Y155D02*
X8Y155D01*
X2059Y155D02*
X2066Y155D01*
X1Y154D02*
X8Y154D01*
X2059Y154D02*
X2066Y154D01*
X1Y153D02*
X8Y153D01*
X2059Y153D02*
X2066Y153D01*
X1Y152D02*
X8Y152D01*
X2059Y152D02*
X2066Y152D01*
X1Y151D02*
X8Y151D01*
X2059Y151D02*
X2066Y151D01*
X1Y150D02*
X8Y150D01*
X2059Y150D02*
X2066Y150D01*
X1Y149D02*
X8Y149D01*
X2059Y149D02*
X2066Y149D01*
X1Y148D02*
X8Y148D01*
X2059Y148D02*
X2066Y148D01*
X1Y147D02*
X8Y147D01*
X2059Y147D02*
X2066Y147D01*
X1Y146D02*
X8Y146D01*
X2059Y146D02*
X2066Y146D01*
X1Y145D02*
X8Y145D01*
X2059Y145D02*
X2066Y145D01*
X1Y144D02*
X8Y144D01*
X2059Y144D02*
X2066Y144D01*
X1Y143D02*
X8Y143D01*
X2059Y143D02*
X2066Y143D01*
X1Y142D02*
X8Y142D01*
X2059Y142D02*
X2066Y142D01*
X1Y141D02*
X8Y141D01*
X2059Y141D02*
X2066Y141D01*
X1Y140D02*
X8Y140D01*
X2059Y140D02*
X2066Y140D01*
X1Y139D02*
X8Y139D01*
X2059Y139D02*
X2066Y139D01*
X1Y138D02*
X8Y138D01*
X2059Y138D02*
X2066Y138D01*
X1Y137D02*
X8Y137D01*
X2059Y137D02*
X2066Y137D01*
X1Y136D02*
X8Y136D01*
X2059Y136D02*
X2066Y136D01*
X1Y135D02*
X8Y135D01*
X2059Y135D02*
X2066Y135D01*
X1Y134D02*
X8Y134D01*
X2059Y134D02*
X2066Y134D01*
X1Y133D02*
X8Y133D01*
X2059Y133D02*
X2066Y133D01*
X1Y132D02*
X8Y132D01*
X2059Y132D02*
X2066Y132D01*
X1Y131D02*
X8Y131D01*
X2059Y131D02*
X2066Y131D01*
X1Y130D02*
X8Y130D01*
X2059Y130D02*
X2066Y130D01*
X1Y129D02*
X8Y129D01*
X2059Y129D02*
X2066Y129D01*
X1Y128D02*
X8Y128D01*
X2059Y128D02*
X2066Y128D01*
X1Y127D02*
X8Y127D01*
X2059Y127D02*
X2066Y127D01*
X1Y126D02*
X8Y126D01*
X2059Y126D02*
X2066Y126D01*
X1Y125D02*
X8Y125D01*
X2059Y125D02*
X2066Y125D01*
X1Y124D02*
X8Y124D01*
X2059Y124D02*
X2066Y124D01*
X1Y123D02*
X8Y123D01*
X2059Y123D02*
X2066Y123D01*
X1Y122D02*
X8Y122D01*
X2059Y122D02*
X2066Y122D01*
X1Y121D02*
X8Y121D01*
X2059Y121D02*
X2066Y121D01*
X1Y120D02*
X8Y120D01*
X2059Y120D02*
X2066Y120D01*
X1Y119D02*
X8Y119D01*
X2059Y119D02*
X2066Y119D01*
X1Y118D02*
X8Y118D01*
X2059Y118D02*
X2066Y118D01*
X1Y117D02*
X8Y117D01*
X2059Y117D02*
X2066Y117D01*
X1Y116D02*
X8Y116D01*
X2059Y116D02*
X2066Y116D01*
X1Y115D02*
X8Y115D01*
X2059Y115D02*
X2066Y115D01*
X1Y114D02*
X8Y114D01*
X2059Y114D02*
X2066Y114D01*
X1Y113D02*
X8Y113D01*
X2059Y113D02*
X2066Y113D01*
X1Y112D02*
X8Y112D01*
X2059Y112D02*
X2066Y112D01*
X1Y111D02*
X8Y111D01*
X2059Y111D02*
X2066Y111D01*
X1Y110D02*
X8Y110D01*
X2059Y110D02*
X2066Y110D01*
X1Y109D02*
X8Y109D01*
X2059Y109D02*
X2066Y109D01*
X1Y108D02*
X8Y108D01*
X2059Y108D02*
X2066Y108D01*
X1Y107D02*
X8Y107D01*
X2059Y107D02*
X2066Y107D01*
X1Y106D02*
X8Y106D01*
X2059Y106D02*
X2066Y106D01*
X1Y105D02*
X8Y105D01*
X2059Y105D02*
X2066Y105D01*
X1Y104D02*
X8Y104D01*
X2059Y104D02*
X2066Y104D01*
X1Y103D02*
X8Y103D01*
X2059Y103D02*
X2066Y103D01*
X1Y102D02*
X8Y102D01*
X2059Y102D02*
X2066Y102D01*
X1Y101D02*
X8Y101D01*
X2059Y101D02*
X2066Y101D01*
X1Y100D02*
X8Y100D01*
X2059Y100D02*
X2066Y100D01*
X1Y99D02*
X8Y99D01*
X2059Y99D02*
X2066Y99D01*
X1Y98D02*
X8Y98D01*
X2059Y98D02*
X2066Y98D01*
X1Y97D02*
X8Y97D01*
X2059Y97D02*
X2066Y97D01*
X1Y96D02*
X8Y96D01*
X2059Y96D02*
X2066Y96D01*
X1Y95D02*
X8Y95D01*
X2059Y95D02*
X2066Y95D01*
X1Y94D02*
X8Y94D01*
X2059Y94D02*
X2066Y94D01*
X1Y93D02*
X8Y93D01*
X2059Y93D02*
X2066Y93D01*
X1Y92D02*
X8Y92D01*
X2059Y92D02*
X2066Y92D01*
X1Y91D02*
X8Y91D01*
X2059Y91D02*
X2066Y91D01*
X1Y90D02*
X8Y90D01*
X2059Y90D02*
X2066Y90D01*
X1Y89D02*
X8Y89D01*
X2059Y89D02*
X2066Y89D01*
X1Y88D02*
X8Y88D01*
X2059Y88D02*
X2066Y88D01*
X1Y87D02*
X8Y87D01*
X2059Y87D02*
X2066Y87D01*
X1Y86D02*
X8Y86D01*
X2059Y86D02*
X2066Y86D01*
X1Y85D02*
X8Y85D01*
X2059Y85D02*
X2066Y85D01*
X1Y84D02*
X8Y84D01*
X2059Y84D02*
X2066Y84D01*
X1Y83D02*
X8Y83D01*
X2059Y83D02*
X2066Y83D01*
X1Y82D02*
X8Y82D01*
X2059Y82D02*
X2066Y82D01*
X1Y81D02*
X8Y81D01*
X2059Y81D02*
X2066Y81D01*
X1Y80D02*
X8Y80D01*
X2059Y80D02*
X2066Y80D01*
X1Y79D02*
X8Y79D01*
X2059Y79D02*
X2066Y79D01*
X1Y78D02*
X8Y78D01*
X2059Y78D02*
X2066Y78D01*
X1Y77D02*
X8Y77D01*
X2059Y77D02*
X2066Y77D01*
X1Y76D02*
X8Y76D01*
X2059Y76D02*
X2066Y76D01*
X1Y75D02*
X8Y75D01*
X2059Y75D02*
X2066Y75D01*
X1Y74D02*
X8Y74D01*
X2059Y74D02*
X2066Y74D01*
X1Y73D02*
X8Y73D01*
X2059Y73D02*
X2066Y73D01*
X1Y72D02*
X8Y72D01*
X2059Y72D02*
X2066Y72D01*
X1Y71D02*
X8Y71D01*
X2059Y71D02*
X2066Y71D01*
X1Y70D02*
X8Y70D01*
X2059Y70D02*
X2066Y70D01*
X1Y69D02*
X8Y69D01*
X2059Y69D02*
X2066Y69D01*
X1Y68D02*
X8Y68D01*
X2059Y68D02*
X2066Y68D01*
X1Y67D02*
X8Y67D01*
X2059Y67D02*
X2066Y67D01*
X1Y66D02*
X8Y66D01*
X2059Y66D02*
X2066Y66D01*
X1Y65D02*
X8Y65D01*
X2059Y65D02*
X2066Y65D01*
X1Y64D02*
X8Y64D01*
X2059Y64D02*
X2066Y64D01*
X1Y63D02*
X8Y63D01*
X2059Y63D02*
X2066Y63D01*
X1Y62D02*
X8Y62D01*
X2059Y62D02*
X2066Y62D01*
X1Y61D02*
X8Y61D01*
X2059Y61D02*
X2066Y61D01*
X1Y60D02*
X8Y60D01*
X2059Y60D02*
X2066Y60D01*
X1Y59D02*
X8Y59D01*
X2059Y59D02*
X2066Y59D01*
X1Y58D02*
X8Y58D01*
X2059Y58D02*
X2066Y58D01*
X1Y57D02*
X8Y57D01*
X2059Y57D02*
X2066Y57D01*
X1Y56D02*
X8Y56D01*
X2059Y56D02*
X2066Y56D01*
X1Y55D02*
X8Y55D01*
X2059Y55D02*
X2066Y55D01*
X1Y54D02*
X8Y54D01*
X2059Y54D02*
X2066Y54D01*
X1Y53D02*
X8Y53D01*
X2059Y53D02*
X2066Y53D01*
X1Y52D02*
X8Y52D01*
X2059Y52D02*
X2066Y52D01*
X1Y51D02*
X8Y51D01*
X2059Y51D02*
X2066Y51D01*
X1Y50D02*
X8Y50D01*
X2059Y50D02*
X2066Y50D01*
X1Y49D02*
X8Y49D01*
X2059Y49D02*
X2066Y49D01*
X1Y48D02*
X8Y48D01*
X2059Y48D02*
X2066Y48D01*
X1Y47D02*
X8Y47D01*
X2059Y47D02*
X2066Y47D01*
X1Y46D02*
X8Y46D01*
X2059Y46D02*
X2066Y46D01*
X1Y45D02*
X8Y45D01*
X2059Y45D02*
X2066Y45D01*
X1Y44D02*
X8Y44D01*
X2059Y44D02*
X2066Y44D01*
X1Y43D02*
X8Y43D01*
X2059Y43D02*
X2066Y43D01*
X1Y42D02*
X8Y42D01*
X2059Y42D02*
X2066Y42D01*
X1Y41D02*
X8Y41D01*
X2059Y41D02*
X2066Y41D01*
X1Y40D02*
X8Y40D01*
X2059Y40D02*
X2066Y40D01*
X1Y39D02*
X8Y39D01*
X2059Y39D02*
X2066Y39D01*
X1Y38D02*
X8Y38D01*
X2059Y38D02*
X2066Y38D01*
X1Y37D02*
X8Y37D01*
X2059Y37D02*
X2066Y37D01*
X1Y36D02*
X8Y36D01*
X2059Y36D02*
X2066Y36D01*
X1Y35D02*
X8Y35D01*
X2059Y35D02*
X2066Y35D01*
X1Y34D02*
X8Y34D01*
X2059Y34D02*
X2066Y34D01*
X1Y33D02*
X8Y33D01*
X2059Y33D02*
X2066Y33D01*
X1Y32D02*
X8Y32D01*
X2059Y32D02*
X2066Y32D01*
X1Y31D02*
X8Y31D01*
X2059Y31D02*
X2066Y31D01*
X1Y30D02*
X8Y30D01*
X2059Y30D02*
X2066Y30D01*
X1Y29D02*
X8Y29D01*
X2059Y29D02*
X2066Y29D01*
X1Y28D02*
X8Y28D01*
X2059Y28D02*
X2066Y28D01*
X1Y27D02*
X8Y27D01*
X2059Y27D02*
X2066Y27D01*
X1Y26D02*
X8Y26D01*
X2059Y26D02*
X2066Y26D01*
X1Y25D02*
X8Y25D01*
X2059Y25D02*
X2066Y25D01*
X1Y24D02*
X8Y24D01*
X2059Y24D02*
X2066Y24D01*
X1Y23D02*
X8Y23D01*
X2059Y23D02*
X2066Y23D01*
X1Y22D02*
X8Y22D01*
X2059Y22D02*
X2066Y22D01*
X1Y21D02*
X8Y21D01*
X2059Y21D02*
X2066Y21D01*
X1Y20D02*
X8Y20D01*
X2059Y20D02*
X2066Y20D01*
X1Y19D02*
X8Y19D01*
X2059Y19D02*
X2066Y19D01*
X1Y18D02*
X8Y18D01*
X2059Y18D02*
X2066Y18D01*
X1Y17D02*
X8Y17D01*
X2059Y17D02*
X2066Y17D01*
X1Y16D02*
X8Y16D01*
X2059Y16D02*
X2066Y16D01*
X1Y15D02*
X8Y15D01*
X2059Y15D02*
X2066Y15D01*
X1Y14D02*
X8Y14D01*
X2059Y14D02*
X2066Y14D01*
X1Y13D02*
X8Y13D01*
X2059Y13D02*
X2066Y13D01*
X1Y12D02*
X8Y12D01*
X2059Y12D02*
X2066Y12D01*
X1Y11D02*
X8Y11D01*
X2059Y11D02*
X2066Y11D01*
X1Y10D02*
X8Y10D01*
X2059Y10D02*
X2066Y10D01*
X1Y9D02*
X8Y9D01*
X2059Y9D02*
X2066Y9D01*
X1Y8D02*
X2066Y8D01*
X1Y7D02*
X2066Y7D01*
X1Y6D02*
X2066Y6D01*
X1Y5D02*
X2066Y5D01*
X1Y4D02*
X2066Y4D01*
X1Y3D02*
X2066Y3D01*
X1Y2D02*
X2066Y2D01*
X1Y1D02*
X2066Y1D01*
D02*
G04 End of Silk0*
M02*